<svg id="Foreground" xmlns="http://www.w3.org/2000/svg" width="1186.8mm" height="935.4mm" viewBox="0 0 3364.2 2651.6">
  <title>hallowmid2</title>
  <g id="mid-back">
    <path d="M2755.6,1182.3s17.9,23.4,7.9,19.1-25.5-12.8-41-23.1-33.4,1.5-56.6,3.6-19.8-10.6-6.5-19,27.3-31.5,41.1-49.1,17.2-67.4,22.1-80.1,12.9-67.7,15.5-97.2-3.1-29.9-4.8-59.6,6.5-53.3,10.1-69.8,2.2-124,2.9-140.7,4.3-70.2,3.6-123.9-1.1-77.9.4-114.9-1.4-72.4.2-111.2-8.2-84-14.4-108.5-19.2-62.5-26.8-87.1-14.8-62.2-19.3-94-3.4-128.1-.3-168.7a411.8,411.8,0,0,1,13.2-75.1s-1.1,25.9-4,62.8,3.7,87.4,7.9,160,13.8,86.2,32.1,135.6,12.8,76.9,19.8,118.1,8,52.4,8,52.4,6.3-47.8,7.5-77.3,10.8-121.6,13.4-151.1,15.1-156.6,17.2-173.1,11.8-75.2,11.8-75.2l-2.5,61c-1.2,29.6-5.4,131.2-9,184.7s-6.7,92.2-10,173.6-3.9,96.1-8.9,145.8-7.8,49.5-5.5,62.6,18.6-30.3,25.1-48.4,26-141,28.2-159.4,9.5-197.7,9.4-229.2,10.2-142,10.2-142,3.3,26.2,2.8,72.5-.7,88.9-.7,88.9-3.4,118.4-6.2,186.8-11.1,93.8-20.4,145.1-40.9,151.1-47.5,169.2,6.2,26.4,6.2,26.4a180,180,0,0,0,22.9-30c10.9-17.8,48.5-122.8,65.1-210.7,11.5-60.7,27.5-354,30.8-401.2l13.6.9c-3.1,40.7-16.7,325.4-20.8,357.4s-30.5,142.5-38.5,162.4-35.8,97.7-57.9,140.7-22.2,46.7-27,92.7-.6,85.2.2,137.2-5.7,33-8.9,75.4-1.6,74-3.4,118.4-19.1,78.4-17.8,115.6S2755.6,1182.3,2755.6,1182.3Z" transform="translate(0 217.1)" fill="#1d4451" fill-rule="evenodd"/>
    <path d="M2815,1163c0-148.8-9.2-296-19.2-444-8.6-127,5.2-250.6,9.5-377.6,2.9-85,48.7-422.8,48.7-422.8l34.2,4.5s-45.7,336.3-48.6,420.2c-4.2,125-18.1,246.9-9.6,371.9,10.1,149.3,19.3,297.7,19.3,447.8Z" transform="translate(0 217.1)" fill="#1d4451"/>
    <path d="M2995.8-104.5s35.2,440.1,44.8,560.2c9.9,122.6,4.9,257.8,0,312s-21.3,194.4-21.3,249.8,2.8,142.1,2.8,142.1l-34.4,1.9s-2.9-87.6-2.9-143.9,16.6-201,21.5-254.9c17.8-196.2-39.4-669.1-45-865.5Z" transform="translate(0 217.1)" fill="#1d4451"/>
    <path d="M3075.4,1110.5s-14.7-119.3-17.6-295.2c-2.9-174.3-6.9-353.3-6.9-426.9l-4.1-478.3h34.4l4.1,478.3c0,73.4,4,252.1,6.8,426,2.8,172.3,17.2,289.2,17.2,289.2Z" transform="translate(0 217.1)" fill="#1d4451"/>
    <path d="M262.8,1221.3s17.9,23.4,7.9,19.1-25.5-12.8-41-23.1-33.4,1.5-56.6,3.6-19.8-10.6-6.5-19,27.3-31.5,41.1-49.1,17.2-67.4,22.1-80.1,12.9-67.7,15.5-97.2-3.1-29.9-4.8-59.6,6.5-53.3,10.1-69.8,2.2-124,2.9-140.7,4.3-70.1,3.6-123.9-1.1-77.9.4-114.9-1.4-72.4.2-111.2-8.1-84-14.4-108.5-19.2-62.5-26.8-87.1-14.8-62.2-19.3-94-3.4-128.1-.3-168.7a411.8,411.8,0,0,1,13.2-75.1s-1.1,25.9-4,62.8,3.7,87.4,7.9,160,13.8,86.2,32.1,135.6,12.8,76.9,19.8,118.1,8,52.4,8,52.4,6.3-47.8,7.5-77.3,10.8-121.6,13.4-151.1S309.9-34.2,312-50.7,323.8-126,323.8-126l-2.5,61c-1.2,29.6-5.4,131.2-9,184.7s-6.7,92.2-10,173.6-3.9,96.1-8.9,145.8-7.8,49.5-5.5,62.6,18.6-30.3,25.1-48.4,26-141,28.2-159.4,9.5-197.7,9.4-229.2,10.2-142,10.2-142,3.3,26.2,2.8,72.5-.7,88.9-.7,88.9-3.4,118.4-6.2,186.8-11.1,93.8-20.4,145.1-40.9,151.1-47.5,169.2,6.2,26.4,6.2,26.4a180,180,0,0,0,22.9-30C328.8,564,366.4,458.9,383,371.1c11.5-60.7,27.5-354,30.8-401.2l13.6.9c-3.1,40.7-16.7,325.4-20.8,357.4S376,470.7,368,490.6s-35.8,97.7-57.9,140.7S288,678,283.2,724s-.6,85.2.2,137.2-5.7,33-8.9,75.4-1.6,74-3.4,118.4-19.1,78.4-17.8,115.6S262.8,1221.3,262.8,1221.3Z" transform="translate(0 217.1)" fill="#1d4451" fill-rule="evenodd"/>
    <path d="M322.2,1202c0-148.8-9.2-296-19.2-444-8.6-127,5.2-250.6,9.5-377.6,2.9-85,48.7-422.8,48.7-422.8l34.2,4.5s-45.7,336.3-48.6,420.2c-4.2,125-18.1,246.9-9.6,371.9,10.1,149.3,19.3,297.7,19.3,447.8Z" transform="translate(0 217.1)" fill="#1d4451"/>
    <path d="M503.1-65.5s35.2,440.1,44.8,560.2c9.9,122.6,4.9,257.8,0,312s-21.3,194.4-21.3,249.8,2.8,142.1,2.8,142.1l-34.4,1.9s-2.9-87.6-2.9-143.9,16.6-201,21.5-254.9c17.8-196.2-39.4-669.1-45-865.5Z" transform="translate(0 217.1)" fill="#1d4451"/>
    <path d="M582.6,1149.5S567.9,1030.2,565,854.3c-2.9-174.3-6.9-353.3-6.9-426.9L554.1-50.9h34.4l4.1,478.3c0,73.4,4,252.1,6.8,426,2.8,172.3,17.2,289.2,17.2,289.2Z" transform="translate(0 217.1)" fill="#1d4451"/>
    <path d="M2698.2,49c-8.6,29.3-11.9,63.5-11.9,100.6-14.3-12.3-24-29.7-44.7-34.8-20.6-52.1,23.4-85.5,36.3-124.8-20.6,27.6-40.5,55.9-46.4,96.7-26.1-14.2-26-57.6-55-68.5,17.2,12.1,22.9,36.9,37,52.3-7.9-5.4-34.6-15.8-44.4-29.1-5.5,4.4,5.1,11.2-11,9.1,38.1,3.9,57.3,28.8,71.7,59.1-8.2-1.1-30.6-14.5-28.9-7.1,11.9.8,17.1,9.1,29.1,9.9-10.9,12.8-35.6,6-51.1,5.5-7.4-.2-14.5,2.7-19.9,1-20.6-6.2-23.5-24.6-33.6-41.1-1.9,11.2,10,33.1,22,38.8-6.4,9.6-21.2,11.6-27.5,21.4,10.7,1.5,16.7-13.8,33.4-16,7.8-1,15.9,4.4,25.8,1.5-2.4,13.2-15.3,17-12.4,34.9,7.4-19.6,15-39,49.6-34-.6,4.6,2.9,4.8,3.3,8.4-11.5,8.7-3.4,34.9-11.9,46.3-19,.5-43.3,13.7-52.6,31.3,13.7-12.1,28.3-23.4,49.9-28.3,3.6,12.4-9.3,33.2-5.7,54.6-29.8-7.1-72.7.3-89.7-21-2.5,5.9,14.5,16,26.5,15.8-4,5.4-11.9,7.3-16.5,12.3-12-4.8-23.8-9.7-37.8-12.3,9.4,6.7,22.3,9.4,34.9,12.5-3.3,4.3-9.5,5.9-16.8,6.6,3.9,6.8,17.2-.6,19.8-3.9,9.3,7.8,17,17.3,24.3,27.3-17.9,4.9-79.5,1.2-85.6,1.6,45.5,8.8,111.3-5,135.7,27.2-4,.5-8,.9-8.7-2.4,12.2,12.2,37.3,24.5,34.9,66.7-19.9-15.3-47.1-22.3-73.3-36.2-7.8-4.1-13.2-13.2-20.8-16-15.3-5.6-34.7-1.1-49-8.9-18.4-9.9-19.4-30.8-33.7-44-.4,11.1,20.7,43.2,34,49.7,11.4,5.5,27.5,2.1,40.3,6.5,17.6,5.9,34,17.8,49.9,26,17.5,8.9,35.8,16.3,47.2,29-28-10.3-58-38.1-92.2-15.2,11,9.3,15.3-6.2,25.3-7,12.5-1,51,16,64.2,25.2,20.6,14.5,31.3,41.6,37.5,60.9,0,6.3-12,1.8-17,3.7-8.9,4.4,10.2,2.3,14.4,2.1-.6,9.4-7.7,13-10.3,20.5-6.8,1.5.9-13.1-9-8.1,4.8,14.6,8.4,45.9.1,57.1-14-13.6-32.8-19.8-36.3-38.1-4.9-25.9,22.9-56.3,18.3-86.7-10.6,21.2-10.4,52.2-21.9,72.6-5.3-.2-2.3-9.6-6.3-11.1-6.4,3.4,3.6,13.8,6.6,16.8a163,163,0,0,0-27.8,15.7c8.3,8.8,16.8-15.5,25.3-7,6.5.9.9,15.1,6.6,16.8-4.1,4.5-12.3,5.2-19.7,6.7,10.5,6.4,28.2-7.7,34.7,6.8-27.3,12.6,12.1-.8,15.1,16.4-2.7,16.1-24.7,36.2-38.7,24.9.7,5.1-2.5,8.7-10.8,12-20.5-15.4-44.6-26.9-67.8-39.3-.8-10.6-3.6-8-.9-17.1-10.6-2.1-4.4,15.3-2,17.2l-28.5,1.5c-9.9-.1-.9-21.2-12.4-19.3,4.9,25.7,15.7,44.5,31.9,64-9.6,18.9-51.1,16.8-35.1-15.3-11.3,4.2-8.1,25.1-1.2,31.5-16.5,3.2-11.5-17.4-23.9-18.8-.3,8.4,6.9,8.4,6.6,16.8-10.9,2.1-14.2-4.4-25.8-1.5,7.7,7.9,25.6,1.7,31.6,4.1,4.3,4.1-9.4,14.9-19.2,15.3,12.1,9.8,15.7-11.1,28-10,10.6-2.7,2.8,15,14.8,10.6,15.2-39.1,86.8-13.5,123.9-35.1,7.2,7.1,6.5,23,21.1,21.8-.7,3.9-7,2.7-11.2,3.4,7.2,5.1,22.8.8,31.6,4.1-7.9,10.1-16.6,19.5-18.2,35.2-8.8-3.9,1.7-12.6-1-19.9-18.7-1.3-11.2-22.9-24.1-24.5l-.6-11.4c-7.2,1.7,3.9,19.8-10.7,14.8,9.2,4,24.7,8,24.4,30.1-12.1-1.7-28.8-24.2-41.8-34.9,2.2,15.7,28.8,30.3,42.3,43.5-26.3,20.2-41.6-21.4-50.7-40.2-1.7,12.4-11.7,3.3-22.3,9.7,24.2-5.1,31.3,19.7,44.7,34.8-13.5,2.9-13.2-9.5-26.1-7.2,6,4.4,11.1,9.8,20.5,10.4-16.7,15.3-43.8,15.4-62.8.4-7.3,4.5,12.9,3.5,12,10.8-8.7,2.6-5.9-7.5-14.5-4.9,6.7,10.6,22.4,11.4,40.5,9.3.7,14.5-12,10.9-13.3,17.8,17.6-1.8-.1,7.3.7,14.2,19.2,1,31.1-4.6,48.3-5.4,2.5,8.6-4.5,8.6-1.9,17.2-26.3.2-32.9,16.3-56.8,5.8-6.2,4.2,14.3,4,17.5,7.6-3.1,5.2-25.7,6.6-25.8-1.5-9.9,27-46.5,9.6-65.1,12-5.1,11.8,36.6-2.5,37.8,12.3,20.7,1.4,32-5.6,45.1-10.9-10.6-4.9-23.2,11.6-42.4,7.9,23.2-10,41.3-11.9,64.8-17.7-5.7,15.8-3.6,27-27,30-2.4-1.4-4.8-2.7-8.7-2.4,7.9,7.3,19.9,10,24,21.6,13.4-2.6-9.1-10.1-9.4-16.7,16.8-2.1,21.3-15.2,30.1-24.4,31.9,1.7,66.3.7,91.9,9.5-2.1,18.5,7.1,24.3,10.5,36.6-17.2-3.2-58.3-18-73.9,6.7-10.8-4.4-12.8-15.8-10-28-3.6-4.1-11-3.9-14.7-7.8-7.1,1.6,3.2,8,8.8,5.2,1.2,13.8-.1,30.3,13,30.7-2.1,6.3-12.3,5.3-16.6,9.5-6,6.2,14.3-3.2,19.8-3.9-.4,25.6-44.4,21.1-49.6,34,19.4-1.5,28.6-12.2,44.8-16.6,15.8,14.1-4,33.8-24,32.7,16.4,8.3,30-9.2,36.1-19-1.5-5.4-6.5-6.8-6.4-13.9,23.1-7.5,41.8,15.8,66.6,16.5-18.4,15.7-56.7,35-78.3,32.7,9.4-.4,14.4,4.1,25.8,1.5,15.7,10.7,35.4,17,63.6,13.8,3.8.8,4.7,4.8,8.8,5.2,12.8,33.6,11.5,83.4,18.3,130.5,2.8,19.3,11.5,36.6,14.4,56.4,5.5,38.1,3.2,71.1,8.7,111,8.5-7.8,34-.2,42.4-7.9-5-36.6-19.8-83.2-18.4-133.3.5-20.1,10.8-37.2,22.7-58.3,19.6-34.8,41.5-81.4,93.1-76.3,8.8.9,27.1,13.5,46.5,14.7s39.4-4.3,43.6,14.9q1.3,9.3-8.1,9c5.9,8.5,13.3,15.3,29.2,12.8-2.8-10.6-10,.3-14.5-5-2.6-10.3,6.2-16.2-1.2-22.8,12.3-2.6,16.3,4,28.6,1.4-3.5-9.3-8.7.3-17.4-4.8-5.2-22.3-6.7-48.8-23.1-58.8,7.7,16.6,16.4,32,17.2,56.2-23.3-1.3-32.2-18.5-63.4-11-6.6-11.6,7.2-17.9,15.9-23.7-8.3-11.9-30.4-8.5-38.2-20.9-2.9,7.4,15.8,16.5,29.4,15.6,1.1,13.7-13.9,12.9-15.9,23.7-11.1-2.8-18.1-10.1-34.6-6.8-1.7-27.8,17.1-37.1,19.7-61-11.5,6.9-9.2,26.1-21.2,32.5a92.3,92.3,0,0,1-4.2,28.8c-6.8,1.5-6.5-4.9-14.4-2.1,9.1-25.3,24.6-44.8,33.5-70.3-17.2,17.1-20.8,46.4-39.6,62.1-7.5-10.8-29.8-5.1-43.3-9.2,0-18.1,12.1-25.3,30-27.3,19.7-19.4,48.4-30.6,65.8-52-17.9.2-24.5,34-55.5,31.5-1.5,14.9-18.2,16.2-33.3,18.9-5,8.1-11.9,14.6-15.9,23.7-14.3-11.6-3.9-19.3-10.6-39.4-5.3-5.1-7.1,2.7-17.1.9,16.3-40.1,13.2-80.8,42.9-108,11.3,7.6,4.4,35.3,21.9,36-13.3-7.9-8.3-28.7-16.2-36.3,23.9-18.9,45.2,7.5,71.7,4.8,12.1,10.6,17,29.3,30.6,38.4,11.7-4.9,21.7-11.2,24.5-24.1-9.5,4.1-10,16.4-21.9,18.3-11-6.9-22.2-13.6-21.7-33.1-31.9-5.9-64.5-27.1-97.5-6.3,6.1-24.4,29.8-32.9,49.1-45.4,16.7,3.7,22.3-1,33.9-7.5-11.1-6.8-10-27.1-29.8-24.2,6,5.4,14,8.6,18,16.2-17.1-6.5-30.8,11.5-41.8,19.3-10.3,2.4-11.3-5.6-20.2-4.6a57.9,57.9,0,0,1,16.2-18c-9.2-8.1-10.8,13.7-22.2,12.6-20.5-37,64.9-55.2,87.1-27.4,1.8,30.2,16.2,46.4,26.4,67.2,1.9-18-21.8-36.5-17.4-59.1,10-7.9,33-10.3,40,.8,2.4-1.9-9.3-13.6-20.5-10.4,5-9,13.4-15,18.7-23.8,9-.9,9.9,7.1,20.2,4.7-4.5,8.7-15.3-.9-22.8,1.2,24.5,10.2,53.1-1.3,80.4,7.2-12.7-11.1-29.2-3.1-49-8.9.7-9.3-5-24.5,4.4-25.9-7.9-7.8-13.9,9.1-10.4,20.5-22.5-6.2-43.5-1.5-66.3-10.8-3.6-10.5,10.4-5.1,7.8-14.7-14.4,17.3-51.7,21.3-73.8,9.6,2.6,6.2,13.6,3,14.8,10.7a269,269,0,0,0-41.4,27.9c-5.2-12.3-5.5-30.1-8.1-45.3,6-4.6,14.9,13.5,31.8,6.9-7.2-6.1-21.8-3.9-26.4-12.9,8.7-11.6,15.4-10.5,33.7-10.3,4.9-.7,24-9.4,10.9-9.1-2.6,6.7-12.8,6.6-22.5,6.9-.5-10.2,11.1-6.3,16.6-9.4,17.4-9.8,35-25.1,43.5-42.3-10.1,5.5-18.8,26.4-30.3,21.6-4.5,10.9-28.6,24-52.9,25.6-7.6,2.4,1.3-13.5-6.3-11.1,11.3-5.2,23-10,27.5-21.4,5.7-.3,4,7.6,11.7,5.1s-8.2-2.4-8.8-5.3c1.7-8.4,15.1-6.3,13.4-17.8-5.1,5.4-12.8,8.4-16.4,15.1-7.7-.4-5.7-11.7-12.1-13.6,24-37.9,86.3-12.2,100.8,14.7,5.9,5.8-7.9-11.4-9.4-16.6,13.6.5,23.2-2.6,31-7.3-13.6,2.5-44.5,7.9-54.7-8.6,26.5-22.5,53.4,6.3,77.8,13.1-14.1-13.5-36.3-18-52.9-28.7-22.9,17.6-66.1.3-87.6,18.9-18.3-37.3,43.5-26,51.7-48.4-19.2,18-69.9,7.7-60.1,51.7-1.9,6.4-9.6,7.7-13.7,12.1-1.9-4.4-2.4-26.2,1.1-34.3,9.5-11.3,30.6-12.2,35.7-27.6-11.6,6.7-21,15.5-33.2,21.7-7-33.4,13.7-65.5,32.7-84.6,52.1-14.1,106.3-8.4,165-14.4,13.4-1.4,26.4-2.6,8.4-3.3l-19.9,1c-43.2-4.6-94,.5-142.3,10.3,3.2-18.8,45.1-2.8,50.4-19.8-11.3,2.6-31.4,11.4-42.6,5.1,16.8-5.7,32.1-12.7,50.5-16.9-12.3-5.5-28.5,8.6-42.3,10.8,9.1-20.8,73.7-28.6,109.5-37.2,10.2-2.4,28.7,4.2,30.9-10.2-5.1,5.3-18.7,3.1-28.3,4.3-6.4-4.2,7.9-12.6,4.5-23.1-3.6,34.3-58.1,39.5-87.1,27.4-4.8-15.5-8.5-25-2.1-39.9,6,1.3,8.5,6.6,17.4,4.8-26.1-13.2-40.8-39.1-81.9-35.7-.3-14.7,25.1-17.8,18.4-29.5,21.2-4.2,34.1-28,58.2-34.5s58.9,5.8,67.6-17.8c-19.3,19.1-51.2,7.2-73.3,18.1.5-9.5,7.9-12.8,13.4-17.8-10.2-5.5-17.6,14.9-21.6,24-17.4,3-27,22.5-44.8,16.6,2.9,10.8-5.5,11.3-10.6,14.8,3.8-26.4,7-59.5-9.7-76.6.7-10.2,6.3-16,13.2-20.7,12.8-4.2,11.6,7.2,23.1,4.5-6.3-17.1-42.6-8.9-42,16.5,16.6,11.5,16.4,53.5,9.6,73.8-14.7-17.8-20-46.1-24-75.9-4.9-8.5-1.9,12.5-2,17.2-10.9,1.1-6.9-14.4-17.8-13.3,11.3,15.5,27,26.3,28.5,52.8-16.6-9.7-45.7-31.7-73.5-39,30.6,18.3,66.8,30.3,86.1,61.2-7.5,18.6-15.5,36.8-25.8,52.8-8.5-5-15-16.7-10-28-4.9-.8-5.3,2.5-5.4,6-16.8-10.4-43.3-23-34.2-52.5-11.6,3.6-6.5,15-1.7,22.9a130.3,130.3,0,0,1-27-24.3c.5-11.3,8.4-16,13.1-23.5-6.3-8.9-6.7,10-13.8,9.3-8.6-44.9,30.4-65.4,16.4-123.7,10-14.5,30.6-19.5,38.1-36.3-10.9-2.5-17.1,22.5-33,24.6-5-3.8,4.9-17.2,4.4-25.9-9.4,6-9,20.8-12.6,32.1-4.3-20.7,7.8-63.8-12.7-79.3,9.3,23.1,9.8,43.5,6.6,71.1-9.3-3.7-9.8-17.2-21-18.9C2685.8,32.6,2692.1,40.7,2698.2,49Zm-71.7,49.5c-.8-3.6-9-13.5-3.6-14.1C2623.1,88.6,2634.1,95.5,2626.5,98.5Zm-7,28.9c11-10.6,7.2,8.8,0,0Zm19.6-6.7c38.1,10.3,54.5,74.6,43,112-8.2-34.1-32-50.9-68.5-53.5C2620.1,157.9,2616.5,127.5,2639.1,120.7Zm-36.6,119.1c16.5,23.9,56.9,37.3,55.2,71.4-16.2-7.1-40-5.8-60.4-8.3-2.4-33.6-15-55.7-37.8-66.6C2577.1,233.8,2586.3,240.7,2602.5,239.7Zm-11.6,52c-30.7-6.1-52.2-22.4-65.4-48C2555.2,222,2589.4,254.3,2590.9,291.8ZM2474.7,526.4c21.9-9.4,34.1,1.8,49,8.9,17,8,38,15.9,35.8,29.5-17.3,4-36.2.3-59.8,3.1C2488.6,557.1,2481.5,541.9,2474.7,526.4Zm124.8,36.3c21.3-4.5,31.5,3.2,37.9,15.2C2625.5,591,2599.6,581.1,2599.4,562.7ZM2583.2,635c-4.2,13.1,11.5,9.9,4.3,28.3-12.1-7.1-28.8-5.9-40.3-6.5C2551.4,642.6,2568.6,640,2583.2,635Zm-.9,37.2c-15.8-3.2-30,9-39.9,2.1,3.3-.7,2.9-4.7,2.4-8.7C2558.5,660.1,2578.7,653.6,2582.3,672.2Zm-23.5,41.2c1.7-.9,10.6-7.7,11.4-.6C2564.7,710.4,2561.1,721.9,2558.8,713.4Zm110.9,99.9c4.3,8.4,6.4,34.9,4.9,39.7-13.4-2.8-49.1,5.1-60.7-14C2634.3,832.1,2646.7,818,2669.7,813.3Zm165.9-160.1c7.7-3.8,11.6-6.8,19.8-3.9.3,3.9-1,6.3-2.4,8.7C2847.8,655.7,2838.7,657.8,2835.6,653.2Zm-27.7,15.7c-8.8,2.9-11.5,11.4-22.2,12.6-1.1-8.9.8-21-4.2-25.5C2791.7,658.8,2802.1,661.2,2807.8,668.9Zm102.3-65.4c-8,9.1-14.1,19.9-27.3,24.3-8-8.2-19.7-12.3-24.1-24.5C2866.8,582.8,2898.9,593.4,2910.1,603.6Zm-88.6-1.1c7.2-5.4,29.4-11.4,39.7-4.9C2856.7,605.4,2830.2,607.5,2821.5,602.5ZM2778,536.2c-3.4-5.2-4.3-13.3-6.7-19.6,3.6-3.1,8.3-5.2,10.9-9.1,8.9-1.8,7.9,7.3,14.7,7.8C2793.8,525.1,2789.5,533.9,2778,536.2Zm80.1-269.9c5.4,32-15.2,55-37.2,53.4,5.4-5.2,9.5-25.7,7.1-28.9-7.2,18-9.2,40.6-34.9,41.8-1.8-25.1,10.6-37.5,17.1-55.2,6.9-2.9,16.3-3.4,16.5-12.3-7,2.7-10.8,8.4-19.5,9.6-13.7,17.5-14.6,46.6-25.1,67-27-35.1-8-66.5,12.2-94.9C2826.4,241.3,2838.6,257.9,2858.2,266.3Zm-106.3-11.6c-2.1-8.8-24.4-10.9-31.6-4.1,41.8-10.4,54.7,35.7,31.5,55.5-16.8-16.5-40.8-25.1-61.9-36.8,10.3,17.7,39.7,14.2,47.5,34.7-17.9,2.7-32.2-14.4-43.3-9.2,15.1,6.3,30.5,12.4,49.3,14.6.8,2.2.4,5.6,3.1,5.5-7.6,19.4-24.3,30.6-34.7,47.5-9.6-10.5-17.1-23.2-27.4-32.8-5.8-36,3.1-58.8,6.9-86.1,10.2-3,19.6,10.1,25.8,1.5-10.2,1.3-14-4.5-23.1-4.5,4.3-10.6-4.3-32.8,6.6-37.5C2712.7,223.9,2744,239.3,2751.8,254.8ZM2694,132.1c-5.9-28.4-2.5-51.5,10.7-69.1C2713,88.1,2707.9,118.6,2694,132.1Zm-21,89.7c1.7,18-22.3,37.5-11,63.4-12.5,1.2-19.3-14.2-29.8-24.2s-23.9-15.4-27.1-27.2c-4.9-17.7,5.5-29.8,5.9-51.7C2642.2,186.9,2670.4,195.8,2673,221.7Zm131.7,4.5c-8.3,8.2,7.3-9.1,0,0Zm-135.4,87.1c-8.1-28-7.2-66.7,7.1-83.2C2682.1,254.8,2670.5,286.2,2669.2,313.4Zm4.9,39.7c-11.4.6-21.2,2.6-19.2,15.3-9.9-4.1-25.6,5-14.6-5-7.3-3.3-11.4,9-14.2.7,2.2-.8,5.6-.4,5.6-3.2l-5.7.3c6.1-30.9-20-42-20.1-56.1,10.5,5.5,29.3,1.6,37.6,9.5-8.6,2.2-24.7-2.4-28.4,4.3C2649.8,313.8,2678.7,314.8,2674.1,353.1Zm189.3-41.3c-5.3-.1-9.6-1.4-11.7-5.1,3.6-.3,3.8-3.9,8.4-3.3C2860.2,307.3,2861.8,309.6,2863.4,311.8Zm-117.3-2.4c2.3.5,5.6-.2,5.8,2.5C2749.7,311.4,2746.4,312.1,2746.1,309.3Zm12.3,16.5c-.9-4-4.9-4.6-6.1-8.2,1.7-.3,3.4-.6,2.7-3l5.7-.3C2760.4,318.6,2762.2,324.8,2758.4,325.8Zm97.2.6c-19.8,10.2-29,30-52.3,37-5-4.5-3.1-16.6-4.2-25.5,19.5-7.8,34.6-19.5,58.8-23.1C2858.3,319.9,2857.7,323.8,2855.6,326.5Zm-78.9,21.3c-2.2-8.7-18.7-17.2-10-28C2765.3,332.4,2781.6,341.1,2776.7,347.7Zm101.7-22.5c-7,0-13.7.3-16.9,3.7-.9-5.4,2.9-6.5,2.3-11.5C2870.4,318.1,2876.1,319.7,2878.4,325.3Zm-101.1,33.9c-10.7,13.9-2,45.2-11.1,60.6-24.9-7.5-34.7-31.9-48.4-51.7,11.3-15.2,23.6-29.4,34.8-44.7C2761,335,2772.3,343.6,2777.3,359.1Zm-83.1-4.2c-.6-3.3-4.7-2.9-8.7-2.4.3-4.3-1.6-10.5,2.3-11.5C2687.5,346.7,2700.5,352.5,2694.2,354.9Zm97.5,6.3c-7.1-7-6.6-19.4,4.5-23.1C2792.3,343.7,2797.1,357,2791.7,361.2Zm-85.3,7.3c-5.2,2.6-10.2,5.3-16.8,6.6.9-9.1-5.7-9.8-3.9-19.8C2695.9,356,2701.7,361.7,2706.4,368.6Zm-30.7,13c-3.4-9.3-16.2-8.1-15.4-22,6.9.8,5.9-5.5,14.1-3.6C2674.3,361.1,2681.6,373.4,2675.6,381.6Zm3.5,11.2c5.2,10.3,3.8,27.9,5.1,42.6-3.9,4.6-14.5,3.3-22.6,4C2648.6,421.3,2675.3,411.8,2679.1,392.8Zm-27,30c-5.9-16.6-23.4-36.2-19.9-53.2,19,2,36.7,5.5,43.9,20.6C2660.2,396.8,2672.7,417.4,2652.1,422.8Zm127.2-26.7c1.3-10.6,1.8-21.9,7.1-28.9C2790.2,382,2789.2,388.7,2779.3,396.2Zm19.1-18.1c-1.3-7.5,5.6-7.7,10.9-9.1C2810.5,376.3,2805.8,378.4,2798.3,378Zm-104.7,19.8c-3.5-3.2-3.8-9.9-3.7-16.9,5.9-2,7.8-7.5,16.8-6.6C2703.5,383.2,2703.4,394.9,2693.6,397.8Zm57.1,54.2c-21.4-9.4-31.3-31.6-48.1-46,7.8-5.7,3.8-21.9,15.9-23.7C2726.8,409.3,2765.9,416.3,2750.8,451.9Zm-35.1-15.3c-10.4,3.4-7.1,6.5-19.8,3.9-1.1-12.8,1.1-22.5,7-28.9C2705.2,422.1,2717.5,421.5,2715.7,436.6Zm8.7,2.4c7.4,9.2-9.9-6.4,0,0Zm-11.4.6c2.2.5,5.6-.2,5.8,2.6C2716.6,441.7,2713.2,442.4,2713,439.6Zm-34,4.6c-10.2,15.4-15.3-10.6,0,0ZM2665.7,465c-3.6,6.7-11.3,9.8-16.4,15.1,2.4-12.3-1.5-30.3,6.6-37.5C2657.9,451.6,2665,454.7,2665.7,465Zm88.8,3.9c4.6-8.5,3.3-22.4,9.9-29.1C2766,452.2,2763.3,474.9,2754.5,468.9Zm-46,48.1c-6.4,1.1-10.7-.1-11.7-5.1C2702.1,512,2706.4,513.3,2708.4,517Zm-14.8-64.9c10.2-5,29.6-5.7,34.5,3.9-4.3,22.8,5.5,44.2-14.3,55-5.2-7.3.9-27.1-10-28,2.8,8.9,2.9,20.9,7.2,28.2C2682.5,514.8,2688,469.1,2693.6,452.1Zm-17.1.9c-8.3,8.2,7.3-9.1,0,0Zm66.3,10.8c1.7,4.1,4.6,7,6.3,11.1-5.7,3-11,6.4-16.6,9.4-6.4-8.4-3.7-27.4,1.1-34.3,11.8,8.3-.1,12.4-1.7,22.9C2739.4,473.4,2733.5,461.8,2742.8,463.8Zm11.2-3.4c-2.9.1-3.3,2.5-5.5,3.1,0-4.5-.9-9.9,5.3-8.8Zm-115.6,28.9c-6.2-8.3-.2-24.2,7-28.9C2645.5,472.1,2646.3,484.6,2638.4,489.3Zm42.9,54.9c-8.3-16-31.4-15.3-46.9-23.3,5.2-22.4,18-38.1,34.5-50.4C2675.4,490.5,2688.1,519.5,2681.3,544.2Zm72-43.8c-2.8-5.9-9.1-8-9.4-16.7,3.9-.1,6.2-1.7,8.4-3.3C2750.3,488,2761.7,495.6,2753.3,500.4Zm-2.6,5.8c-9.1,8.1-15.8,18.4-33.3,18.9,4.5-15,12.3-26.9,23.9-35.5C2744.3,495.3,2747.7,500.6,2750.7,506.2Zm1.2,22.8c-1.4-3.5-4-5.6-8.8-5.3,0-7.4,10.6-19.2,13.5-15C2748.4,509.6,2760.1,528.2,2751.9,529Zm3.7,16.9c-12.6.9-20.8-3.1-26.2-10.1C2733.5,514.4,2754.7,529.8,2755.7,546Zm-40.3,47.8c-10.2,3.2-4.6-11-6.6-16.8-5.5-6-11.7-11.1-15.3-19.2,5.5-11.4,2.9-30,18.3-32.4C2713.7,551.5,2724.2,577.8,2715.3,593.8Zm6.9-31.8c-.2-20-9.9-20.3-4.6-34,4.3.3,10.5-1.6,11.5,2.3C2720.4,545.4,2747.9,556.2,2722.2,562Zm-45.7-.5c-13.2,2.6-18.5-3.5-28.8-4.2-.4-10.6-5.2-16.3-9.7-22.3C2660.4,531.7,2676.5,549.8,2676.5,561.6Zm-40.3-6.5c-9.3,1.1-11.9-12.8-.6-11.4Zm-23.1-4.5c4-.9,4.6-4.9,8.3-6.1C2624.1,550.2,2614.6,557.6,2613.1,550.6Zm146.8,20.9c-16.6-.5-22.7,8.5-33.6,13.2-3.5-23.1,13.3-27.9,29.7-33C2755,560.7,2761.6,561.5,2759.9,571.5Zm30.9-10.2c-5,0-8.8,1.1-11.2,3.4l-.4-8.5C2784.4,556.3,2788.7,557.5,2790.8,561.3Zm-14.4-2.1c-2.7,11.4-3.9-11.1,0,0ZM2680.7,587c-12.6-.1-17.3-8.9-31.8-6.9.3-4.3-1.6-10.5,2.3-11.5C2663.3,572.2,2678.7,572.2,2680.7,587Zm78.7,30.2c-14.9-.7-22.6,5-33.9,7.5,4.4-22.3,6.6-46.6,34.7-47.5C2759.6,590.3,2757.1,601.6,2759.4,617.2ZM2658,591.1c9,1,11.3-7.3,14.4,2.1-6-1.4-18.5,4.5-20.1-1.8,3.8.2,8-12,11.2-3.4C2661.4,588.7,2658,588.3,2658,591.1Zm-5.3,8.8c-4.2,4.4-13.1,4.5-16.6,9.4,17.8.6,18.4-14.2,39.4-10.6,8.1,34.1-31.1,40.1-52.6,31.3.9-20.9,13.1-31.6,23.4-44.1C2650.8,591.4,2643.9,596.1,2652.8,599.9Zm61.3,25.4c-7.1-5.2,4.4-16.2-4-22.6,6.6-1.3,11.6-4,16.8-6.6C2721.8,605.1,2727.3,623.6,2714.1,625.3Zm99-19.5c2.2.5,5.6-.2,5.8,2.6C2816.7,607.8,2813.3,608.6,2813.1,605.8ZM2611,619.3c-2.7,11.4-3.9-11.1,0,0Zm66.1,8c-.4-4.9,1.8-7.4,5.3-8.8C2682.7,623.3,2680.5,625.8,2677.1,627.2Zm77.4,4.5c-.9-4-4.9-4.6-6.1-8.2l8.5-.4C2756.6,626.4,2757.8,631.1,2754.5,631.7Zm-16.5,120.9c-11.7,14.8-4.5,46.6-16.8,60.9,1.3-12.1-10.7-21.8-13.3-36.4-2-10.9,1-22.8.9-37.2-.2-24.2-6-54-3.7-71.2,2-14.9,16.8-24.9,9.5-37.6,62.9-13.9,37.4,29.1,32.4,72.6-2.3,19.9,3.5,34.4-6.3,43.2-14.6-22-23.6-50.2-32.7-78.3C2708.4,707,2727.6,724.9,2737.9,752.6Zm-63.1-113.8q-3.1-11,8.1-9C2685.3,637.3,2677.3,635.6,2674.8,638.8Zm-68.5.7c-.7-3.3,13.5-7.3,2.9-.1C2608.8,639.6,2607.3,643.8,2606.3,639.5Zm-2.8.1c-5.8,6.4-15.5,1.9-17.4-4.8C2593.6,634.5,2602.7,632.4,2603.5,639.7Zm22.6-4c10.1,6.4,34.3-2.7,40,.8C2661.8,645.8,2628,647.7,2626.1,635.6Zm45,94.8c-5.1-34.6-17.8-60.6-33-84,21.8,3,23.9-3.9,45.4-5.2C2683.6,674.8,2681.7,706.5,2671.1,730.4Zm-31.5-55.5c2.8,15,12.4,22.4,16.2,36.3-16.8-6.2-30.5-19.8-47.1-26.1-6.1-2.3-15.2,2-17.5-7.7C2602.8,663.9,2621.5,684.8,2639.6,674.9Zm-48.9-6c4.7-7.6,12.5-12.2,13.1-23.5,23.2-3.7,30.7,10.1,38.4,23.7-18.6,9.3-38.3-2.2-48.6-.3C2593.6,670.3,2591.4,672.1,2590.7,668.9Zm174.4,56.6c.4-25.9,4.5-48.4,13.7-66.4C2784.9,686.2,2778.4,708.8,2765.1,725.5Zm-119.8-50.9c-2.7,11.4-3.9-11.1,0,0Zm3.8,17c-9.1-16.1,6.6-7.9,0,0Zm-7.2,26.1c-19.4-9.6-56.9.9-72.1-13.4,13.8-1.1,17.2-11.6,30.7-13C2614.2,698.1,2640.6,706.9,2641.8,717.7Zm-83.5-12.8c-.1-2.9,4.8-3.8,5.7-.3C2560.8,704.5,2559.8,709,2558.3,704.9Zm113.5,39.8c-2.7,11.4-3.9-11.1,0,0Zm-1.3,28.6c-.4,10.5,3.7,25.1-1.2,31.5-31.2-2.5-42.7-27-67.6-36.5C2621.5,751,2651.5,763.8,2670.5,773.3Zm-44.7,19.5c-5.5-9-23.2-4.4-31.9-9.8,3.3-.6,2.9-4.7,2.4-8.7C2609.8,774.4,2626.6,786.7,2625.8,792.8Zm75.7,27.5c-4.2-2.6-11.2-17.4-4-22.6C2696.8,805.6,2709.2,814.4,2701.5,820.2Zm70.5,36.3-34.2,1.8c1.3-15.1,6.4-26.8,9.3-40.5l17.1-.9C2765.8,831.2,2762.6,850.8,2772,856.5Zm-71.1,6.6c3.2-16.7-9.6-31.4-2.2-42.7C2711.2,822.5,2713.4,859.5,2700.9,863.1Zm85.8,1.2c8.2,8.3-9.1-7.3,0,0Zm-5.7.3c9.8,55.3-23.2,94.7-44.6,130.9-13.1-48.1-10.2-86.2-1.2-131.4C2750.1,864.8,2770.4,859.3,2780.9,864.6Zm43.6,14.8c-14.4,7.8-24.2,19.9-35.6,30.4-2.3-12.9,4.1-18,1.2-31.5,9.2-5.3,17.1-11.8,30.7-13C2823.6,868.6,2825.1,872.8,2824.6,879.5Z" transform="translate(0 217.1)" fill="#1d4451" fill-rule="evenodd"/>
    <path d="M3199,1159.1c-63.5-37.2-94.8-105.9-94.8-105.9-27.1,47.7-222.6,84.6-368.7,105.9H1214.3l-597.7-31.5-266.6,31.5H0V2434.6H3364.2V1159.1Z" transform="translate(0 217.1)" fill="#1d4451"/>
  </g>
</svg>
