<svg id="Foreground" xmlns="http://www.w3.org/2000/svg" xmlns:xlink="http://www.w3.org/1999/xlink" width="1192.3mm" height="435mm" viewBox="0 0 3379.8 1233">
  <defs>
    <linearGradient id="linear-gradient" x1="2288.64" y1="1161.53" x2="2288.64" y2="737.14" gradientUnits="userSpaceOnUse">
      <stop offset="0" stop-color="#163946"/>
      <stop offset="0.95" stop-color="#5a8a95"/>
      <stop offset="1" stop-color="#5a8a95"/>
    </linearGradient>
    <linearGradient id="linear-gradient-2" x1="743.96" y1="1128.31" x2="743.96" y2="457.01" gradientUnits="userSpaceOnUse">
      <stop offset="0" stop-color="#163946"/>
      <stop offset="0.93" stop-color="#5a8a95"/>
      <stop offset="1" stop-color="#5a8a95"/>
    </linearGradient>
    <linearGradient id="linear-gradient-3" x1="2767.32" y1="1128.31" x2="2767.32" y2="466.43" xlink:href="#linear-gradient-2"/>
    <linearGradient id="linear-gradient-4" x1="3311.64" y1="-404.68" x2="3311.64" y2="-937.43" gradientTransform="translate(-1692 1584)" gradientUnits="userSpaceOnUse">
      <stop offset="0" stop-color="#163946"/>
      <stop offset="0.89" stop-color="#5a8a95"/>
      <stop offset="1" stop-color="#5a8a95"/>
    </linearGradient>
  </defs>
  <title>hallowback2</title>
  <g id="back">
    <path d="M2002,1140.9c-4.3-.4-12.1,9.7,0,0Zm-10.9-6.8c-1.6-.2-5.6,10.9,0,0ZM1886.3,995.7c-5,10.6-24.6-15.7-10.6,24.6C1882.9,1020.9,1885.3,999.2,1886.3,995.7Zm264.9,34.4c-9.5-.5-12.9,3.7-11.6,10.2q8.4,3.1,11.6-10.2C2145.5,1029.8,2151.1,1035.4,2151.3,1030.1Zm-216.6-59.2c-23.6,6.1,6.8,19,14.6,14.2C1942.4,983.1,1939.2,978.1,1934.7,970.9Zm124.6,27.7c.5,3.4-31-.2,6.3,14.6Q2070.7,1006,2059.3,998.6Zm92.3,13.8c-6.8-.2-10.8,3.8-18.2,2.6.4,2.2,5.5,14.1,5.7,14.4Q2156.6,1023,2151.6,1012.4Zm-120.8-31.5c-7.8-.4-.9,7.1,0,0C2028.1,980.8,2030.5,982.7,2030.7,980.9Zm-144.9-42.8c-4.1,1-2.2,3.1,0,0ZM2054.2,976c-.5-2.5,1,13.5,5.4,18.5Zm-40.5-27.7Zm188.5,39.9-20.5,5c10.3,6.7,11.3,7.7,22.6,15-1.4,7.4-13.1,9.3-12.2,13,25.9,20.3,22.2-19.6,10.1-33.1C2192.4,985.5,2212.7,999.9,2202.1,988.1Zm-140.7-37.6Zm124.4,28.8c-.3.3,2,3.4,0,0Zm-5.2-3.1c-6.7,6.8.8,2.2,0,0Zm12.7-20.6c-10.4,2,2.1,17.4,4.7,18.9,9.5-4.1,2.8-9-4.7-18.9C2186.5,957.1,2197,960.7,2193.3,955.8Zm26.4-10.7-19.2,10.1c5.6,8.7,10.4,33.1,23.2,31.2-10.2,3.7-3.6-40.8-4-41.3C2212.7,944.7,2221.7,947.4,2219.7,945.1Zm15.9-5.6Zm107.7,18.8c-.8,2-9.6.2-7.1,8.3C2361.2,983.2,2343.4,958.2,2343.3,958.3Zm-78.5-44.8c-7,9.1,2,4,0,0Zm154.3,37.4Zm-153.5-49Zm31.7-2.3c-4.8-.7-4.2,7.3,0,0Zm-29.9-8.5c-7.4-1.1-15.2,10.1,0,0Zm201.2,48.9c-6.9,10.2,5.7,9.8,0,0Zm-95.3-27Zm-33.8-9.5c3.1,4.1-40.3,1.5,11.6,17.1a34.6,34.6,0,0,1,2-6.6Q2344.5,911.9,2339.3,903.4Zm23-.3c-10.2,9.1-.3,4.3,0,0Zm110.3,17.7c-24.3,5.5-6.7,7.7-30.9,4.2C2454.3,932.1,2485.4,943,2472.6,920.8Zm-174.9-50.7c-6.9,2.1-13.2.1-16.8,4.2a56.1,56.1,0,0,0,28.1,3.4C2308.8,876.4,2299.6,867.8,2297.7,870.1Zm266.7,61.5Zm-7-2.9Zm-18.9,3.1q12.1-17.5,1.9-19.7C2524.5,960.6,2538.7,917.5,2538.5,931.7Zm-252.1-96.4Zm29.2,3.6q-17-4.8-20.6,8c17.5,4.8,13.9-1.3,20.6-8C2309.2,839.3,2314.2,840.4,2315.6,839Zm341.6,82.3c-3.6,7.5-16.3,4.2-7.2,14.2C2657.2,934.9,2661.4,929.7,2657.3,921.2Zm-352.6-91.5Zm-13.2-6.8Zm276.2,66.8c-52.1,8.8,12.4,56.8,0,0C2566.7,889.9,2568.6,894.1,2567.6,889.7Zm169.5,40.5c-8.3,3.3-7.5,8.2,0,0Zm-137.5-55.2c-1,3.9,3.5,5,0,0C2599.2,876.8,2600.4,876.2,2599.6,875.1Zm72.3,16.6c-2.8,5.9-15,11.2-12.3,24.2C2674.8,909.3,2668.6,898.6,2671.9,891.7Zm-22.7-6.8c.2,1.3-28.9-6.6-1.8,13.8C2657,893.1,2654.1,890.5,2649.3,884.9Zm72.6,9.6c-.7,2-.8,1.3.5,3.1Zm-62.1-23c-1.5,1.9-1.9,5.7-1,7.4Zm19,1.7Zm44.7-2.6Zm-96.4-33.2c-2.9.8-1.4,5.6,0,0Zm38.9-.5q-26.5-8.6-25,12.2C2644.9,853.4,2667,836.5,2666.1,836.9Zm96.9,19.7c-.6,6-7.4,9.5-1.4,17.4Q2775.9,873.1,2763.1,856.6Zm-12.7-3.7-16.8,9.5C2745.3,871,2743.6,859.8,2750.3,852.9Zm16.2-6.7Zm12.9-8.1c-21.7,107.1-46.7,215.7-70,323.4-35.6-22.7-128.9-13.1-169.4-17.2-45.5-4.6-90-12.9-135.2-18.7-108.1-13.8-203.3-6.9-309.6,10.7-64.6,10.7-117.2,16.5-188.8,6.1-36.4-5.3-173.1-63.2-71.9-78.3.5-.9,5.1-14.1,10.9-25.8-4,.4-8.6-.5-15.8-.3,7.1-37.9,10.3-51.3,25.6-93.8,4,2.3,21.2,51,26.6,45.6,5-10.5-3.4-19.8,1.7-32.2-5-4-10,3.3-14.6-.6a29.8,29.8,0,0,0,12.2-15.4c-11.3-8.3-6,4.8-14.1,5.4-5.8-18.3-5-21.2-17.1-40.4.4-.6,28.7,14.9,30.1,15.7,2.4,5.7-9,1.2-6.6,6.1,27.8,10.3,31.3-6.7,21.4-33.8,15.7,31.8,18.1,80.4,60.4,60.5-12.9-3.2-15.1-2.8-22.3-19.1,7.9.2,25.4-2.1,31.3-8.9-11.6-11.1,5.5,1.2,1.4-17.4-6.7-1.4-11.7-.2-17.1-2.4,13.1-18.2,15.7-14.2,22.3-37.8,2.4,1.9,29.9,42.8,31.2,46.2-12.7,13.1-12.4,2.1-18.8.1,26.7,13.7,19.9,18.5,16.1,37.1-3.2-.4-15.7-11.5-21.7-8.3,8.2,20.6,23.3,17,33.3,6.4,22.4,22.4,16.3-6.6,35.9-19-5.9,1.3-30.8,9.2-35.8,4.8,27.3-10.7,34.5-20.4,47.5-26.2.2-.1,6.1-26.5,15.2-26.5-12.1,27.9,4.7,28.1,15.7,52.4-14.3-7.9-12.1.2-24.9-15.6-2.3,14.3,33.4,40.9,17.2,51-44.1-28.2,4.6,24.5,2.4,24.3,16.7-5.7-6.6-13.8,9.7,4.2,36.7-10-7.2-19.3-7.1-18.9,4.4-11.9,22.3-27,27-34.8-1.1,1.1-11,15.1-14.4,14.8,7.3-15.1-.5-48.9,8.6-61.3,5.3,22.7,24.2,32.6,30.3,53.1-1.7-.8-11.7-12.5-17-8.3,10.9,41.6,46,16,10.9,36.5,2.8,3.6,21.5,15.8,26.2,17.7-9-37.6,41.8-34.3,39-76.9,16.9,7.8,18.9,42.3,20.1-17,18.8,37.7,55.8-5.2,16,15.8-7.8-21,8.7-21.7,35.9-40.9q-3.3-20.1-28.7-3.5a186.7,186.7,0,0,1,29.2-10c-3.5-1.3-86.3,29.3-81.7,6.5,4.1-20.2,53-19.4,66.8-19.1,7.6-12.2-52,3-45-20.5,8.6-28.9,25.2-8.3,31.6-18.3,15.4-24,17.6-56,66.3-40,34,11.2,55.5,74.9,18.4,88.7-4.8,20.7,25.9,28.7,36.8,15-.3.1-14.2,1.8-17.6-.2,9.3-11.1,19.4-24.3,28.6-34.4,22.1,72.3,14.5,69.4,47.2-6.2l2.8.7c4.1,17.1-24.6,55.8-10.8,69q8.3,3.2,13.5-7.9c-.7-9.2-9.8,1.6-11.2-8.1,2.9-8.5,8.5-24.3,12.9-35.3,2.3,3.3,24.3,40.8,26.2,44.9-3.6,4.5-8.8,2.6-11.4,3.7a34.4,34.4,0,0,0,23.1,15.7c25.5-16.3,37.5-70,30.7-95.5,13.5.7,5.9,39.4,19.2,47.4,5.7-5.5,1.4-19.2,15.2-7.5,0,1.3-17.4,54.1,7.9,42.2-2.3-9.9,15-13.1,14.9-25.4.2.1-19.2-1.2-21.5-1.1,7.4-34.5,28.7-17.4-4.5-52.6a20.7,20.7,0,0,1,1.7-4.9c18.6,16.6,36.5,18.6,56.6,26.4.2,23.2-2.7,4.6,12.2,24.9a59.1,59.1,0,0,1-3-21.5c10.4,1.4,28.2,7.8,28.4-9-2.4-.7-13.4.3-15.4.4,7.5-19.8,27.3-39.8,42.1-53q7.7,14.6-9.9,29.5c14.6,4.1,64.6,4.3,51.5-25.8-3.2,4-14.5,30.5-30,21.6.5-6.4,38.1-73.9,43.8-79.9a19.8,19.8,0,0,1,13,5c-9.5,22.9-4.7,24.9,5.6,39.3q-1.5,17.3-13.5,7.9c6.1,6.6,14.5,28.5,19.2,33.7-9.7.9-10.1-2.9-19.5-7.8-25.4,34.6,25.4,38.9,46.7,23.3q1.7-5-4-8.7c-6.9,2.9-12.1,17.5-21.1,7.8,1,1.6,31.7-39.2,33.9-42.6l10.8,4.4c-7.5,9.5-13,33.2,2.3,38.5C2777.6,847.2,2774.9,836.6,2779.4,838.1Z" transform="translate(9 -457)" fill-rule="evenodd" fill="url(#linear-gradient)"/>
    <path d="M12.1,897.9c.7,2.4.3,1.9,2.8,2.6C14.2,898.1,14.7,898.5,12.1,897.9Zm61.5-6.1c5.9,3.1,11.4,2.5,0,0Zm-66.2,0Zm1346.2-2.6c.1,3.9-3.6,9.8,2.8,11.3,2-3.2,4.7-9.5-2.8-11.3C1353.8,892.8,1356.3,889.8,1353.7,889.2ZM55.9,886.6c9.4,13.2,4.9,1.4,0,0Zm1331.3,11.3c5-.9,7.9-8.1,9.3-12.1-3.5,1.6-8.6,6.9-9.3,12.1C1389.8,897.4,1387.9,893,1387.3,897.9Zm-43.8-16.5c9.2-4-36.2,8.2-7.5,9.5C1333.8,884.9,1335.1,880.6,1343.4,881.4ZM148.2,874.5c4.3,3,3.4,1,0,0Zm-83.9,0c-2.3,5.7,1.1,13.2,0,0Zm1282.8.9Zm-1295-3.5c7,7.6,5.8.2,0,0Zm72.7,8.7c.2,2.7,3.2.2,3.7-6.9C118,869.1,124.2,874.6,124.9,880.5Zm-57.8-6.9c-5.9-6.7-4-.9,0,0Zm2.8-7.8c1.6,2.7,7.6,2.7,0,0ZM47.5,871Zm1218.5-7.8Zm-1122.5,0q-4.2,9.2,8.4,9.5C151.3,869.5,148,863.5,143.6,863.2Zm-85.8,6.1Zm83.9-13Zm1141.1-3.5c-4.2,4.4,1.4,9.6,0,0ZM218.2,854.5c-.6,2-5.2-1.4-1.9,6.9C219.2,856.4,220.4,847.5,218.2,854.5ZM137,851c-.7,3,1,2.8,0,0Zm117.5-.9c-9.3-.1-10.5,9.2,0,0Zm1012.5-.9ZM176.2,840.6Zm1088.9-.9Zm-1.9-5.2ZM199.5,838.9c-3,5-12,2.3,1.9,6.9C199.8,841.8,198,826.1,199.5,838.9Zm88.6-6.9c2.2.7,7.8,4.3,9.3,5.2q-.4-1.3.9-.9C297.8,829.1,294.8,833.9,288.1,831.9Zm-72.7-2.6Zm-16.8-6.9c-7.1,16.2,2.4,1.3,0,0Zm1118.8-6.9Zm-12.1-1.7ZM297.4,811.1c-2.8,4.4-7.4,8.8-13.1,10.4,1.9,3,1.4,7.4,6.5,8.7C296.9,823.8,296.3,818.6,297.4,811.1Zm-93.2.9c1.8.2,8.4,3.6,12.1,1.7C219,807.5,215,811,204.2,812Zm-6.5,1.7c-11.1,10.8,1.8-5.8,0,0Zm1115-3.5Zm3.7-.9Zm-905.3,1.7c0-.7-1.6-4.9,0,0Zm-56.9-3.5c.2,2.3,7.1,5.1,0,0Zm24.2-1.7Zm43.8-.9Zm-134.2-.9Zm140.8-15.6c-1,1.5-10.7,5.3-6.5,10.4C426.8,797.8,426.2,792.5,428.9,788.5Zm-41-3.5c-3.4,3.3-.9,2.9,0,0Zm-55,.9c4.1-3.6.9-2.7,0,0Zm31.7-5.2Zm37.3,1.7c-.3-2.8-5.6-4.6,0,0Zm-8.4,1.7c-1.4-7.4-3.4-4,0,0Zm-51.3,1.7c9.9,1.2,10.1,14.9,20.5-2.6-10-6.1-4.5,1.7-10.3-5.2C350.1,779.9,345.2,785.8,342.2,785.9Zm-10.3-15.6Zm93.2-2.6Zm58.7-24.3Zm-7.5,5.2c-.3-9.4-3.1-6.1,0,0Zm8.4-24.3Zm-69,3.5c15.2-19,.8-8.9,0,0Zm102.6-11.3Zm732.8-8.7c.7,2.4.3,1.9,2.8,2.6C1253.3,708,1253.7,708.5,1251.1,707.8Zm-815.8.9c1.2,5.4,14.6,33.6,13.1,33C456,752.3,457.6,704.2,435.4,708.7Zm803.6-3.5Zm-712.3-6.1c6.5,19.5,7.7,6.2,0,0Zm-51.3,3.5c-36.3,33.1,25.4-3,0,0Zm761.7-13.9c-.8,5.6-.5,8.4-4.7,11.3C1248.1,700.6,1236.4,694.5,1237.2,688.7Zm-31.7-29.5ZM478.3,671.4c2.3-4.8,4.7-6.2,6.5-13C475.8,661.5,480.6,666.6,478.3,671.4Zm739.3-15.6c0,5.7,10.4,24.7,16.8,1.7-21.6,5.1,1.7.5-16.8-1.7C1217.6,659.9,1221.6,656.2,1217.6,655.7Zm-742.1,4.3Zm13.1-5.2Zm-50.3-4.3c-4.5,8,3.5,1,0,0C437.3,652.1,440,651.1,438.2,650.5Zm56.9-3.5Zm711.3-.9Zm-695.5,8.7c6.9-11.2.7-12.4,0,0Zm-23.3-13Zm714.1-1.7c2.1,5.3,2.6.7,0,0Zm-708.5-5.2c-.1,6.6,5.7,7.9,0,0Zm49.4-1.7Zm348.7-1.7c-2.4,10.9.1,5.7,0,0Zm295.5-1.7c.5,3.5,4.3,9.7,4.7,10.4q9.4-8.5-4.7-10.4C1187.2,632.5,1191.6,630.2,1186.8,629.7Zm-664.7-3.5Zm673.1-1.7c.8,3.1,5.7,3.7,0,0Zm-679.6-.9c-1.5,1.8.2,3.7,0,0Zm482-8.7c-2.1,7.7,2.5,5,0,0Zm-475.5-6.1Zm-3.7-5.2Zm234-2.6c-1.7,4.1,16.5,8.5,0,0Zm421.4,1.7c-.8-3.1-5.7-3.7,0,0Zm7.5-4.3c.6,2,5.9,2.9,0,0ZM983.6,595Zm-92.3.9Zm87.6-4.3c4.3,3,3.4,1,0,0Zm-140.8,0c4.1,6.4-7.3,10,5.6,11.3C846.9,595.1,840.6,595.3,838.1,591.5Zm-297.4,8.7c-6.5,4.6-4.9-11.6-5.6-8.7-8.4,13.2-3.5,12,0,20.8C540.2,609.3,539,601.4,540.7,600.2Zm612.5-12.2c.2,7.7,6.1,11.6,13.1,11.3C1162.9,596.1,1155.4,590.2,1153.2,588.1Zm-177.1-.9Zm-425.1.9c4.9-8.8-2-6.2,0,0Zm602.3-9.5c-.2,13,7.9,1.6,0,0C1153.2,581.6,1155.5,579,1153.2,578.5Zm-362.7,0Zm-85.8,4.3c-.6-6.1-26.5-4.4,0,0C704.6,580.8,702.8,582.5,704.8,582.8ZM559.4,582Zm552.8-5.2c-3.3,3.8-4.3,9.6,2.8,10.4a63.2,63.2,0,0,0,7.5-4.3c-6.6.4-4.8-2.6-10.3-6.1C1109.7,579.6,1114.5,578.2,1112.2,576.8Zm-110,9.5a18.4,18.4,0,0,0,12.1-6.1c-7-5.1-11.8-5.1-12.1,6.1C1007.6,586.1,1002.3,582.9,1002.2,586.3ZM1171,575.9c-6.6,1.6-1.6,4.8,0,0C1168.7,576.4,1170.4,577.6,1171,575.9ZM904.3,575c-.8,7.5,1.4,4.8,0,0Zm-42,0c-13.5,2.7-4.1,14.8,0,0C860.2,575.5,861.8,577.3,862.4,575ZM564,573.3c.3,3.2,5.4,4.4,0,0Zm544.5-.9ZM986.4,582c-4,1.6,8.9,6.7,9.3-4.3C984.8,566.2,992.5,580.3,986.4,582Zm41-4.3c18.6-13.2,1.8-6.8,0,0Zm-34.5-7.8c1.4,5.2,5.4,1.5,0,0C993.5,571.9,994.8,570.4,992.9,569.8Zm165-1.7Zm-400.9,0c-5.4,14.5-14.2,20.8-.9,29.5,2.6-6.4-3.4-5.8-4.7-4.3C759.8,581.9,757.5,576.5,757,568.1Zm285.3-1.7c.3,3.7,3.7,5,0,0Zm44.8-.9c3.3,4.3,3.8,1.1,0,0Zm-517.4,2.6Zm399-3.5c7.6-3-.7-2.3,0,0Zm-461.5,7.8c4.1,34.3,23.6,17.8,11.2-11.3a3.5,3.5,0,0,1-2.8.9C515.2,573.2,512.2,565.6,507.2,572.4ZM843.7,562c-9.9,0-8.7.9-9.3,6.1,14.1,8.6,9,4.7,9.3-6.1C838.8,562,843.6,565,843.7,562Zm63.4-2.6c-1.9,4.7-.1,2.8,0,0ZM859.6,562Zm279.7-6.1c-1.8,4.3.5,2,0,0Zm-200.4,0Zm-15.8,0Zm197.6,10.4q9.7,2,14.9-6.1-4.9-4.3-3.7.9c-12.8.6-16.8-5.5-24.2-7.8,1,8.6,14.3,25,13.1,13C1124,566.7,1120.8,568.4,1120.6,566.4ZM870.8,552.5c3.3,4.3,3.8,1.1,0,0Zm86.7,1.7Zm72.7,11.3c9.4-.3,18-8.6,21.4-16.5-3.1.6-21,14.8-21.4,16.5C1033.4,565.4,1031.6,560.3,1030.2,565.5ZM721.6,549Zm422.3-1.7Zm-209.8,0c-7.1.6-1.4,4.3,0,0C931.9,547.4,933.6,549,934.2,547.3Zm-33.6,0Zm-197.6,13c0-4.6-3-9.3-4.7-13-1.2.7-7.2,8.3-7.5,8.7-2.7-.8,3.2-6.1.9-7.8-7.1,11.4,1.7,13.9,11.2,12.2C702.9,556.6,701.1,560.6,702.9,560.3Zm-16.8-13.9c-1.7,4.1.3,3.7,0,0Zm-20.5,0Zm-7.5,0c-1.6,6.7,3.1,10.5,0,0Zm189.3,5.2c-.2,13.9,16.5-4.4,0,0C847.4,555.7,850.9,550.7,847.5,551.6Zm39.2-7.8c-12.2,2.1-2.8,9,0,0C883.7,544.3,885.5,547.3,886.6,543.8Zm-55,14.8.9-14.8a5.4,5.4,0,0,1-1.9.9C828.3,550.5,831.5,557.7,831.6,558.5Zm320.7-15.6Zm-115.6-1.7q-11.6,12.2,0,13.9C1040,550.1,1036.7,543.2,1036.7,541.2Zm-128.7-.9Zm-157.6-1.7c-8.7,4.8-.6,2.3,0,0Zm-164.1,4.3c3.6-9.1-.1-13.5,0,0Zm567.8-9.5c3.7,1.5,8.4,7.4,14.9,6.9C1163,531.2,1163.5,535.9,1154.2,533.4Zm-93.2,0c1.2,7.9-3,13.1,1.9,20.8C1063.6,554.3,1066.2,531.9,1060.9,533.4Zm-175.3-2.6c-3.1,4.8-4.5,8.1-10.3,13C882.8,541.1,883.1,534.8,885.7,530.8Zm-208.8.9Zm-26.1-7.8Zm501.6-.9Zm-358-.9c.7,1.7,3,11.2,0,0Zm-136.1,5.2c11.4-10.6-.8-2.4,0,0Zm249.9-6.9Zm159.4-1.7c-.3,15.6,2.5,7.4,0,0Zm-118.4.9Zm16.8-.9ZM914.6,457c7.2,9.4,8,18.7,20.5,29.5-6.1,14.3-5.1-1.4-9.3,8.7q7-.4,9.3,9.5c11.9-3.2,23.9-37.5,26.1-47.7,2.6,9.6,18.1,90.3,11.2,90.3,6.4,20.1,19.2,13.9,28,8.7,3.6,8.4,1.3,20,17.7,20.8,4.8-8.4-4.2-9.7-8.4-14.8,11.5-4,24.6-17.8,0-15.6,2.7-6.3,4.7-10.1,8.4-19.1,2.2,4.5,4.3,11.7,8.4,18.2,9.8-2.6-.7-16.7-.9-19.1,4.9-1.7,8.7,8.8,9.3,7.8q-1.1-9.5,6.5-9.5c2.9,5.1-3.4,22.7,4.7,23.4,11.2-19,9.9-19.1,5.6-33.8,11.9-11.1,2.7-7.9,7.5-24.3q2.2.4,1.9-2.6c-9.1-2.4,32.8,46.9,32.6,46-14.1-3.6-14.7-.2-24.2-.9.3,13.7,29.3,44.2,35.4,14.8-10.3.9-9.2,0-17.7-5.2q5.1-2.1.9-5.2,1.4.5.9-.9c12.8,5.2,47.7,10.2,48.5-8.7-9.4,1.6-6.1,10-5.6-2.6-8.5,2-7.4,3.4-15.8,4.3-2.7-6.7,4-3.6-2.8-8.7-6,8.8,54.1-40.7,43.8-38.2q-.4,1.3.9.9c-8.5,35.3,19,33,12.1,60.8,9.8,4.8,20-.1,21.4,14.8-4.5.1-39.4,3.4-38.2-.9,18.7,16.4,24.5,23.1,48.5,33.8-3.5,1.8-.8,5.4-7.5,1.7,2.7,8.6-4.3,10.2-14,13,10.8-.1,10.3,5.1,19.6,7.8,2.4-10.5,10.5-12.9,11.2-26-.6,1.9-5.3.6-5.6-.9,5.4-7.9,12.3-13.8,17.7-21.7-4.6,23.3.4,26.3,1.9,51.2-3.7,1.3-11.9-9.3-14-12.1-.3,1.4-1.3,34.6-6.5,30.4,38.5,31,25.3-1.4,62.5-3.5,3.5,6.2-12.3,39.2-9.3,55.5q-1.4-.5-.9.9c-5.5-1.5-6.5-7.3-9.3-9.5-9.1,22.5,25.3,38,22.4,52.9-7.1,3.5-10.7-3.8-16.8-5.2-4.5,10.2,2.4,12.6-13.1,8.7,2.9,12.6-4.6-1.2-7.5-3.5-2.7,10-4.6,24.9-5.6,33.8,16.6-.6-8.8-1,9.3,3.5,4-3.5,12.2-13.8,19.6-14.8,5.4,17.1,8.4,32.3,6.5,46,7.2-5.1,10.5-5.9,15.8-13q-.4,1.3.9.9c-.5,11.5,2.5,13.3,4.7,22.6-1.3-.5-5.5-6.5-6.5-5.2s9.4,19.4,9.3,19.1q-4.8-9.8-13.1-9.5.4,1.3-.9.9c-2.7,4.9,12.6,17.4,14,22.6-21.8.1-3.2,4.9-11.2,11.3,11.2,5.5,12.1-7.3,16.8-11.3,3.1,3.5,15.2,9.9,16.8,14.8,3.6-9.2,6.5-17.4,6.5-26-10.7-1-26.1-4.5-27-13.9,17.9-9.6,20.2-25,45.7-14.8-3.9,8.8,12.4,20.2,11.2,21.7s-3,1.8-2.8,3.5c-24.6,12.5-23-6.9-28,38.2-1.8,1.5,31.4-2.6,11.2.9,3-6.3-1.5-7.7-.9-8.7s14-3.8,8.4-2.6c.2,4.2,1.9,17.8-6.5,20.8a2.9,2.9,0,0,1,.9,2.6c10.6-2.9,9.9-4,15.8-9.5,11.9,2.9,6.1,12.9,8.4,20-6.1,1.4,29.9-9.3,13.1-3.5q.4-5.4-8.4-5.2c5.9-2.8,16-11,20.5-12.1-3.8,14.1,1.3,12.8-3.7,23.4,10.2,5.3,13.5-1.6,22.4-11.3.1,0-10.1,5-10.3,4.3s0-1.2-.9-.9c1.5-7.1,9.5-7.9,11.2-14.8-.1,7.3-7.4,0-7.5,0,3.8-1.9,5.7-4.9,10.3-6.1,1.5,14.1,10.1,30,29.8,22.6-2.1-2.6-8.6-.4-10.3-6.1,2.6-3.6,8.1,1.8,10.3-5.2-.1-6.2-5.3-5.6,12.1-2.6.9,8.5-3.8,3.3,2.8,15.6-1.1,2.8-6.6-.6-7.5,5.2,11.5,5.6,1.4,2.5,0,10.4-8.1-2.9,37.8-5.2,28.4-5.2,2.3,0-12.5,20.9-2.3,23.4,8.4-10.7,12.2-12.1,14.9-13.9-.5-6.2,2.9-21.1,2.8-17.4,3.6-12.6,8.2-10.6,9.3-22.6,16.4,76.3,2.8,175.5,2.8,256.9H193.8c-38.1,0-141,18.7-176,0-30.6-16.3-39.9-256.5-2-265.5-2.2,14.6-7.2,10.1-9.3,13.9-.2,7.4,2.3,7.5,2.8,20.8,4.6-4.4,4.9-10.3,8.4-16.5q6.1,1,8.4,7.8c-.3-9-6.6-8.4.9-20.8-1-1.8-6.3.7-7.5.9l4.7-15.6c-1.2-2.1-3.6,5.5-5.6,1.7,1.4-8.4.2-9.5-.9-18.2,4.6,3.8,15.9,14.7,16.8,14.8,4-7-1.1-11.3-1.9-19.1,4.4,7.8,14.3,16.6,18.6,22.6-1.2,1.7-6.5,1.8-6.5,2.6s17.3,12.4,14.9,12.2c2.5-3.7,5-10.8,10.3-12.2,7.6,10,7.3,9.6,19.6,24.3-4.3,1.6-5.4-1.3-11.2-1.7.7,11.2,21.2,36.5,35.4,13-4-2.4-9.3,5.3-11.2,3.5.7-4,9.2-36.4,9.3-36.5-.3,23.3,3.2,5.6,9.3,15.6a1.5,1.5,0,0,1,1.9-.9c-.1-1.1-2.3-30.1,1.9-31.2.8,3.1,4.5,12.6,4.7,13s1.2,0,.9.9c-.2,3.4,11.5-7.3,8.4-7.8-6.3-14.8,11.1-23,24.2-41.7a1.5,1.5,0,0,0,1.9.9q-7.7,12.8,5.6,22.6-6.5-3.8-5.6.9c4.5-.9,14.7,9.2,18.6-4.3-9.2-1.4,0-8.6,3.7-18.2,1.7,1.1,3,7.6,2.8,7.8,18.1-4.8,26.8-8.8,44.8,17.4-.2,2.2-6-2-5.6,3.5,2.7,3.9,11.5,5,14,6.9-7.6,12.6-1.5,2-8.4,2.6a2.9,2.9,0,0,1-.9,2.6c7.9,3.9,6.4,2.9,12.1,8.7q-.9-2.2.9-1.7s6.3-13.2,6.5-13.9c-6.1-3.6-5.4,3.5-9.3-.9q.4-1.3-.9-.9c10.2-15.1,1.1-39.1,10.3-50.3,1.7,1,18,24.9,19.6,26.9-.2,7-7.6-2.6-7.5,4.3,2.3,3.9,13,19.4,14.9,21.7a3.5,3.5,0,0,1,2.8-.9c.1-11.5,5.5-16.7,5.6-26.9-3.3-2-7.9,1.5-12.1,1.7,5.3-24.3,9.5-9.1-6.5-30.4,22.4,1,28.3,16.5,42.9,24.3.3-6.2-3.1-.8-4.7-13,15.2-4.7,9.3,0,9.3-7.8.9-3.2,6.6-5.2,7.5-6.1q-1.4.5-.9-.9a5.6,5.6,0,0,0-5.6,1.7q.4-1.3-.9-.9c2.2-4.9,7.9-13.2,12.1-20a3.5,3.5,0,0,0,2.8-.9c1.8,14.6,20.1,40.2,28.9,7.8-13.3,1.7-5.9,5.9-9.3,1.7.2-1.4,8.4-4.6,9.3-6.9-6.5.3-5.3-13.8-7.5-21.7a3.6,3.6,0,0,0,1.9-1.7c25.3,15.4.7,25.9,30.8,33.8.9,3.1-6.2,6.5-7.5,6.9,9.7,16.6,16.9-23.9,18.6-26,1.4,17.2,11.4,27,9.3,41.7,6.4-12.4,8.2-20,10.3-35.6-5.4,1.3-6.7,3.8-12.1,4.3-2.1-5.3,11.5-27.3,12.1-28.6q-2.3,0-1.9-1.7c-3.1,4-5.1,9.4-7.5,13q.4-1.3-.9-.9c5.4-13.6,6.8-26,12.1-39.9-8.1,11.8-9.2,7.5-12.1,9.5.7,10-25.4,56.8-31.7,37.3,12.7-19.8,46.3-57,21.4-61.6-3.5-19.6-6.4-14.6-11.2-30.4,10.5,1.1,25.1,3.4,35.4,4.3,7.7,9.8-.7,18.4,20.5,16.5,2.5,3.6-11.8,10.9-13.1,14.8,11.4,5.2,19.8,14.3,28.9,16.5-3.5-9,19.1-21.7,21.4-29.5-.5-1.1-11.2-30.4-19.6-8.7-12.4-3-21.6-3.9-19.6-13-4,1.4,6.7,2.6-7.5,6.1q.4-1.3-.9-.9-.7-5.1,3.7-8.7c-6-.1-2.9,8.4-10.3,2.6,22.3-27.8,62.5-31.9,65.3-62.5-8.4,8.3-5.2,5.2-12.1,12.1-11.6.3-9.4-2.8-21.4,0-4.4-7.5,50.2-78.8,57.8-93.7,4.5,2.2-30.5,21.6-27,12.2,15.4-9,30.3-48.4,25.2-48.6q-.4,1.8,1.9.9c4.3,27.5,17.4,38,32.6,59q-2.3-.9-1.9.9c-9.8-8.6-10.3-2.8-9.3-2.6a23.9,23.9,0,0,0-10.3-8.7c-1.9,15.1,7.4,12.1,8.4,27.8-3.7,2.2-3.8-4.3-7.5-5.2,15,71.5,64.8-55.7,62.5-55.5q8.1,7.2-.9,18.2c2,1.3,7.6-3,10.3,1.7-.2-1-4.7,2.2-4.7,4.3,1.8,1.6,7.9.2,10.3.9,1.2,7-6.5,1.7-6.5,5.2.5,1.6,14.3,3.1,17.7,3.5,3.4-5.6,13.4-24.9,14-44.3-.3-.8,3.8-2.5,4.7-2.6,25.2,43.1,5.1,33.2,33.6-1.7,4.4,17.5,10.1,25.2,25.2,38.2-7.5,1.5-9.8.3-17.7-.9,13.6,18,10,15.5,33.6,23.4-.3,4.3-10.2,11.6.9,21.7q1.2-4.2,4.7-3.5-.3-2.5,2.8-3.5c-.1,1.9-9.4-5.6-9.3-5.2,9.8-4.1,24.5-11.2,24.2-22.6-20.5,5.2,5.3-25.8,9.3-26-1,17.5-13.3,41.4,16.8,31.2-1.5-1.4-10.1-2.2-8.4-5.2,12.5-8.2,18.2-9.4,27-18.2,1.2.3-3.4,25.5-4.7,29.5-4.2,3.1-3.4-8.4-7.5-6.9-1.7,5.5,3.8,14.6,2.8,17.4q-1.4-.5-.9.9c-6.3-5.7-5.6-5.8-9.3-10.4-9.9,15.7,6.9,8.4,8.4,19.1-7.3,2.6-8.7-1.2-14-2.6,5.7,3.2,7.6,7.8,15.8,10.4-.8-3,4.8-23.2,7.5-23.4.7,6.1,1.9,25.6,5.6,26,4.2-14.3,7.2-22.5,14-38.2q-5.9,2.3-5.6-3.5c-2.8.5-8.3,4.7-11.2,6.1-1.7-3.3,10-26.2,13.1-31.2-5.6.4,1.4,4.3-11.2,4.3-2.5-6.2,3.1-29.8.9-41.7,9.5,7.7,11.2,11.4,14.9,20-.8-1.2,14,3.5,15.8,5.2-2.7,8-3.6-4.8-8.4,6.9a4,4,0,0,1,5.6,4.3c2-9.7,1.4-27,5.6-38.2,2.3,20,13.6,39.7,28.9,51.2-7.4,4.5-11.8-.8-17.7-3.5,4.6,7.3,29.6,37.3,32.6,26.9,1-11.3,3.5-7,11.2-16.5-.1,1.3-7.4,1.8-8.4-1.7C893,504.2,909.7,500.1,914.6,457Z" transform="translate(9 -457)" fill-rule="evenodd" fill="url(#linear-gradient-2)"/>
    <path d="M2187.2,901.1c.5,2.4.2,1.9,2.2,2.6C2188.9,901.3,2189.2,901.8,2187.2,901.1Zm48.8-6c4.7,3,9,2.5,0,0Zm-52.5,0Zm1067.1-2.6c.1,3.8-2.9,9.6,2.2,11.1,1.6-3.2,3.7-9.3-2.2-11.1C3250.8,896.1,3252.7,893.2,3250.6,892.6ZM2221.9,890c7.5,13,3.9,1.4,0,0Zm1055.3,11.1c3.9-.8,6.2-8,7.4-12-2.7,1.6-6.8,6.8-7.4,12C3279.3,900.7,3277.8,896.3,3277.2,901.1Zm-34.7-16.3c7.3-4-28.7,8.1-5.9,9.4C3234.8,888.3,3235.9,884.1,3242.5,884.9ZM2295.1,878c3.4,3,2.7.9,0,0Zm-66.5,0c-1.8,5.7.9,13,0,0Zm1016.9.9ZM2219,875.4c5.5,7.5,4.6.2,0,0Zm57.6,8.6c.2,2.7,2.5.2,3-6.8C2271.1,872.8,2276.1,878.1,2276.6,884Zm-45.8-6.8c-4.6-6.6-3.1-.9,0,0Zm2.2-7.7c1.3,2.7,6,2.6,0,0Zm-17.7,5.1Zm965.9-7.7Zm-889.8,0q-3.4,9,6.7,9.4C2297.5,873.1,2294.9,867.2,2291.4,866.9Zm-68,6Zm66.5-12.8Zm904.6-3.4c-3.3,4.4,1.1,9.5,0,0Zm-844,1.7c-.4,2-4.1-1.4-1.5,6.8C2351.4,860.2,2352.3,851.5,2350.5,858.3Zm-64.3-3.4c-.6,3,.8,2.8,0,0Zm93.1-.9c-7.3-.1-8.3,9.1,0,0Zm802.6-.9Zm-864.7-8.6Zm863.2-.9Zm-1.5-5.1Zm-843.2,4.3c-2.4,4.9-9.5,2.2,1.5,6.8C2336,845.9,2334.5,830.4,2335.7,842.9Zm70.2-6.8c1.8.7,6.2,4.3,7.4,5.1q-.3-1.3.7-.9C2413.6,833.3,2411.3,838.1,2405.9,836.1Zm-57.6-2.6Zm-13.3-6.8c-5.6,16,1.9,1.3,0,0Zm886.8-6.8Zm-9.6-1.7Zm-798.9-2.6c-2.2,4.3-5.9,8.6-10.3,10.3,1.5,2.9,1.1,7.3,5.2,8.6C2413,828.1,2412.5,822.9,2413.3,815.5Zm-73.9.9c1.4.2,6.7,3.5,9.6,1.7C2351.2,812,2348,815.4,2339.4,816.4Zm-5.2,1.7c-8.8,10.7,1.4-5.7,0,0Zm883.9-3.4Zm3-.9Zm-717.6,1.7c0-.7-1.3-4.9,0,0Zm-45.1-3.4c.2,2.2,5.6,5.1,0,0Zm19.2-1.7Zm34.7-.9Zm-106.4-.9Zm111.6-15.4c-.8,1.5-8.4,5.3-5.2,10.3C2515.9,802.4,2515.4,797.2,2517.5,793.3Zm-32.5-3.4c-2.7,3.3-.7,2.8,0,0Zm-43.6.9c3.3-3.5.7-2.6,0,0Zm25.1-5.1Zm29.6,1.7c-.2-2.8-4.5-4.5,0,0Zm-6.7,1.7c-1.1-7.3-2.7-4,0,0Zm-40.6,1.7c7.8,1.2,8,14.7,16.3-2.6-7.9-6-3.6,1.7-8.1-5.1C2455.1,784.8,2451.2,790.6,2448.8,790.7Zm-8.1-15.4Zm73.9-2.6Zm46.6-24Zm-5.9,5.1c-.2-9.3-2.5-6.1,0,0Zm6.7-24Zm-54.7,3.4c12-18.7.6-8.7,0,0Zm81.3-11.1Zm580.9-8.6c.5,2.4.2,1.9,2.2,2.6C3171,713.9,3171.4,714.4,3169.4,713.7Zm-646.6.9c1,5.3,11.5,33.1,10.3,32.5C2539.1,757.6,2540.3,710.1,2522.7,714.6Zm637-3.4Zm-564.6-6c5.2,19.3,6.1,6.1,0,0Zm-40.6,3.4c-28.7,32.6,20.2-2.9,0,0Zm603.8-13.7c-.6,5.5-.4,8.3-3.7,11.1C3166.9,706.6,3157.6,700.6,3158.3,694.9Zm-25.1-29.1Zm-576.4,12c1.8-4.7,3.7-6.1,5.2-12.8C2554.8,668,2558.5,673.1,2556.7,677.8Zm586-15.4c0,5.6,8.2,24.3,13.3,1.7-17.1,5,1.3.5-13.3-1.7C3142.8,666.5,3145.9,662.9,3142.7,662.4Zm-588.3,4.3Zm10.3-5.1Zm-39.9-4.3c-3.6,7.9,2.8,1,0,0C2524.2,658.8,2526.4,657.8,2524.9,657.2Zm45.1-3.4Zm563.9-.9Zm-551.3,8.6c5.5-11.1.6-12.2,0,0Zm-18.5-12.8Zm566.1-1.7c1.7,5.3,2,.7,0,0Zm-561.7-5.1c-.1,6.5,4.5,7.8,0,0Zm39.2-1.7Zm276.4-1.7c-1.9,10.7.1,5.6,0,0Zm234.3-1.7c.4,3.5,3.4,9.6,3.7,10.3q7.4-8.3-3.7-10.3C3118.7,639.5,3122.2,637.2,3118.4,636.7Zm-526.9-3.4Zm533.6-1.7c.7,3.1,4.5,3.6,0,0Zm-538.7-.9c-1.2,1.8.2,3.6,0,0Zm382.1-8.6c-1.7,7.6,2,4.9,0,0Zm-376.9-6Zm-3-5.1Zm185.5-2.6c-1.3,4,13.1,8.4,0,0Zm334,1.7c-.7-3.1-4.5-3.6,0,0Zm5.9-4.3c.4,1.9,4.7,2.9,0,0Zm-156.7-3.4Zm-73.2.9Zm69.5-4.3c3.4,3,2.7.9,0,0Zm-111.6,0c3.3,6.3-5.8,9.9,4.4,11.1C2848.9,602.6,2843.9,602.8,2842,599.1Zm-235.7,8.6c-5.1,4.6-3.9-11.4-4.4-8.6-6.7,13-2.8,11.8,0,20.5C2605.8,616.6,2604.8,608.9,2606.2,607.6Zm485.5-12c.2,7.6,4.8,11.4,10.3,11.1C3099.4,603.6,3093.5,597.8,3091.8,595.6Zm-140.4-.9Zm-337,.9c3.9-8.7-1.6-6.1,0,0Zm477.4-9.4c-.2,12.8,6.3,1.6,0,0C3091.7,589.3,3093.5,586.7,3091.8,586.2Zm-287.5,0Zm-68,4.3c-.4-6-21-4.3,0,0C2736.1,588.5,2734.7,590.2,2736.3,590.5Zm-115.3-.9Zm438.2-5.1c-2.6,3.7-3.4,9.4,2.2,10.3a48.9,48.9,0,0,0,5.9-4.3c-5.2.4-3.8-2.6-8.1-6C3057.3,587.3,3061.1,586,3059.2,584.5Zm-87.2,9.4c3.7-.2,7.8-3.2,9.6-6-5.6-5-9.3-5-9.6,6C2976.3,593.7,2972.1,590.6,2972,593.9Zm133.8-10.3c-5.2,1.5-1.2,4.8,0,0C3104,584.2,3105.4,585.4,3105.8,583.7Zm-211.4-.9c-.6,7.4,1.1,4.8,0,0Zm-33.3,0c-10.7,2.7-3.2,14.6,0,0C2859.5,583.2,2860.7,585,2861.2,582.8Zm-236.5-1.7c.2,3.2,4.3,4.4,0,0Zm431.6-.9Zm-96.8,9.4c-3.2,1.6,7.1,6.6,7.4-4.3C2958.2,574.1,2964.3,587.9,2959.5,589.6Zm32.5-4.3c14.7-13,1.5-6.7,0,0Zm-27.3-7.7c1.1,5.1,4.2,1.5,0,0C2965.1,579.7,2966.1,578.2,2964.6,577.7Zm130.8-1.7Zm-317.8,0c-4.3,14.3-11.2,20.5-.7,29.1,2.1-6.3-2.7-5.7-3.7-4.3C2779.8,589.6,2778.1,584.2,2777.7,576Zm226.1-1.7c.3,3.7,2.9,4.9,0,0Zm35.5-.9c2.6,4.3,3,1.1,0,0ZM2629.1,576Zm316.3-3.4c6-2.9-.6-2.2,0,0Zm-365.8,7.7c3.3,33.8,18.7,17.5,8.9-11.1a2.4,2.4,0,0,1-2.2.9C2586,581,2583.6,573.5,2579.6,580.2ZM2846.4,570c-7.9,0-6.9.9-7.4,6,11.2,8.5,7.1,4.6,7.4-6C2842.5,570,2846.3,572.9,2846.4,570Zm50.3-2.6c-1.5,4.7-.1,2.8,0,0ZM2859,570Zm221.7-6c-1.4,4.3.4,2,0,0Zm-158.9,0Zm-12.6,0Zm156.7,10.3q7.7,1.9,11.8-6-3.9-4.3-3,.9c-10.2.5-13.3-5.4-19.2-7.7.8,8.5,11.4,24.6,10.3,12.8C3068.6,574.6,3066.1,576.3,3065.9,574.2Zm-198.1-13.7c2.6,4.3,3,1.1,0,0Zm68.7,1.7Zm57.6,11.1c7.5-.3,14.2-8.5,17-16.3-2.5.6-16.6,14.6-17,16.3C2996.8,573.3,2995.3,568.3,2994.2,573.4Zm-244.6-16.3Zm334.8-1.7Zm-166.3,0c-5.6.6-1.1,4.2,0,0C2916.3,555.6,2917.6,557.1,2918.1,555.4Zm-26.6,0Zm-156.7,12.8c0-4.6-2.4-9.2-3.7-12.8-.9.7-5.7,8.2-5.9,8.6-2.2-.8,2.6-6,.7-7.7-5.6,11.2,1.4,13.7,8.9,12C2734.8,564.6,2733.3,568.6,2734.8,568.3Zm-13.3-13.7c-1.3,4.1.2,3.7,0,0Zm-16.3,0Zm-5.9,0c-1.3,6.6,2.5,10.3,0,0Zm150,5.1c-.2,13.7,13.1-4.4,0,0C2849.3,563.8,2852.1,558.8,2849.4,559.7Zm31-7.7c-9.7,2.1-2.2,8.9,0,0C2878.1,552.5,2879.5,555.5,2880.4,552Zm-43.6,14.5.7-14.5c-.1.1-1.2.9-1.5.9C2834.2,558.7,2836.7,565.7,2836.8,566.5ZM3091,551.1Zm-91.6-1.7q-9.2,12,0,13.7C3002,558.3,2999.3,551.5,2999.4,549.4Zm-102-.9Zm-124.9-1.7c-6.9,4.8-.5,2.3,0,0Zm-130.1,4.3c2.8-9-.1-13.3,0,0Zm450.1-9.4c2.9,1.5,6.7,7.3,11.8,6.8C3099.5,539.6,3099.9,544.2,3092.5,541.7Zm-73.9,0c.9,7.8-2.4,12.9,1.5,20.5C3020.7,562.4,3022.8,540.3,3018.6,541.7Zm-138.9-2.6c-2.4,4.7-3.5,8-8.1,12.8C2877.4,549.3,2877.6,543.1,2879.7,539.2Zm-165.5.9Zm-20.7-7.7Zm397.6-.9Zm-283.8-.9c.5,1.7,2.4,11,0,0Zm-107.9,5.1c9-10.4-.6-2.4,0,0Zm198.1-6.8Zm126.4-1.7c-.3,15.4,2,7.3,0,0Zm-93.9.9Zm13.3-.9Zm-40.6-60.8c5.7,9.2,6.3,18.4,16.3,29.1-4.9,14.2-4-1.4-7.4,8.6q5.5-.3,7.4,9.4c9.5-3.1,18.9-37,20.7-47.1,2,9.5,14.3,89,8.9,89,5.1,19.8,15.2,13.7,22.2,8.6,2.8,8.3,1,19.7,14,20.5,3.8-8.3-3.3-9.6-6.7-14.5,9.1-4,19.5-17.5,0-15.4,2.1-6.2,3.7-9.9,6.7-18.8,1.8,4.5,3.4,11.5,6.7,18,7.8-2.6-.6-16.5-.7-18.8,3.8-1.7,6.9,8.6,7.4,7.7q-.8-9.3,5.2-9.4c2.3,5-2.7,22.4,3.7,23.1,8.9-18.7,7.9-18.9,4.4-33.4,9.5-10.9,2.1-7.8,5.9-24q1.7.4,1.5-2.6c-7.2-2.4,26,46.3,25.9,45.4-11.2-3.6-11.6-.2-19.2-.9.2,13.5,23.3,43.6,28.1,14.5-8.2.9-7.3,0-14-5.1q4-2.1.7-5.1,1.1.5.7-.9c10.2,5.1,37.8,10.1,38.4-8.6-7.5,1.6-4.8,9.8-4.4-2.6-6.7,2-5.9,3.4-12.6,4.3-2.1-6.6,3.2-3.6-2.2-8.6-4.8,8.7,42.9-40.2,34.7-37.7q-.3,1.3.7.9c-6.8,34.8,15.1,32.5,9.6,59.9,7.8,4.7,15.8-.1,17,14.5-3.6.1-31.2,3.3-30.3-.9,14.9,16.2,19.4,22.7,38.4,33.4-2.8,1.7-.6,5.3-5.9,1.7,2.1,8.4-3.4,10-11.1,12.8,8.6-.1,8.2,5,15.5,7.7,1.9-10.4,8.4-12.7,8.9-25.7-.5,1.9-4.2.6-4.4-.9,4.3-7.8,9.8-13.6,14-21.4-3.6,23,.3,25.9,1.5,50.5-3,1.3-9.4-9.2-11.1-12-.3,1.4-1,34.1-5.2,29.9,30.5,30.5,20-1.3,49.5-3.4,2.8,6.1-9.8,38.7-7.4,54.8q-1.1-.5-.7.9c-4.3-1.4-5.2-7.2-7.4-9.4-7.2,22.2,20.1,37.5,17.7,52.2-5.6,3.4-8.5-3.8-13.3-5.1-3.6,10.1,1.9,12.4-10.3,8.6,2.3,12.4-3.6-1.2-5.9-3.4-2.1,9.8-3.6,24.5-4.4,33.4,13.2-.6-7-1,7.4,3.4,3.2-3.5,9.7-13.6,15.5-14.5,4.3,16.9,6.7,31.9,5.2,45.4,5.7-5,8.3-5.8,12.6-12.8q-.3,1.3.7.9c-.4,11.4,2,13.1,3.7,22.2-1-.5-4.4-6.5-5.2-5.1s7.5,19.1,7.4,18.8q-3.8-9.7-10.3-9.4.3,1.3-.7.9c-2.1,4.9,10,17.1,11.1,22.2-17.3.1-2.5,4.8-8.9,11.1,8.8,5.4,9.6-7.2,13.3-11.1,2.4,3.4,12,9.8,13.3,14.5,2.8-9.1,5.1-17.2,5.2-25.7-8.5-1-20.6-4.5-21.4-13.7,14.2-9.4,16-24.7,36.2-14.5-3.1,8.7,9.8,19.9,8.9,21.4a3.1,3.1,0,0,0-2.2,3.4c-19.5,12.3-18.3-6.8-22.2,37.7-1.4,1.5,24.9-2.6,8.9.9,2.4-6.2-1.2-7.6-.7-8.6s11.1-3.7,6.7-2.6c.1,4.1,1.5,17.6-5.2,20.5a3.3,3.3,0,0,1,.7,2.6c8.4-2.9,7.9-4,12.6-9.4,9.4,2.8,4.8,12.7,6.7,19.7-4.8,1.4,23.7-9.2,10.3-3.4q.3-5.3-6.7-5.1c4.7-2.8,12.7-10.9,16.3-12-3,13.9,1.1,12.6-3,23.1,8.1,5.2,10.7-1.5,17.7-11.1.1,0-8,4.9-8.1,4.3s0-1.2-.7-.9c1.2-7,7.5-7.8,8.9-14.5-.1,7.2-5.9,0-5.9,0,3-1.8,4.6-4.9,8.1-6,1.2,13.9,8,29.6,23.6,22.2-1.7-2.6-6.9-.4-8.1-6,2-3.6,6.4,1.8,8.1-5.1,0-6.1-4.2-5.5,9.6-2.6.7,8.3-3,3.3,2.2,15.4-.9,2.8-5.3-.6-5.9,5.1,9.1,5.5,1.1,2.4,0,10.3-6.5-2.8,29.9-5.1,22.5-5.1,1.8,0-9.9,20.6-1.8,23.1,6.7-10.5,9.6-11.9,11.8-13.7-.4-6.1,2.3-20.8,2.2-17.1,2.9-12.4,6.5-10.4,7.4-22.2,13,75.2,2.2,173,2.2,253.3H2331.2c-30.2,0-111.7,18.4-139.5,0-24.3-16.1-31.7-252.9-1.6-261.8-1.7,14.4-5.7,9.9-7.4,13.7-.2,7.3,1.8,7.4,2.2,20.5,3.6-4.3,3.9-10.2,6.7-16.3q4.9,1,6.7,7.7c-.3-8.8-5.2-8.3.7-20.5-.8-1.7-5,.7-5.9.9l3.7-15.4c-1-2.1-2.8,5.4-4.4,1.7,1.1-8.3.1-9.4-.7-18,3.6,3.8,12.6,14.5,13.3,14.5,3.2-6.9-.8-11.1-1.5-18.8,3.5,7.7,11.3,16.4,14.8,22.2-1,1.7-5.2,1.8-5.2,2.6s13.7,12.2,11.8,12c1.9-3.7,4-10.6,8.1-12,6,9.8,5.8,9.5,15.5,24-3.4,1.6-4.3-1.3-8.9-1.7.5,11,16.8,36,28.1,12.8-3.2-2.4-7.4,5.2-8.9,3.4.6-3.9,7.3-35.9,7.4-35.9-.2,23,2.5,5.5,7.4,15.4q.5-1.2,1.5-.9c-.1-1.1-1.8-29.6,1.5-30.8.6,3,3.6,12.5,3.7,12.8s1,0,.7.9c-.2,3.3,9.1-7.2,6.7-7.7-5-14.6,8.8-22.7,19.2-41.1q.5,1.2,1.5.9-6.1,12.6,4.4,22.2-5.1-3.8-4.4.9c3.5-.9,11.7,9.1,14.8-4.3-7.3-1.4,0-8.5,3-18,1.4,1,2.4,7.5,2.2,7.7,14.3-4.7,21.2-8.7,35.5,17.1-.2,2.2-4.8-1.9-4.4,3.4,2.2,3.8,9.1,4.9,11.1,6.8-6,12.4-1.2,2-6.7,2.6a3.3,3.3,0,0,1-.7,2.6c6.3,3.8,5.1,2.8,9.6,8.6q-.7-2.2.7-1.7c0-.1,5-13,5.2-13.7-4.9-3.6-4.3,3.4-7.4-.9q.3-1.3-.7-.9c8.1-14.9.9-38.6,8.1-49.6,1.3,1,14.3,24.5,15.5,26.5-.1,6.9-6-2.6-5.9,4.3,1.8,3.8,10.3,19.1,11.8,21.4a2.4,2.4,0,0,1,2.2-.9c.1-11.3,4.4-16.5,4.4-26.5-2.7-2-6.2,1.5-9.6,1.7,4.2-24,7.5-9-5.2-29.9,17.8,1,22.5,16.3,34,24a3.3,3.3,0,0,1,.7-2.6q-5.7-.9-4.4-10.3c12-4.6,7.4,0,7.4-7.7.7-3.2,5.2-5.2,5.9-6s-1,0-.7-.9a3.9,3.9,0,0,0-4.4,1.7q.3-1.3-.7-.9c1.7-4.8,6.2-13,9.6-19.7a2.4,2.4,0,0,0,2.2-.9c1.4,14.4,15.9,39.6,22.9,7.7-10.5,1.7-4.7,5.8-7.4,1.7.2-1.4,6.6-4.5,7.4-6.8-5.1.3-4.2-13.6-5.9-21.4a3.2,3.2,0,0,0,1.5-1.7c20.1,15.2.5,25.6,24.4,33.4.7,3.1-4.9,6.4-5.9,6.8,7.7,16.4,13.4-23.6,14.8-25.7,1.1,17,9,26.6,7.4,41.1,5.1-12.2,6.5-19.7,8.1-35.1-4.3,1.3-5.3,3.7-9.6,4.3-1.7-5.2,9.1-27,9.6-28.2q-1.8,0-1.5-1.7c-2.5,3.9-4.1,9.3-5.9,12.8q.3-1.3-.7-.9c4.3-13.5,5.4-25.6,9.6-39.4-6.4,11.6-7.3,7.4-9.6,9.4.6,9.9-20.1,56-25.1,36.8,10-19.5,36.7-56.2,17-60.8-2.7-19.3-5.1-14.4-8.9-29.9,8.3,1.1,19.9,3.3,28.1,4.3,6.1,9.7-.6,18.2,16.3,16.3,2,3.5-9.4,10.7-10.3,14.5,9,5.1,15.7,14.1,22.9,16.3-2.8-8.9,15.1-21.4,17-29.1-.4-1.1-8.9-30-15.5-8.6-9.8-2.9-17.1-3.8-15.5-12.8-3.2,1.4,5.3,2.6-5.9,6q.3-1.3-.7-.9a10.1,10.1,0,0,1,3-8.6c-4.8-.1-2.3,8.3-8.1,2.6,17.7-27.4,49.6-31.4,51.7-61.6-6.7,8.2-4.1,5.2-9.6,12-9.2.3-7.5-2.8-17,0-3.5-7.4,39.8-77.7,45.8-92.4,3.6,2.2-24.2,21.3-21.4,12,12.2-8.8,24-47.8,20-47.9q-.3,1.8,1.5.9c3.4,27.1,13.8,37.5,25.9,58.2q-1.8-.9-1.5.9c-7.8-8.5-8.1-2.8-7.4-2.6a20.7,20.7,0,0,0-8.1-8.6c-1.5,14.9,5.9,11.9,6.7,27.4-2.9,2.2-3-4.2-5.9-5.1,11.9,70.5,51.4-54.9,49.5-54.8q6.4,7.1-.7,18c1.6,1.3,6.1-3,8.1,1.7-.1-1-3.7,2.2-3.7,4.3s6.3.2,8.1.9c1,6.9-5.2,1.6-5.2,5.1.4,1.6,11.4,3,14,3.4,2.7-5.5,10.6-24.5,11.1-43.6-.3-.7,3-2.5,3.7-2.6,20,42.5,4.1,32.8,26.6-1.7,3.5,17.2,8,24.8,20,37.7-5.9,1.5-7.8.3-14-.9,10.8,17.7,7.9,15.3,26.6,23.1-.2,4.2-8,11.5.7,21.4q.9-4.1,3.7-3.4a3.1,3.1,0,0,1,2.2-3.4c-.1,1.9-7.5-5.5-7.4-5.1,7.8-4,19.4-11,19.2-22.2-16.2,5.2,4.2-25.4,7.4-25.7-.8,17.2-10.6,40.8,13.3,30.8-1.2-1.4-8-2.2-6.7-5.1,9.9-8.1,14.4-9.2,21.4-18,1,.3-2.7,25.1-3.7,29.1-3.4,3.1-2.7-8.2-5.9-6.8-1.4,5.4,3,14.4,2.2,17.1q-1.1-.5-.7.9c-5-5.7-4.4-5.7-7.4-10.3-7.9,15.5,5.5,8.3,6.7,18.8-5.7,2.5-6.9-1.1-11.1-2.6,4.5,3.2,6,7.7,12.6,10.3-.6-3,3.8-22.9,5.9-23.1.5,6,1.5,25.3,4.4,25.7a319.2,319.2,0,0,1,11.1-37.6q-4.6,2.2-4.4-3.4c-2.2.5-6.6,4.7-8.9,6-1.3-3.3,7.9-25.9,10.3-30.8-4.4.4,1.1,4.2-8.9,4.3-2-6.1,2.5-29.4.7-41.1,7.5,7.5,8.9,11.3,11.8,19.7-.7-1.2,11.1,3.4,12.6,5.1-2.2,7.9-2.8-4.7-6.7,6.8,2.2-1.1,4.8.9,4.4,4.3,1.6-9.5,1.1-26.6,4.4-37.7,1.8,19.7,10.8,39.2,22.9,50.5-5.9,4.4-9.3-.8-14-3.4,3.6,7.2,23.5,36.8,25.9,26.5.8-11.1,2.8-6.9,8.9-16.3-.1,1.3-5.9,1.7-6.7-1.7C2885.4,513,2898.7,508.9,2902.6,466.4Z" transform="translate(9 -457)" fill-rule="evenodd" fill="url(#linear-gradient-3)"/>
    <path d="M1656,687.1c20,15.8,19.3-22.3,37.2-40.5,3.5,3.2,7.8,139.2,27.7,116l.9-10.1c6.1,11.4,8.4,12.4,19,21.2q3.5-9.3-6-12.5c5.1-7.6,9.9,1,13-16.1,1.1,1.6-22.4-37.4-3.5-23.9a27.1,27.1,0,0,0,4.3,19.3c7.4,3.9-.9-20.3-.9-20.2,1.8.8,22.4,3.6,14.7-1.8q.7,12,.9,23.9c4.9,12.1,17.3-63.5,17.3-63.5q5.2,30.5,30.3,48.8a28.5,28.5,0,0,1-22.5-.9c8.1,9.3,16.3,21.7,25.9,29.5l6.9-13.8c-5.8-2.9-10.2.6-14.7-2.8v-9.2c-5.1,3.5,89.7-13.1,22.5-16.6,22.3-4.5,35.3-19.8,40.6-40.5-4.9,35.4,15.4,60.4,32,81-.4,3.4-33.3-.4-35.4-.9,18.3,14.4,25.6,19.2,45,35.9-7.9,6.7-6.3,9.9-19.9,15.6l18.2,8.3c.9-6.2,13.5-55.5,24.2-50.6-8.1-3.7-3.8,47.9-.9,53.4-3.2-3-9.9-8.2-13-12.9-14.6,41.5,26.4,60.9,51.9,28.5-6.2,20.1-14.6,45.8-18.2,49.7a260.9,260.9,0,0,0,20.8,56.1c-2.4,6-30.5,2.5-34.6,0-.8,3-6.6,44.4,3.5,39.6a52.2,52.2,0,0,1,18.2-15.6c16,1.7,3.7,51.5,11.2,47.9a20.7,20.7,0,0,1,10.4-12q1.1,12,1.7,23.9l-.9-5.5c-.3,2.4,4,13.1,6.1,20.3l-11.2-10.1c1,.8,9.4,21.6,11.2,24.9-9.3-6.7-13.3,5.8-10.4,12s16.5-10.5,18.2-12c-4.5-3.4,15.6,21.2,13,15.6,1.9-5,2.3-25.2,6.1-27.6-39.8-9.7,3.2-58.1,27.7-7.4,0-14.1-27.4,37.7-28.5,44.2a16.6,16.6,0,0,0,10.4.9q-2.9-10.4,6.9-12c6.6,5.1-3.8,19.7-5.2,24.9a186.4,186.4,0,0,0,20.1-5.6,21.5,21.5,0,0,0,2.4,16.7c3.1,6.7,22.1-20.1,23.3-22.1a254,254,0,0,0-1.3,26.2c2.5,10.2,18.7-11.6,18.6-11.5a13,13,0,0,0-10.4-1.8q1.3-13,13-18.4c-12.7,2.7,26.7,23.6,27.7,23.9l-9.5-6.4c0-3.1,11.8-9.2,12.1-11,12.4,3.3,5.1,24.8,6.1,32.3q13,7.2,20.7-12.9c0,8.3,4.6,28.1,1.7,35.9,3-4.6,7.9-15.2,11.2-21.2q-2.6,6,2.6,6.4c6.2-13.3,9.5-25.5,11.2-42.3,7,8.7,12.5,25.3,14.7,37.6q-282.9,12.9-565.8,27.2c-129.2,6.6-258.3,13.2-387.4,21.2-35,2.2-160.9-10.1-189.1,15.9,3.3-49.9-3.3-115.3,14.9-160l-11.2,1.8c.2,5.3,12.1-48-6.1-32.2,9,8.6,25.3,18.1,36.3,23.9,16.6-19.2,7.2-20.1,19-47.9,1.8-4.3,7.6,23.3,7.8,23.9,9.2,19.6,14.8-44.8,14.7-45.1,9.3,19.4,21.7,30.7,23.3,41.4,7.9-9.1,12.7-9,19-26.7.4,5.7,10,43.7,10.4,43.3,3.3-5,5.7-30.7,6.1-37.7a64.7,64.7,0,0,0-11.2,4.6c5.6,1.3,8.9-32.8,8.6-31.3l-5.2,12.9c2.3-11.3,12.4-32.1,9.5-43.3,2.2,8.5-25.6,53-32,53.4-10.2.6,21.4-67.8,21.6-70a12.5,12.5,0,0,0-9.5,3.7c-3-18-2.7-22.3-8.6-38.7,11,1.7,26.2,6.8,32.9,8.3,7,23.1,4.8,7,16.4,17.5a25.6,25.6,0,0,1-11.2,12.9c10.9-7.7,18.1,19.3,25.9,20.2,15.3-18.6,16.6-30.6,9.5-51.5q-9.4,1.5-7.8,11c-10.3-2.8-9.2-7.9-19.9-3.7-5-3.7,4.4-7,1.7-10.1l-6.9,6.4c-5.5-4.7,10.1-9.1-4.3-11,17-19.6,61.8-37.7,57.9-62.6-.8-5-34.1,7.5-33.7,6.4,9.2-16.7,66.1-68.4,56.2-93,1.3,3.2-22.7,13.6-24.2,14.7,15.9-2.8,22.9-40.5,24.2-52.5,2.3,22.9,19.1,47.4,28.5,62.6-3.3-4.2-5.6-7.7-9.5-10.1l.9,8.3-9.5-9.2c-17,47.5,24.2,33.8,42.4,18.4,3.4-2.8,20-58.5,19-49.7s5.3,31.3,7.8,32.2c18.9,6.7,25.6-31.5,31.1-49.7,2.5,1.2,11.4,33.1,13,38.7,16.5-27.1.9,8.3,17.3-39.6,5.1,11.9,17.7,25.9,24.2,39.6.3,4.3-16.8-1.4-16.4-.9,15,19.9,4.6,15.6,30.3,21.2-11.8,3.2,1,20.9,1.7,26.7,7.4,0,20.5-51.4,29.4-64.4-1.4,6.3,4.2,60.5,15.6,33.1l-7.8-3.7c8.9-8.4,17.3-8.1,25.1-21.2,1.5-.1-3.5,27.8-4.3,30.4q-5-1.2-5.2-6.4c-1.2-2,.9,17.9.9,18.4-6.8-2-3.6-2.8-8.6-10.1-2.6,12.3-4.6,9,6.9,20.2a76.7,76.7,0,0,1-13-2.8c18.9,20.2,12.3.6,18.2-12.9,2,8.9,7.8,21.3,8.6,26.7,8.6-35.9,4.1-73.4.9-106.8,6.9,8.9,27.7,18.3,27.7,26.7,0-4.1,3.4-17.5,2.6-32.2-7.8,5.4,25,48,26.8,49.7-5.6,1.7-12.3,2.7-16.4,3.7,2.6,4.4,22.7,29.7,25.9,30.4-3.1-.6,14.5-21.7,14.7-22.1l-6.1,1.8c30-16.2,45.6-45.3,54.5-69,5.7,12.2,7.5,21.9,13,31.3C1657.8,680.8,1657.2,682.9,1656,687.1Z" transform="translate(9 -457)" fill-rule="evenodd" fill="url(#linear-gradient-4)"/>
    <path d="M175.5,1062.1c120.4,15.5,241.2,31.7,362.3,40.7,130.9,9.7,262.1-12.3,392.2-25,299.3-29.2,598.9,4,899.1-9.6,260.3-11.8,521.1-14.6,781.6-20.5,142.4-3.2,284.9-9.2,427.3-10.8,56.8-.6,113.6.4,170.5,1,22.2.2,140-15.2,157.7,1.8,10.1,9.7-.3,83.2-.3,97.2l-.7,216.1-1.1,337.1L1874,1682.6c-604.3-3-1214.6,18.9-1818.4-9C-28,1669.8,0,1642.7,0,1554q0-248.3,0-496.5Z" transform="translate(9 -457)" fill="#578893" fill-rule="evenodd"/>
  </g>
</svg>
