<svg id="Foreground" xmlns="http://www.w3.org/2000/svg" width="1207.1mm" height="942.3mm" viewBox="0 0 3421.7 2671">
  <title>hallowfront4</title>
  <g id="front">
    <path d="M562.1-129.2C550.3-89,545.9-42.3,545.9,8.4c-19.5-16.8-32.7-40.6-61.1-47.6-28.1-71.3,32-116.9,49.6-170.6-28.1,37.8-55.3,76.4-63.3,132.3-35.7-19.4-35.5-78.8-75.2-93.8,23.5,16.5,31.2,50.5,50.6,71.6-10.8-7.4-47.3-21.6-60.6-39.8-7.5,6,6.9,15.4-15,12.5,52.1,5.3,78.4,39.3,97.9,80.8-11.2-1.5-41.9-19.9-39.6-9.6,16.3,1.1,23.4,12.4,39.8,13.5-14.9,17.5-48.6,8.3-69.9,7.6-10.1-.3-19.8,3.7-27.2,1.4-28.2-8.5-32.1-33.6-45.9-56.2-2.6,15.3,13.6,45.3,30.1,53.1-8.7,13.2-29,15.9-37.5,29.3,14.6,2,22.9-18.9,45.7-21.9,10.7-1.4,21.7,6.1,35.2,2.1-3.3,18.1-20.9,23.2-17,47.8C392.7-5.8,403-32.4,450.4-25.6c-.8,6.4,4,6.5,4.5,11.5-15.7,11.8-4.7,47.8-16.2,63.4-26,.6-59.2,18.8-71.9,42.8,18.7-16.5,38.6-32,68.2-38.8,5,16.9-12.7,45.4-7.8,74.7-40.7-9.7-99.3.4-122.5-28.7-3.4,8,19.8,21.8,36.3,21.5-5.5,7.4-16.3,10-22.5,16.8-16.4-6.5-32.6-13.3-51.6-16.8,12.8,9.1,30.5,12.8,47.7,17-4.5,5.8-13,8.1-22.9,9,5.3,9.2,23.5-.8,27-5.3,12.6,10.7,23.2,23.7,33.2,37.3-24.4,6.7-108.6,1.6-117,2.2,62.2,12,152.1-6.9,185.5,37.2-5.5.6-11,1.2-11.9-3.3,16.6,16.7,51,33.6,47.7,91.3-27.2-20.9-64.3-30.6-100.2-49.4-10.6-5.6-18-18.1-28.5-22-20.9-7.7-47.4-1.5-67-12.1-25.2-13.6-26.5-42.1-46.1-60.1-.6,15.2,28.3,59,46.5,67.9,15.6,7.6,37.6,2.9,55.1,8.8,24,8,46.4,24.4,68.2,35.5,24,12.2,48.9,22.3,64.5,39.6-38.3-14.1-79.3-52-126-20.7,15.1,12.7,20.9-8.5,34.6-9.6,17.1-1.4,69.8,21.8,87.7,34.5,28.1,19.8,42.7,56.9,51.2,83.3,0,8.6-16.4,2.5-23.2,5.1-12.1,6,14,3.1,19.7,2.9-.8,12.9-10.5,17.8-14.1,28.1-9.2,2,1.2-17.9-12.3-11.1,6.6,19.9,11.5,62.8.2,78.1-19.2-18.6-44.8-27.1-49.6-52.1-6.8-35.4,31.4-77,25-118.5-14.5,29-14.2,71.3-29.9,99.3-7.2-.2-3.1-13.1-8.6-15.2-8.7,4.7,4.9,18.9,9,23a222.7,222.7,0,0,0-37.9,21.5c11.3,12,23-21.3,34.6-9.6,8.8,1.2,1.2,20.7,9,23-5.6,6.1-16.8,7.2-26.9,9.2,14.4,8.8,38.5-10.5,47.4,9.2-37.3,17.3,16.6-1.1,20.7,22.4-3.6,22-33.7,49.6-52.9,34,.9,7-3.5,11.9-14.8,16.4-28-21.1-60.9-36.8-92.6-53.8-1.1-14.5-4.9-10.9-1.2-23.4-14.5-2.8-6,20.9-2.7,23.6l-38.9,2c-13.5-.1-1.2-29-17-26.5,6.7,35.2,21.4,60.8,43.6,87.6-13.1,25.8-69.8,22.9-47.9-20.9-15.4,5.8-11.1,34.3-1.6,43.1-22.6,4.4-15.7-23.8-32.6-25.6-.4,11.5,9.4,11.5,9,23-15,2.9-19.4-6-35.3-2.1,10.5,10.8,35,2.3,43.2,5.6,5.9,5.6-12.8,20.4-26.2,20.9,16.6,13.5,21.5-15.1,38.3-13.7,14.5-3.7,3.8,20.5,20.3,14.6,20.7-53.4,118.6-18.5,169.3-48,9.8,9.8,8.8,31.4,28.9,29.8-.9,5.4-9.6,3.7-15.4,4.7,9.9,6.9,31.2,1,43.2,5.5-10.8,13.8-22.7,26.6-24.8,48.2-12.1-5.3,2.3-17.3-1.4-27.3-25.5-1.7-15.3-31.3-33-33.4l-.8-15.6c-9.8,2.3,5.4,27.1-14.6,20.3,12.6,5.4,33.7,11,33.4,41.2-16.5-2.3-39.4-33.1-57.2-47.8,3,21.5,39.4,41.4,57.8,59.5-36,27.6-56.9-29.2-69.3-55-2.3,17-16,4.5-30.5,13.3,33-7,42.7,27,61.1,47.6-18.4,4-18-13-35.7-9.8,8.1,6.1,15.2,13.4,28.1,14.2-22.8,20.9-59.9,21.1-85.9.6-10,6.2,17.6,4.8,16.4,14.8-11.8,3.5-8.1-10.3-19.9-6.8,9.2,14.5,30.5,15.5,55.3,12.7.9,19.8-16.4,15-18.2,24.4,24.1-2.4-.1,10.1,1,19.5,26.2,1.4,42.5-6.2,66-7.4,3.5,11.8-6.1,11.8-2.7,23.6-35.9.2-45,22.3-77.7,8-8.5,5.7,19.5,5.4,24,10.5-4.2,7.1-35.1,9.1-35.2-2.1-13.5,37-63.6,13.1-88.9,16.4-7,16.2,50.1-3.5,51.6,16.8,28.3,2,43.7-7.7,61.7-15-14.5-6.7-31.7,15.8-58,10.9,31.6-13.7,56.5-16.3,88.5-24.2-7.8,21.6-5,37-36.9,41-3.2-1.9-6.5-3.7-11.9-3.3,10.8,9.9,27.2,13.7,32.8,29.5,18.3-3.5-12.4-13.8-12.9-22.8,22.9-2.9,29.2-20.8,41.2-33.4,43.6,2.4,90.6,1,125.6,13-2.9,25.3,9.7,33.2,14.3,50-23.6-4.4-79.7-24.6-101,9.2-14.8-6-17.5-21.6-13.7-38.3-4.9-5.5-15-5.3-20.1-10.7-9.7,2.2,4.3,10.9,12.1,7.2,1.6,18.8-.2,41.5,17.8,42-2.9,8.6-16.7,7.2-22.7,12.9-8.2,8.5,19.5-4.4,27-5.3-.6,35.1-60.7,28.9-67.8,46.5,26.5-2.1,39.1-16.7,61.3-22.7,21.6,19.3-5.4,46.2-32.8,44.7,22.4,11.4,40.9-12.5,49.4-26-2.1-7.3-8.9-9.3-8.8-19.1,31.5-10.3,57.2,21.6,91,22.6-25.1,21.4-77.4,47.8-107,44.7,12.8-.5,19.7,5.6,35.2,2.1,21.4,14.7,48.3,23.3,86.9,18.9,5.2,1.1,6.5,6.5,12.1,7.2,17.5,46,15.7,114.1,25,178.4,3.8,26.3,15.7,50.1,19.7,77.1,7.5,52.1,4.4,97.3,11.9,151.8,11.6-10.6,46.4-.3,58-10.9-6.8-50-27-113.8-25.2-182.3.7-27.4,14.7-50.9,31-79.8,26.8-47.6,56.8-111.4,127.3-104.4,12,1.2,37,18.5,63.5,20.1s53.8-5.9,59.6,20.3q1.7,12.7-11.1,12.3c8,11.7,18.2,21,40,17.4-3.8-14.4-13.6.5-19.9-6.8-3.6-14.1,8.4-22.1-1.6-31.2,16.9-3.6,22.3,5.5,39.1,1.9-4.8-12.8-11.8.4-23.8-6.6-7.1-30.6-9.2-66.8-31.5-80.4,10.5,22.7,22.5,43.8,23.6,76.9-31.8-1.7-44.1-25.2-86.7-15-9.1-15.9,9.9-24.5,21.7-32.4-11.4-16.2-41.5-11.6-52.3-28.5-4,10.1,21.7,22.5,40.2,21.3,1.6,18.7-19,17.6-21.7,32.4-15.1-3.8-24.7-13.8-47.3-9.2-2.3-38,23.4-50.7,26.9-83.5-15.7,9.4-12.6,35.7-28.9,44.5,0,14.8-2,27.9-5.7,39.4-9.3,2.1-8.8-6.7-19.7-2.9,12.5-34.5,33.6-61.3,45.7-96.2-23.5,23.4-28.4,63.5-54.1,84.9-10.2-14.8-40.8-6.9-59.2-12.5,0-24.8,16.5-34.6,41-37.3,26.9-26.5,66.1-41.9,90-71.2-24.5.3-33.5,46.5-75.8,43.1-2.1,20.4-24.9,22.1-45.5,25.8-6.9,11.1-16.3,20-21.7,32.4-19.6-15.9-5.4-26.4-14.5-53.9-7.3-6.9-9.7,3.7-23.4,1.2,22.2-54.8,18-110.5,58.6-147.7,15.4,10.3,6,48.3,29.9,49.2-18.1-10.8-11.4-39.3-22.1-49.6,32.7-25.8,61.8,10.3,98,6.6,16.6,14.6,23.3,40.1,41.8,52.5,15.9-6.7,29.6-15.4,33.4-33-13,5.6-13.6,22.4-29.9,25-15.1-9.4-30.3-18.6-29.7-45.3-43.5-8-88.2-37.1-133.2-8.6,8.3-33.4,40.7-45,67-62.1,22.8,5.1,30.5-1.4,46.3-10.3-15.1-9.3-13.6-37.1-40.8-33,8.1,7.4,19.1,11.8,24.6,22.2-23.4-8.9-42.1,15.7-57.2,26.4-14.1,3.3-15.4-7.6-27.7-6.4a79.1,79.1,0,0,1,22.1-24.6c-12.5-11-14.7,18.7-30.3,17.2-28-50.6,88.7-75.5,119.1-37.5,2.5,41.2,22.1,63.4,36,91.9,2.5-24.6-29.8-49.9-23.8-80.8,13.6-10.8,45.1-14.1,54.7,1,3.3-2.6-12.7-18.6-28.1-14.2,6.9-12.3,18.4-20.6,25.6-32.6,12.3-1.3,13.6,9.7,27.7,6.4-6.2,11.9-20.9-1.2-31.1,1.6,33.5,14,72.6-1.8,109.8,9.9-17.3-15.2-39.9-4.2-67-12.1,1-12.7-6.9-33.4,6-35.5-10.8-10.7-18.9,12.4-14.1,28.1-30.7-8.5-59.4-2-90.6-14.8-4.9-14.3,14.3-6.9,10.7-20.1-19.6,23.6-70.7,29.1-100.8,13.1,3.5,8.4,18.6,4.1,20.3,14.6a367.5,367.5,0,0,0-56.6,38.1c-7.2-16.8-7.5-41.1-11.1-61.9,8.3-6.2,20.4,18.4,43.4,9.4-9.9-8.3-29.8-5.4-36.1-17.6,12-15.8,21.1-14.4,46.1-14.1,6.7-.9,32.8-12.9,15-12.5-3.5,9.2-17.5,9-30.7,9.4-.7-14,15.2-8.7,22.8-12.9,23.8-13.4,47.8-34.4,59.4-57.8-13.8,7.5-25.6,36.2-41.4,29.5-6.1,14.9-39,32.8-72.3,35.1-10.4,3.3,1.8-18.5-8.6-15.2,15.5-7.1,31.4-13.7,37.5-29.3,7.7-.4,5.5,10.4,16,7s-11.3-3.2-12.1-7.2c2.3-11.5,20.6-8.6,18.2-24.4-7,7.3-17.5,11.5-22.3,20.7-10.6-.6-7.8-16-16.6-18.7,32.8-51.9,117.9-16.7,137.7,20.1,8,8-10.8-15.5-12.9-22.8,18.6.7,31.8-3.6,42.4-10-18.5,3.5-60.7,10.9-74.8-11.7,36.2-30.7,73,8.6,106.4,17.9-19.3-18.4-49.6-24.6-72.3-39.2-31.3,24.1-90.3.4-119.7,25.8-25-51,59.4-35.5,70.7-66.2-26.3,24.6-95.5,10.5-82.2,70.7-2.6,8.8-13.1,10.5-18.7,16.6-2.6-6-3.2-35.9,1.4-47,13-15.5,41.8-16.7,48.8-37.7-15.9,9.2-28.6,21.2-45.3,29.7-9.5-45.7,18.8-89.5,44.7-115.7,71.2-19.3,145.2-11.5,225.4-19.6,18.4-1.9,36.1-3.6,11.5-4.5l-27.3,1.4c-59.1-6.2-128.4.7-194.5,14.1,4.4-25.8,61.6-3.9,68.9-27.1-15.4,3.6-42.9,15.6-58.2,7,23-7.7,43.9-17.3,69.1-23.2-16.8-7.6-39,11.8-57.8,14.8,12.5-28.4,100.8-39.2,149.6-50.8,14-3.3,39.2,5.8,42.2-13.9-7,7.3-25.6,4.2-38.7,5.9-8.7-5.7,10.9-17.2,6.2-31.6-4.9,46.9-79.4,54-119.1,37.5-6.6-21.2-11.7-34.2-2.9-54.6,8.3,1.8,11.6,9.1,23.8,6.6-35.7-18.1-55.7-53.5-111.9-48.8-.4-20,34.4-24.4,25.2-40.4,28.9-5.7,46.5-38.2,79.5-47.2s80.5,7.9,92.4-24.4c-26.3,26.1-70,9.9-100.2,24.8.7-13,10.8-17.5,18.2-24.4-13.9-7.5-24,20.3-29.5,32.8-23.7,4.2-36.9,30.8-61.3,22.8,4,14.7-7.5,15.5-14.6,20.3,5.2-36.1,9.5-81.4-13.3-104.8.9-14,8.7-21.9,18-28.3,17.5-5.7,15.8,9.9,31.6,6.2C738.5-49,688.9-37.8,689.7-3c22.6,15.7,22.4,73.2,13.1,100.9C682.7,73.5,675.5,34.8,670.1-5.9c-6.6-11.6-2.5,17.1-2.7,23.6C652.5,19.1,657.9-2,643-.6c15.5,21.3,36.9,36,38.9,72.2-22.7-13.3-62.4-43.3-100.4-53.3,41.8,25,91.4,41.4,117.6,83.7-10.3,25.4-21.1,50.3-35.3,72.2-11.6-6.8-20.5-22.9-13.7-38.4-6.7-1.1-7.2,3.4-7.4,8.2-23-14.2-59.2-31.5-46.7-71.8-15.8,4.9-8.9,20.5-2.3,31.4a178.1,178.1,0,0,1-36.9-33.2c.7-15.5,11.5-21.8,17.8-32.2-8.6-12.2-9.2,13.7-18.9,12.7-11.7-61.4,41.6-89.4,22.4-169.2,13.6-19.9,41.8-26.7,52.1-49.6-14.9-3.5-23.4,30.8-45.1,33.6-6.8-5.2,6.7-23.5,5.9-35.5-12.9,8.2-12.3,28.5-17.2,43.9-5.8-28.3,10.7-87.2-17.4-108.5,12.6,31.5,13.4,59.5,9,97.2-12.7-5.1-13.4-23.6-28.7-25.9C545.2-151.6,553.8-140.6,562.1-129.2Zm-98,67.7c-1-4.9-12.3-18.5-4.9-19.3C459.4-75,474.5-65.6,464.1-61.5Zm-9.6,39.6c15-14.5,9.8,12.1,0,0Zm26.8-9.2c52,14,74.5,102,58.8,153.2-11.2-46.6-43.8-69.6-93.6-73.2C455.4,19.7,450.4-21.9,481.3-31.2Zm-50,162.8c22.6,32.7,77.8,51,75.4,97.6-22.2-9.7-54.7-7.9-82.6-11.3-3.2-45.9-20.6-76.1-51.6-91.1C396.5,123.6,409.1,132.9,431.3,131.7Zm-15.8,71.2c-41.9-8.3-71.4-30.6-89.3-65.6C366.7,107.4,413.4,151.6,415.5,202.8Zm-158.9,321c30-12.9,46.6,2.5,67,12.1,23.3,11,51.9,21.8,49,40.4-23.7,5.4-49.5.3-81.8,4.3C275.7,565.8,266,545,256.6,523.8Zm170.5,49.7c29.1-6.2,43,4.4,51.8,20.7C462.8,612.2,427.3,598.6,427.1,573.5Zm-22.2,98.9c-5.7,17.9,15.7,13.6,5.9,38.8-16.6-9.7-39.4-8.1-55.1-8.8C361.5,682.7,385,679.1,404.9,672.3Zm-1.2,50.9c-21.5-4.4-41,12.4-54.5,2.9,4.5-.9,3.9-6.4,3.3-11.9C371.1,706.7,398.8,697.8,403.7,723.2Zm-32.2,56.4c2.3-1.3,14.5-10.5,15.6-.8C379.6,775.4,374.7,791.1,371.5,779.6ZM523.1,916.2c5.8,11.5,8.8,47.8,6.8,54.4-18.3-3.8-67,6.9-83-19.1C474.7,941.9,491.7,922.6,523.1,916.2Zm226.7-219c10.5-5.2,15.8-9.3,27.1-5.3.4,5.4-1.4,8.7-3.3,11.9C766.6,700.6,754.1,703.5,749.8,697.2Zm-37.9,21.5c-12.1,4-15.7,15.6-30.3,17.2-1.4-12.1,1.1-28.7-5.7-34.9C689.8,704.8,704.1,708.2,711.9,718.8Zm139.8-89.4c-10.9,12.4-19.2,27.2-37.3,33.2-10.9-11.3-26.9-16.8-33-33.4C792.5,600.9,836.3,615.4,851.7,629.4Zm-121.1-1.5c9.8-7.4,40.1-15.7,54.3-6.7C778.7,631.8,742.5,634.7,730.6,627.9Zm-59.4-90.7c-4.7-7.1-5.9-18.1-9.2-26.9,5-4.2,11.4-7,15-12.5,12.1-2.5,10.8,9.9,20.1,10.7C692.8,522,686.9,534,671.2,537.2ZM780.7,168.1c7.4,43.8-20.8,75.3-50.8,73,7.3-7.2,13-35.1,9.6-39.6-9.8,24.6-12.6,55.5-47.8,57.2-2.4-34.3,14.5-51.3,23.4-75.5,9.4-3.9,22.3-4.7,22.5-16.8-9.6,3.8-14.7,11.5-26.6,13.1-18.8,23.9-20,63.7-34.3,91.7-36.9-48-11-91,16.6-129.8C737.3,133.8,753.9,156.6,780.7,168.1ZM635.4,152.2c-2.9-12.1-33.4-14.9-43.2-5.5,57.1-14.2,74.7,48.9,43,75.9-23-22.6-55.7-34.3-84.6-50.3,14.1,24.2,54.2,19.5,65,47.4-24.5,3.7-44.1-19.6-59.2-12.5,20.6,8.7,41.7,16.9,67.4,19.9,1,3,.5,7.7,4.3,7.6-10.4,26.5-33.2,41.9-47.4,65-13.1-14.3-23.4-31.7-37.5-44.9-8-49.3,4.2-80.4,9.5-117.7,13.9-4.2,26.8,13.9,35.2,2.1-14,1.8-19.1-6.2-31.6-6.2,5.8-14.6-5.9-44.9,9-51.3C581.9,110,624.6,131.2,635.4,152.2ZM556.3-15.6c-8-38.8-3.4-70.4,14.6-94.6C582.3-75.7,575.3-34,556.3-15.6ZM527.6,107.1c2.4,24.6-30.4,51.3-15,86.8-17,1.6-26.4-19.5-40.8-33s-32.6-21.1-37.1-37.1c-6.7-24.2,7.5-40.8,8-70.8C485.5,59.4,524.1,71.5,527.6,107.1Zm179.9,6.2c-11.3,11.3,10-12.4,0,0ZM522.5,232.4c-11-38.4-9.8-91.3,9.7-113.8C540.1,152.3,524.2,195.3,522.5,232.4Zm6.7,54.4c-15.6.8-29,3.6-26.2,20.9-13.6-5.6-34.9,6.8-19.9-6.8-9.9-4.6-15.6,12.3-19.5,1,3-1,7.7-.5,7.6-4.3l-7.8.4c8.3-42.3-27.4-57.4-27.4-76.7,14.3,7.5,40.1,2.2,51.4,12.9-11.7,3.1-33.8-3.2-38.7,5.9C495.9,233,535.5,234.4,529.2,286.8Zm258.6-56.6c-7.3-.1-13.2-1.9-16-7,5-.5,5.1-5.3,11.5-4.5C783.4,224.1,785.6,227.2,787.8,230.2Zm-160.3-3.3c3.1.7,7.7-.3,8,3.5C632.5,229.7,627.9,230.7,627.6,226.9Zm16.8,22.6c-1.2-5.5-6.7-6.2-8.4-11.3,2.4-.3,4.6-.8,3.7-4.1l7.8-.4C647.1,239.5,649.6,248,644.4,249.5Zm132.8.9c-27,14-39.6,41.1-71.5,50.6-6.9-6.1-4.3-22.7-5.7-34.9,26.6-10.6,47.3-26.7,80.3-31.6C780.9,241.3,780,246.7,777.2,250.3ZM669.4,279.4c-3.1-11.9-25.6-23.5-13.7-38.4C653.8,258.4,676.1,270.3,669.4,279.4Zm138.9-30.7c-9.6,0-18.8.4-23.2,5.1-1.3-7.3,3.9-8.8,3.1-15.8C797.4,238.8,805.2,241.1,808.3,248.7ZM670.2,295c-14.6,19-2.8,61.8-15.2,82.9-34-10.3-47.4-43.6-66.2-70.8,15.4-20.8,32.3-40.2,47.6-61.1C647.9,262,663.4,273.7,670.2,295Zm-113.5-5.8c-.9-4.5-6.4-3.9-11.9-3.3.4-5.9-2.1-14.3,3.1-15.8C547.4,277.9,565.2,285.9,556.7,289.2Zm133.2,8.6c-9.7-9.6-9-26.5,6.2-31.6C690.7,273.9,697.2,292.1,689.9,297.9Zm-116.6,10c-7.1,3.5-13.9,7.3-23,9,1.3-12.4-7.7-13.4-5.3-27.1C559,290.8,566.9,298.5,573.3,307.9Zm-42,17.8c-4.6-12.7-22.2-11.1-21.1-30.2,9.5,1.1,8.1-7.6,19.3-4.9C529.4,297.7,539.4,314.5,531.2,325.7Zm4.7,15.4c7.1,14.1,5.2,38.2,7,58.3-5.3,6.3-19.7,4.5-30.9,5.5C494.4,380,530.8,367,536,341.1Zm-36.9,41c-8.1-22.7-32-49.6-27.2-72.8,25.9,2.8,50.1,7.5,60,28.1C510.1,346.5,527.2,374.7,499.1,382.1Zm173.8-36.5c1.8-14.5,2.4-30,9.6-39.6C687.7,326.2,686.4,335.4,672.8,345.7Zm26-24.8c-1.7-10.2,7.6-10.5,15-12.5C715.5,318.5,709.1,321.4,698.9,320.8Zm-143,27c-4.7-4.4-5.1-13.5-5.1-23.2,8-2.7,10.6-10.2,22.9-9C569.4,327.9,569.2,343.9,555.8,347.9Zm78.1,74.1c-29.2-12.9-42.7-43.2-65.8-63,10.6-7.8,5.2-30,21.7-32.4C601.2,363.6,654.6,373.3,633.9,421.9Zm-48-20.9c-14.3,4.6-9.7,8.9-27,5.3-1.5-17.5,1.5-30.8,9.6-39.6C571.7,381.1,588.5,380.3,585.9,401Zm11.9,3.3c10.1,12.6-13.6-8.7,0,0Zm-15.6.8c3.1.7,7.7-.3,8,3.5C587.2,407.9,582.6,408.9,582.3,405.1Zm-46.5,6.4c-14,21.1-21-14.5,0,0Zm-18,28.3c-4.9,9.2-15.4,13.4-22.3,20.7,3.3-16.8-2.1-41.5,9-51.3C507,421.4,516.7,425.7,517.7,439.8ZM639,445.1c6.3-11.7,4.5-30.6,13.5-39.8C654.8,422.3,651.1,453.3,639,445.1Zm-62.9,65.8c-8.8,1.6-14.7-.2-16-7C567.4,504.1,573.2,505.8,576.1,510.9Zm-20.3-88.8c14-6.9,40.4-7.8,47.1,5.3-5.8,31.2,7.5,60.4-19.5,75.3-7.1-10,1.3-37.1-13.7-38.4,3.8,12.2,4,28.6,9.8,38.6C540.6,508,548.1,445.3,555.8,422.1Zm-23.4,1.2c-11.3,11.3,10-12.4,0,0ZM623,438.1c2.3,5.7,6.3,9.5,8.6,15.2-7.8,4.1-15,8.8-22.7,12.9-8.7-11.5-5.1-37.5,1.4-47,16.1,11.4-.2,17-2.3,31.4C618.4,451.3,610.3,435.4,623,438.1Zm15.4-4.7c-3.9.2-4.5,3.4-7.6,4.3.1-6.1-1.2-13.5,7.2-12.1ZM480.4,473c-8.5-11.3-.3-33.2,9.6-39.6C490,449.5,491.1,466.6,480.4,473ZM539,548.1c-11.3-21.8-43-21-64.1-31.8,7.2-30.7,24.5-52.2,47.1-68.9C530.9,474.6,548.3,514.3,539,548.1Zm98.4-59.9c-3.9-8.1-12.5-10.9-12.9-22.8,5.4-.1,8.5-2.3,11.5-4.5C633.2,471.3,648.8,481.7,637.4,488.2Zm-3.5,8c-12.5,11-21.5,25.1-45.5,25.8,6.1-20.5,16.8-36.8,32.6-48.6C625.1,481.2,629.7,488.4,633.9,496.2Zm1.6,31.2c-1.8-4.8-5.4-7.7-12.1-7.2,0-10.2,14.5-26.2,18.4-20.5C630.7,500.8,646.6,526.3,635.5,527.4Zm5.1,23.2c-17.2,1.3-28.4-4.2-35.9-13.7C610.3,507.4,639.3,528.4,640.6,550.5ZM585.5,616c-13.9,4.4-6.2-15.1-9-23-7.5-8.2-16-15.2-20.9-26.3,7.5-15.6,3.9-41,25-44.3C583.2,558.1,597.6,594.1,585.5,616Zm9.4-43.5c-.3-27.4-13.5-27.7-6.3-46.6,5.9.4,14.3-2.1,15.8,3.1C592.4,549.8,630,564.5,594.9,572.5Zm-62.5-.6c-18,3.5-25.3-4.8-39.3-5.8-.6-14.4-7.2-22.3-13.3-30.6C510.5,531,532.4,555.7,532.4,571.9ZM477.3,563c-12.7,1.5-16.3-17.5-.8-15.6Zm-31.6-6.2c5.5-1.2,6.2-6.8,11.3-8.4C460.8,556.3,447.8,566.5,445.7,556.9Zm200.6,28.6c-22.7-.6-31.1,11.6-45.9,18-4.8-31.6,18.1-38.1,40.6-45.1C639.8,570.7,648.8,571.7,646.3,585.4Zm42.2-13.9c-6.8.1-12.1,1.5-15.4,4.7l-.6-11.7C679.9,564.7,685.7,566.4,688.6,571.5Zm-19.7-2.9c-3.7,15.6-5.3-15.2,0,0ZM538.1,606.7c-17.2-.1-23.6-12.2-43.5-9.4.4-5.9-2.1-14.3,3.1-15.8C514.4,586.4,535.4,586.4,538.1,606.7ZM645.7,648c-20.3-1-30.9,6.8-46.3,10.3,6-30.5,9-63.7,47.4-65C646,611.1,642.6,626.6,645.7,648ZM507.2,612.3c12.3,1.3,15.4-10,19.7,2.9-8.2-1.9-25.3,6.2-27.5-2.5,5.2.3,10.9-16.5,15.4-4.7C511.8,609,507.1,608.5,507.2,612.3ZM500,624.4c-5.7,6-17.9,6.1-22.7,12.9,24.3.9,25.1-19.4,53.9-14.6,11.1,46.6-42.6,54.8-71.9,42.9,1.3-28.6,18-43.2,32-60.3C497.3,612.7,487.9,619.1,500,624.4ZM583.8,659c-9.6-7.1,6-22.2-5.5-31,9-1.8,15.8-5.5,23-9C594.3,631.4,601.8,656.7,583.8,659Zm135.3-26.6c3.1.7,7.7-.3,8,3.5C724,635.2,719.4,636.2,719.1,632.4ZM442.9,650.8c-3.7,15.6-5.3-15.2,0,0Zm90.4,10.9c-.6-6.7,2.5-10.2,7.2-12.1C541,656.3,537.9,659.7,533.2,661.7ZM639,667.9c-1.2-5.5-6.8-6.2-8.4-11.3l11.7-.6C641.9,660.6,643.5,667,639,667.9ZM616.4,833.2c-16,20.2-6.1,63.8-23,83.3,1.8-16.5-14.6-29.8-18.2-49.8-2.7-15,1.4-31.1,1.2-50.9-.3-33.1-8.2-73.9-5.1-97.4,2.7-20.3,22.9-34,12.9-51.5,85.9-19,51,39.8,44.3,99.3-3.1,27.2,4.8,47-8.6,59.1-19.9-30.1-32.3-68.6-44.6-107.1C576,770.8,602.3,795.2,616.4,833.2ZM530.1,677.5q-4.3-15,11.1-12.3C544.4,675.5,533.6,673.1,530.1,677.5Zm-93.7,1c-1-4.6,18.5-10,3.9-.2C439.8,678.7,437.8,684.4,436.5,678.5Zm-3.9.2c-7.9,8.8-21.1,2.6-23.8-6.6C419.2,671.6,431.6,668.8,432.6,678.7Zm30.9-5.5c13.8,8.8,46.9-3.7,54.7,1C512.3,687.1,466.2,689.7,463.5,673.2ZM525,802.8c-6.9-47.3-24.4-82.9-45-114.9,29.8,4.1,32.6-5.3,62.1-7.2C542.2,726.7,539.6,770.1,525,802.8Zm-43-75.9c3.8,20.6,16.9,30.7,22.1,49.6-23-8.5-41.6-27.1-64.3-35.7-8.3-3.2-20.7,2.7-24-10.5C431.7,711.9,457.3,740.5,482,726.9Zm-66.8-8.2c6.4-10.4,17.1-16.7,17.8-32.2,31.7-5,42,13.8,52.4,32.4-25.4,12.7-52.4-3-66.4-.4C419.2,720.6,416.1,723.1,415.2,718.7Zm238.3,77.4c.5-35.4,6.2-66.2,18.7-90.8C680.6,742.4,671.6,773.3,653.5,796.1ZM489.8,726.5c-3.7,15.6-5.3-15.2,0,0Zm5.1,23.2c-12.4-22,9.1-10.8,0,0ZM485,785.4c-26.6-13.1-77.8,1.2-98.6-18.3,18.9-1.5,23.6-15.9,42-17.8C447.3,758.6,483.3,770.7,485,785.4ZM370.9,767.9c-.2-3.9,6.6-5.3,7.8-.4C374.3,767.3,372.9,773.5,370.9,767.9ZM526,822.3c-3.7,15.6-5.3-15.2,0,0Zm-1.8,39.2c-.5,14.4,5.1,34.3-1.7,43.1-42.7-3.4-58.3-36.9-92.4-49.9C457.3,831,498.3,848.5,524.2,861.5Zm-61.1,26.6c-7.5-12.3-31.7-6-43.6-13.3,4.5-.9,3.9-6.4,3.3-11.9C441.3,863,464.2,879.8,463.1,888.1Zm103.5,37.6c-5.8-3.5-15.3-23.8-5.5-31C560.1,905.6,577.1,917.6,566.6,925.7Zm96.3,49.6-46.7,2.5c1.8-20.6,8.7-36.7,12.7-55.4l23.4-1.2C654.4,940.7,650.1,967.5,662.9,975.3Zm-97.1,9c4.4-22.9-13.2-42.9-3.1-58.4C579.8,928.8,582.9,979.4,565.7,984.3ZM682.9,986c11.3,11.3-12.4-10,0,0Zm-7.8.4c13.4,75.6-31.6,129.6-60.9,179-17.9-65.8-13.9-117.9-1.6-179.7C632.9,986.6,660.8,979,675.2,986.4Zm59.6,20.3c-19.7,10.7-33,27.2-48.6,41.6-3.1-17.7,5.6-24.6,1.7-43.1,12.5-7.3,23.3-16.1,42-17.8C733.4,991.8,735.6,997.6,734.8,1006.7Z" transform="translate(26.1 235.9)" stroke="#000" stroke-miterlimit="10" fill-rule="evenodd"/>
    <path d="M2297.6-21.4c-31.8,155-71.1,555.7-48,712.7,33,223.9,23.9,410,13,633.2l-56.3-2.7s10.1-207.1,12.7-298.7-17.8-273.4-25.2-323.6c-24.2-164.1,15.1-569.8,48.6-732.3Z" transform="translate(26.1 235.9)" stroke="#000" stroke-miterlimit="10"/>
    <path d="M2820.8,1364c0-28.1,20.2-161.9,22.8-423.1,1.8-179.8,12.5-357.2,18.8-536.5,3.6-104.1-60.3-368-76.8-470.2l55.6-9s54.7,263.7,70,351.5c15.7,90,3.5,180.2.4,270.6-3.7,110.7-9,133.5-11.6,394.1s-22.8,394.5-22.8,422.6Z" transform="translate(26.1 235.9)" stroke="#000" stroke-miterlimit="10"/>
    <path d="M721.8,1331.1c3.7-27.8,17.6-253,25-384.1,14.6-257.7,24.9-732.8,50.9-989.7L909.8-31.4S879.6,395.9,878.5,505c-1.1,111.5-11.6,315-19.2,448.3s-22.1,364.3-25.9,392.7Z" transform="translate(26.1 235.9)" stroke="#000" stroke-miterlimit="10"/>
    <path d="M917.5,1359.9s5.2-139.4,2.6-373.8c-3-267.4-1-745.8,3.8-1012.9l78.9,1.4s-3.8,422.6-6.4,506.7c-9.1,293.6,11,587.8,0,881.5Z" transform="translate(26.1 235.9)" stroke="#000" stroke-miterlimit="10"/>
    <path d="M2058.8,1339.8s31.4-97.3,27.8-293.7c-3.7-202-3.7-276.7-10.1-380.8s-12.8-212.5-12.8-294.6c0-79.8-27.1-384.1-27.1-384.1l55.9-6.8s27.6,307.5,27.6,390.9c0,81.2,6.3,187.3,12.7,291.2,10.2,167.7,27.7,551.1-20.4,695.6Z" transform="translate(26.1 235.9)" stroke="#000" stroke-miterlimit="10"/>
    <path d="M644.6,1056.6l1.1.5Zm61.5-62.1c25.3-3,44.9-3.8,69.7-.5-23.2-.8-46.5-.4-69.7.5C719.4,992.9,733.8,993.5,706.1,994.5Zm-106.7,4.2-12.2-2.3c13.6-13.2,55.1.9,73.7,1.4-21.8,2.9-39.5,4.6-61.5.9ZM742.2,515.7c34.5,30.2,61.1,73.7,4.6,97.3-31.3,13.1-74.6-19.2-106.1-33C671.5,547.2,697.7,525.8,742.2,515.7ZM320.9,533c2.8-18,2.7-52,12.4-67.3,5.9-9.3,24.5-17.7,33.4-24.1s19.8-18.1,28.5-18.7c10.6-.8,32.3,15.8,42.2,20.7-20,41-76.5,73.1-116.5,89.5C323.5,515.6,336.5,526.6,320.9,533Zm274.6,71.8c-9.8-.3-22.9,8.3-37.4,10.8a591.8,591.8,0,0,1-72.1,8.2c-27.4,1.4-61.4-.5-74.4,28-6.4,14-5.7,29.9-13.5,44.5s-22.7,27.8-31.1,43.2c-20.3,37.2-4.6,81.8-29.3,117.7-21.3,31-48,42.4-36.9,84.5,4.5,17.1,14.4,32.4,18.5,49.6,6.8,28.1-6.5,35.9-23.8,56.4s-16.2,24.4-11.3,46.9c3.2,14.6,11,31.6-2,43.6-32.5,29.9-59.5-11.3-70.2-34.5-14.2-30.9-52.7-76.5-51.6-110.6.5-15.5,15.8-29.3,20.3-43.9,7-22.9,3.8-20,29.3-26.8,23.6-6.3,26.7-10.8,32.9-32.4,7.7-27.1,15.9-54,23.9-81,11.2-37.8,25.5-76.3,34.2-114.7,3.7-16.6,3.1-26.2-7.3-8.7-9.1,15.3-11.9,40.1-17.1,57.4l-20,67.1c-7.5,25.3-11.7,64.6-25.6,87.1-8,13-17.8,17.8-36.1,18.8-22.4,1.2-29.5-11.3-31.8-36.3-4.6-50.1,34.2-99.1,41.3-147.7,19.7-3.3,43.7-65.9,61.7-83.3,38.7-37.6,79.8-35.3,130.5-40.8,37.5-4,72.2-16.5,109.2-23.7,20.7-4,44-10.3,65-11.1,18-.7,33.6,6.3,51.2,12C613.6,592.1,604.8,599.5,595.5,604.8Zm-189.4-469c8.6-4.6,62.2-26.5,61.1-35.7-1.5-11.7-52.8,20.5-59.8,24.3.4-3.8,7.1-32.4,1.3-34.8-11.2-4.7-9.8,24.7-10.3,29.7-2.1,18.9,2.5,52.2-16.7,62.1.3-22.1-6.2-39.2-19.5-57.1-15.2-20.4-16.4-11.6-6.1,8.4s25.4,38.5,12.3,60.6c-8,13.5-29.1,27.4-41.6,37.1-4.7-9.8-11.8-36.8-20.4-42-18.6-11.2,1,23.5,3.3,28.5,9.3,20.3,9.9,17.3-10.4,28s-21.5,12.5-25,35.1c-13.8-24.4-43-64-65.7-79.7-9.9-6.9-13.9-11.3-9.6,3.3,5,17,32.6,38.7,44,52.3,16.6,19.7,46.9,53.4,49.1,79.5,3.2,38.5-39.1,92.5-58.4,120.6,1.1-40.2-24.8-96.9-38-135-12.4-35.7-40.2-81.1-31.2-118.6,12.1-50.3,68.5-67.4,92.7-110.7,21.1-37.7,42.8-71.7,47.1-116.9-18.9,8.5-22,46.6-29.8,64.1-12.8,29.1-30.9,50.5-53.5,72.8-45.8,45.3-79.4,87.6-69.6,155.1,4.4,30.3,9.4,63.1,19.7,92,9.4,26.4,30.4,47.1,32.8,76,2.1,25.4-5.9,53.7-9.1,79-1,8-14.8,83.5-16.1,82.6-6.4-4.4-3.2-28.9-4.2-35.2-2.9-18.5-8.5-37-12.9-55.2-9.2-37.5-31.7-71.4-72.6-75.7,22.7,27.6,46.3,54.1,60,87.7,21.1,51.6.9,109.1,11.9,162.9,5,24.6,8,41.5-.2,65.7-6.3,18.5-14,36.3-18.4,55.4-7.8,34.8-11.4,69.1-13.3,104.6-18.6-31.6-39.2-56.9-64.3-83.4-4.1,8.3-15.9,23.4-15.7,32,.3,12.5,16.4,19.4,24.1,30.4,17.8,25.2,25.2,62.4,30.7,92.4,14.5,79.5,55.9,138.7,100.7,204.6,38.6,56.7,23.6,126.2,40.4,189.2,8.2,30.9,7.3,27.7,38.4,29l79,3.4c-12.4-58.2-48.8-126.3-37-185.1,14.2-70.8,43.2-139.5,109.3-176.4,36.2-20.2,81.9-30.2,120.6-17.2,30.2,10.1,60.2,22.2,90.6,31.8,17,5.3,34.7,7.7,52.3,10.3,28.2,4.2,51.4,13.6,78,24.5,29.6,12.1,59.1,24.6,88.7,36.8,7.2,3,68.4,30.7,55,12.1-4.2-5.8-25.4-10.1-31.9-12.7-19.5-7.8-39-15.6-58.4-23.6-31.7-13.1-63.1-27-95.1-39.6,10.8-2.8,76.2-17.9,46.2-23.1-19-3.2-44.8,16.8-64.8,17.8-55.7,2.6-120-30.7-170.5-47.6,41.5-11.3,87.1-2.2,131.4-6.4,32.7-3.1,67-4.2,99.9-2.1,57.5,3.5,117.6,12.6,170.7,35,21.1,8.9,51.8,14.4,16.1-4.3-48.5-25.4-99.5-37.2-153.3-45-32.6-4.7-61.5-8.9-94.3-5.5-38.1,3.9-72.8,5.3-110.8-1.4,21.8-21.7,23.9-55.6,46.9-77.3,18.7-17.7,45.8-39.7,43.2-68.9-.8-9.2-13.6-22.8-8.6-28.5s38.3,6,44.5,7.2c26.9,5.3,53.6,11.8,80.1,18.9-31.5-14.2-64.9-26-98.9-32.5-9.3-1.8-46.3-11.8-51,.5-2.8,7.3,14.9,21.1,16.8,27.5,11.1,37.2-30.6,50.8-50.5,72.7-14.1,15.5-14.5,37.9-28.7,52.4-7.7,7.8-26.9,22.4-36.1,27.3-32.8,17.6-75.8,19.1-111.7,26.6-45.5,9.6-81.1,34.3-112.2,67.7-4.8,5.1-12.2,18.9-19.7,18.1-18-1.7,8.9-45,11.9-51,8.6-17.6,22.8-38.9,23.8-59.1,1.2-25.1-22.3-43-15.1-69.4,22,11.6,27.3,12.1,43.3-6.9,12.1-14.4,22.2-30.8,33.2-46,14.5-19.9,31.1-53.8,52.6-64.2,15.5-7.5,39.8-7.5,56.7-10.7,3.9-.7,36.9-4.5,24.2-13s-70.4,12.1-86.8,15.2c1.4-8.1,15.3-71.8-.1-54.2-11.7,13.4-5.5,49.2-13.3,66.1-10,21.7-30.7,41.3-44.9,60.8-9.8,13.5-18.4,29.6-30,41.5-13.8,14.1-10.3,13.1-31.6,2.4,16.2-37.4,40.2-69.8,40.5-111.6.2-25.6,7.2-50.6,26.3-70.7,2.1-2.2.6-8.6,2.9-10.2,6.4-4.7,26.3-2.3,35.1-3.1,10.9-1,21.2-1.3,31.4-5.3s20-12.3,29.4-18.4c26.2-16.9,17.4-15.4,34.4.7,7,6.6,32,46.6,25.6,18-2.6-11.3-28.1-42.8-39.3-42.9-16.9-.2-40,28.6-56.4,34.6s-39.7,4.7-57.5,6.5c18.7-66.7,76.3-69.6,134.3-71.1,17.1-.5,28.1-9.2,43.3-10.9,11.1-1.2,4.1-.8,16.4,4.5,17.5,7.5,41,26.1,55.1,39,11.1,10.1,14.6,15.2,13,28.7-3.2,26.9-16.1,24-32,38.1-20,17.6,6.7,10.6,18.9,1.5,13.9-10.3,16.4-22,23.1-39,5.5,7.8,11.1,20.9,20.1,24.9s23.5-5.5,32-1.4,27.2,32,37.5,40.1c13.3,10.5,43,30.7,21.1,4.5-14.4-17.1-33.3-26.6-47.2-45.1,16.8-4.8,23.5,8.1,37.4,14.1s21.5,10.2,10.3-4.7c-19.8-26.2-47.5-15.7-72.1-17.9-22.1-2-20.7-4.6-34.6-24.5-5.4-7.6-10.1-16.6-16.6-23.2-18.9-19.2-47.1-33.3-69.1-48.9,20.9-16,19-22.4,42.8-18.3,13.4,2.3,27.2,8.7,40.1,13,25.1,8.4,43.7,23.6,66.7,22.7.3-2.8,44.9-2.8,55.2-3.2,21.6-.8,32.8-5.6,45.3,7.7,17.7,19,5.2,28.1,31.6,34.8,8.1,2.1,59.1,15.3,64.7,7.6,6.9-9.6-46-14.3-50.7-15-29.8-4.6-21.5-5.9-36.7-30.8-12.2-20-19.2-15-43.7-14.1l-66.5,2.4c20.4-13,28.1-15.2,34.6-37.2,8.2-27.6,3.9-35.4,29.8-47.1,13.3-6,45-20.6,15.1-17.2-20,2.3-45.8,16.8-47.8,37.7-10.4-17.7-17.5-28.9-32.8-42.3,21.4-4.2,53.2-24.2,72.8-19.2,29.7,7.4,52.5,47.1,80.9,58.8,33.8,13.9-4.2-14.8-16.2-23.5-18.4-13.4-47.6-45.1-70.5-45.9s-56.5,29.2-78.2,20.1c-25.6-10.8-2.5-48.4,9-63.2s31.1-27.1,39.6-43.3c7.7-14.7,5.6-17.4-11.8-1.4-32.2,29.8-45.6,48.7-57.2,90.1-18.3-16-17.1-15.2-10.9-39,1.4-5.4,14.6-49.5-1.4-32.7-5.4,5.8-16.3,48.2-14.6,56.5,3,14.5,27,27.9,38.1,37.6-12.1,2.7-22.6,4.8-32.7,10.5-1,.6-22,19.1-29.4,24.4s-29.9,32.4-39.3,33.3c-20.2,2-41-26.9-62.5-23.9,7.9-29.7,21.4-56.8,36.4-83.5,6.6-11.7,19.3-26.7,22.4-39.8,3.5-14.8-1.8-26.8,3.4-41.3,4.4-12.2,13.9-22.4,18.5-34.7,3.8-10.1,17.3-43.9,14.2-54.4-5.9-20.1-12.9,12-14.6,18.2-4.1,15.6-7.2,30.7-14.2,45.1-5.9,12.2-16.2,23.1-18.6,36.2-3.1,17,2.1,24.1-5,40.2-14.1,32-34.6,59.2-46.4,92.6-9.3,26.4-9.8,23.2-39.3,28.8-22.8,4.4-45.4,9.9-68.2,14.1-30.6,5.6-61.7,3.5-92.5,7.6-44.4,5.9-74.4,12.9-111.2,38.2-21.6,15-53.8,48.6-55.8,76.1-27.7-49.3-6.6-78.8,12.6-124.6,30.5,5.9,88.3,5.9,119.7-1.6,16.9-4,22.6-15.4,36.9-28.3,32.8-29.6,72.1-44.7,89.8-87.8L497.8,473c9.8,4.8,35.2,23.5,46.6,22.8,20.2-1.1-10.5-15.7-14.7-17.8l-46.9-22.9c9.9-1.7,82.5-11,76.2-18s-48,3.6-57.8,5.2c-6.4,1-26.2,8-31.6,5.4-10-4.7-4.6-1.7-4.4-13.1.3-15.9,25.9-71.1,36.3-76,13.5-6.3,37.7,9.6,51.1,3,6.6-3.2,23.6-31.6,17.5-38-9.2-9.8-15.8,26.1-19.5,28.3-8.5,5.1-38.2-2.3-48.7-2.9,6.6-15,14.7-30.2,19.5-45.9,1.3-4.3,2.2-17.6,4.3-19.8,7.6-8,41.5-10.4,51.6-12.9,33.2-8.3,52.4-2.5,86.1,5.3,17.4,4,40.7,14.2,58.4,13.5,9.3-.4,18.6,1,7.2-8.1s-45.1-10.4-58.7-13.6L624.5,257c14.3-8.6,50.7-21.8,59.2-35.7,11.9-19.5-36.1,10.7-41.6,14-36.2,21.8-74.2,27.7-115.9,38.1,1.5-14.8-.9-51.5,9.1-59.2,7.1-5.5,29.8-6.9,38.7-8,15.5-1.9,16.6-2.8,32,1.5,12.1,3.4,24.3,13.1,34,3.5,12.6-12.5,4.7-50.2,13.2-66.3,10.7-20.3,24.2-11.1,45.3-7.3,26.4,4.7,21.6,8.8,25.8,35.8,1.5,9.4,6.7,52.2,13.8,26.3,2.4-8.8-4.4-56.5-10-63.2-10.1-12-43.6-10.9-58.6-13.6,6.9-8.5,32.3-30.1,32.8-40.3.9-21.3-31,23-34.6,27.5-25.5,31.4-28.1,55-36.1,95.3-39.4-12.8-57.4-8.8-98.6-.3,5.3-54.9,3.8-97.8-3.3-152.1,1.5,120.5-17.2,227.5-62.5,338.1-12.6-13.8-29.1-27.4-39.3-42.9s-8.6-22.1-6.5-42.7c3.8-37.1,33.9-64.3,52.4-96.3,2.7-4.7,18.8-27.8,1.2-19.1-10.6,5.2-24,36.7-30.3,46.2-23.9,36.5-31.5,49.3-34.3,92.6-12.1-22.3-16.1-40-39.9-47.9-16.6-5.6-44.1-19.6-38.2-42.8,3.3-13.2,42.6-37.7,52.9-47.1C404.8,173.3,403.1,163,406.1,135.8ZM282.7,408c22.6-1.6,49.3,2,71.1-4.9,8.5-2.7,52.7-29,30.4-27.5-12.9.9-27.4,15.8-41.5,18.6-19.4,3.8-40.9,2.9-60.7,4.4,5.1-16.1,12.3-32.8,15.5-49.3,3.9-19.8.8-19.2-8-39.4-16.7-38.3-.1-49.2,32.8-66.6,14.2,29.2,15,35.4,43.6,46.3,23.1,8.8,22.6,25.1,37.1,45.5s35.2,33.6,49.1,53.7c5.9,8.5,9.7,8,8.9,17.1-.4,4.7-15.1,27.4-18.1,28.7-12,5.1-37.6-23.4-53.3-21.3-12.5,1.7-55.2,34.6-62.6,45.2-15.2,21.8-2.4,67.3-23.6,79.4-19.5,11.1-59.8,6.2-81.4,2.4,7.7-22.5,5.4-48.9,12.4-69.6,5.1-15,37-61.9,48.1-62.7Z" transform="translate(26.1 235.9)" stroke="#000" stroke-miterlimit="10"/>
    <g id="branches">
      <g>
        <path d="M2001.1-41.2c-.2-2.4-3.2-1.8-5.2-2.3C1996.1-41,1999.1-41.7,2001.1-41.2Z" transform="translate(26.1 235.9)" stroke="#000" stroke-miterlimit="10" fill-rule="evenodd"/>
        <path d="M1836.8,189.2c.6-4-11.9-3.5-7.4,2.9q5.1,1.5,7.4-2.9C1837.6,184.3,1835.3,189.4,1836.8,189.2Z" transform="translate(26.1 235.9)" stroke="#000" stroke-miterlimit="10" fill-rule="evenodd"/>
        <path d="M1929.7,328c-.2-2.4-3.2-1.8-5.2-2.3C1924.8,328.2,1927.8,327.5,1929.7,328Z" transform="translate(26.1 235.9)" stroke="#000" stroke-miterlimit="10" fill-rule="evenodd"/>
        <path d="M1934.5,370.6c-.6-2.9-4.7-1.9-7.7-2.1C1927.4,371.4,1931.5,370.4,1934.5,370.6Z" transform="translate(26.1 235.9)" stroke="#000" stroke-miterlimit="10" fill-rule="evenodd"/>
        <path d="M2025.4-201.3c8.8,5.3,14.7,13.8,23.7,18.9C2050.7-178.9,2037.3-202.2,2025.4-201.3Z" transform="translate(26.1 235.9)" stroke="#000" stroke-miterlimit="10" fill-rule="evenodd"/>
        <path d="M1974.5,366c-8.9-6.3-34,5.9-34.9,6.9C1955.9,374.7,1958.3,364.1,1974.5,366Z" transform="translate(26.1 235.9)" stroke="#000" stroke-miterlimit="10" fill-rule="evenodd"/>
        <path d="M2639.4,128.4c5.8,0,47.5,15.7,46.1,17.2,6.1-6.7-40.6-20.5-41.3-20.5,2.5-1,29.9-6.6,28.4-10.7-3.6-9.7-52.5,21.3-57.4,25.9.7-1.5,7.4-44.1,10.9-41.3-4.1-3.4-21.2,48.8-23.3,51.6-4.1,5.4-55.5,52.4-47.6,61.5-5.7-6.6,68.4-83.8,84.3-83.8Z" transform="translate(26.1 235.9)" stroke="#000" stroke-miterlimit="10"/>
        <path d="M2374,244.2c5.1-19.8,9.6-16.3,21-26.2,2.2-1.9,17.9-1.6,17.1-5.6-2.7-13.5-37.5,18.8-39,23-.8-3.2-19.1-68.3-11-65.7-14.2-4.5,8.4,71.3,8.4,74.6.4,33.2-27.2,34.8-43.8,59.1-.9-4.4-6.2-40.3-13.1-36.7-1.9,1,11.7,35.1,11,42.3-.5,5.4-24.4,49.4-24.1,49.7,8.3,6.4,28.7-54,32.2-58.1,6.6-7.6,54.2-15,54.5-25.4,0-1-41.9,14.1-45.5,13.9,18.6-20.1,29-11.2,32.2-44.8C2376.9,233.3,2373.4,251,2374,244.2Z" transform="translate(26.1 235.9)" stroke="#000" stroke-miterlimit="10"/>
        <path d="M2250,369.3c37.8,2.7,73.3-20.5,94.6-48.7,13.7-18.1,12.8-19.2,32.9-28.2,22.8-10.3,33.1-26.9,50.7-44C2454.4,223,2491,204,2530,206.1c23.1,1.2,41,12.9,55.2,25.7,3.3,3,32.4,36.5,36.8,28.5-1.3,2.5-34.2-31.3-35.8-35.9q6.4,6.1,12.1,2.4c1-2.8-43.4-18.2-45.2-18.7-21.9-6-42.7-3.6-64.8,1.1-40.9,8.7-58.2,37.1-86.3,64.2-14.2,13.7-32.4,13-46.3,24.4s-21.9,36.2-39.2,48.2c-10.2,7-58.3,24-66.5,23.4Z" transform="translate(26.1 235.9)" stroke="#000" stroke-miterlimit="10"/>
        <path d="M2506.8,309.6c20.1-3.7,18.8,1.8,32.6,8,2.6,1.2,9.1,15.6,12.3,13.1,11.1-8.1-32.9-26.1-37.3-25.6,2.6-2.1,53.7-46.2,54.8-37.8-1.9-14.8-61,37.7-64,39.2-29.9,14.4-43-10-72.1-14.8,3.6-2.6,33.9-22.6,27.7-27.4-1.7-1.3-26.8,25.4-33.6,27.9-5.1,1.8-55-1.3-55.1-.9-2.3,10.2,61,3.2,66.3,4.7,9.7,2.7,36.5,42.9,46,38.7,0,0-29.7-30.1-31.9-35.4,26,8.4,22.4,21.6,54.2,10.3C2517.9,307.5,2500.4,311.9,2506.8,309.6Z" transform="translate(26.1 235.9)" stroke="#000" stroke-miterlimit="10"/>
        <path d="M2425.8,348.2c4.4,3.7,26.3,42.6,24.3,42.8,9-1.2-17.9-41.8-18.5-42.3,2.6.8,27.1,14.2,28.6,10.1,3.5-9.8-53.9-17.5-60.6-17.1,1.5-.7,34-29,34.8-24.6-1.7-9.1-43.7,24.3-44.6,24.6-7.9,2.6-82.6,2.2-82.4,16.5-.1-8.7,106.2-20.2,118.4-9.9Z" transform="translate(26.1 235.9)" stroke="#000" stroke-miterlimit="10"/>
        <path d="M2443.3,139.1c2.7-3.6,52.3-30.9,41.8-38.2,5.3,3.7-36.9,28.9-39.7,31,3.4-11.2,14.9-19.8,17.3-29.1,1.2-4.7-2.1-37.4-6.9-36.3s4.3,26.7,4.2,27.3c-1.9,12.1-7.8,10.6-12.1,20.2-8.9,19.8-9.8,43.1-20.3,62.3-.4-2.4-23.9-45.9-17.7-44.8-12.5-2.3,10.9,38,10.9,38.6,2.1,20.3-9.4,15.9-17.7,34.1-3.2,7-32.3,95.6-39.7,90.4,3.5,2.4,75.3-140.1,79.9-155.5C2445.7,135.8,2441.4,145.4,2443.3,139.1Z" transform="translate(26.1 235.9)" stroke="#000" stroke-miterlimit="10"/>
        <path d="M2286.3,239c3.8-4.4,43-25.6,43.2-23.6-1.1-9-42.1,17.2-42.6,17.8.9-2.6,14.7-26.9,10.6-28.4-9.7-3.7-18.4,53.6-18.2,60.3-.7-1.5-28.4-34.6-24-35.3-9.1,1.5,23.5,44.2,23.8,45.1,2.5,7.9.8,82.7,15,82.7-8.7,0-18.3-106.6-7.9-118.6Z" transform="translate(26.1 235.9)" stroke="#000" stroke-miterlimit="10"/>
        <path d="M2511,127.9c5.1-19.8,9.6-16.3,21-26.2,2.2-1.9,17.9-1.6,17.1-5.6-2.7-13.5-37.5,18.8-39,23-.8-3.2-19.1-68.3-11-65.7-14.2-4.5,8.4,71.3,8.4,74.6.4,33.2-27.2,34.8-43.8,59.1-.9-4.4-6.2-40.3-13.1-36.7-1.9,1,11.7,35.1,11,42.3-.5,5.4-24.4,49.4-24.1,49.7,8.3,6.4,28.7-54,32.2-58.1,6.6-7.6,54.2-15,54.5-25.4,0-1-41.9,14.1-45.5,13.9,18.6-20.1,29-11.2,32.2-44.8C2513.8,117,2510.3,134.8,2511,127.9Z" transform="translate(26.1 235.9)" stroke="#000" stroke-miterlimit="10"/>
        <path d="M2412.9,443.8c19,7.5,15,11.5,23.4,24.1,1.6,2.4-.6,18,3.5,17.7,13.7-1-14.1-39.6-18-41.5,3.3-.4,70-10.7,66.5-3,6.2-13.6-71.7-.4-75-.7-32.9-3.7-31.2-31.3-53.3-50.7,4.4-.3,40.7-1.2,38-8.5-.7-2-36.2,7.3-43.3,5.8-5.3-1.2-46-30.3-46.3-30-7.4,7.4,50.1,35,53.7,39.1,6.7,7.4,8.2,55.7,18.5,57.2,1,.2-8.9-43.3-8.3-46.9,17.6,20.9,7.6,30.2,40.5,37.5C2423.4,447.9,2406.2,442.3,2412.9,443.8Z" transform="translate(26.1 235.9)" stroke="#000" stroke-miterlimit="10"/>
        <path d="M1841.6,90.5c-5.7.6-45.6,20.6-44.1,21.9-6.8-6,38.2-24.6,39-24.7-2.6-.8-30.4-3.4-29.3-7.6,2.6-10.1,54.5,15.7,59.8,19.7-.8-1.4-12-43.1-15.1-39.9,6.2-6.3,21.2,42.7,23.3,45.4,5,6.4,67.5,47.7,59.1,59.8,5-7.2-76.7-76.1-92.6-74.5Z" transform="translate(26.1 235.9)" stroke="#000" stroke-miterlimit="10"/>
        <path d="M2117.6,177.9c-7.1-19.1-11.2-15.2-23.6-23.9-2.3-1.6-18,.2-17.6-3.8,1.3-13.7,39.3,14.8,41.1,18.8.5-3.3,11.9-69.9,4.1-66.5,13.7-6-.9,71.8-.6,75.1,3.1,33,30.7,31.8,49.8,54.2.4-4.4,1.9-40.7,9.2-37.9,2,.8-7.9,36.1-6.5,43.2,1.1,5.3,29.4,46.6,29.1,46.9-7.5,7.3-34.1-50.7-38.1-54.5-7.3-6.9-55.5-9.2-56.8-19.6-.1-1,43.1,9.6,46.7,9.1-20.6-18-30-8.1-36.7-41.2C2113.7,167.3,2119,184.6,2117.6,177.9Z" transform="translate(26.1 235.9)" stroke="#000" stroke-miterlimit="10"/>
        <path d="M2254,289.4c-34.2,6.1-71.1-11-93.4-33.8-13.4-13.7-18.5-22.1-35-28.8-25.1-10.2-35.2-20.1-57-36.8-30.9-23.7-69.3-39.5-110.1-33.7-10.8,1.5-27.1,8.3-35.7,14.5-11.5,8.2-9.8,11.4-18.1,20.8-3.1,3.5-28,34-32,28.2,1.6,2.3,30.7-34.7,31.8-39.5q-5.7,6.8-11.8,3.6c-1.3-2.7,41.2-22.7,43-23.4,21.2-8.2,42.1-8,64.6-5.7,41.6,4.4,61.8,30.8,92.5,54.8,15.6,12.2,33.6,9.5,48.6,19.5s25.5,33.8,44,43.9c10.8,5.9,60.5,17.7,68.6,16.3Z" transform="translate(26.1 235.9)" stroke="#000" stroke-miterlimit="10"/>
        <path d="M1992.4,256.8c-20.3-1.6-18.5,3.7-31.6,11.3-2.5,1.4-7.4,16.4-10.9,14.4-11.8-6.9,30-29.4,34.4-29.4-2.8-1.8-58.3-40.3-58.5-31.8.4-14.9,64.6,31.1,67.8,32.3,31.2,11.2,41.7-14.4,70.1-22.2-3.8-2.3-36.1-19-30.4-24.3,1.6-1.5,29.3,22.5,36.4,24.2,5.3,1.3,54.6-7,54.7-6.6,3.4,9.9-60.3,9.5-65.4,11.6-9.3,3.7-31.8,46.5-41.7,43.3,0,0,26.4-33.1,28-38.5-25,11.1-20.1,23.8-52.9,15.9C1981.2,255.9,1999.1,258.4,1992.4,256.8Z" transform="translate(26.1 235.9)" stroke="#000" stroke-miterlimit="10"/>
        <path d="M2077,286.7c-4,4.2-21.7,45.1-19.7,45.2-9.1-.3,13.4-43.4,14-44-2.5,1.1-25.5,17-27.4,13-4.5-9.4,51.8-23,58.5-23.4-1.5-.6-36.9-25.3-37.2-20.8.7-9.2,46,19.6,47,19.8,8.1,1.8,82.4-6.5,83.6,7.8-.8-8.7-107.7-9-118.7,2.5Z" transform="translate(26.1 235.9)" stroke="#000" stroke-miterlimit="10"/>
        <path d="M2037.8,80.6c-3-3.3-55.2-25.2-45.6-33.6-4.9,4.3,39.7,24.8,42.7,26.7-4.5-10.8-16.9-18.1-20.3-27.1-1.7-4.5-1.8-37.4,3.1-36.8s-1.5,27-1.3,27.6c3.2,11.8,8.9,9.7,14.2,18.8,11,18.7,14.2,41.8,26.7,59.8.2-2.5,19-48.2,13-46.4,12.2-3.6-6.9,38.9-6.9,39.5,0,20.4,11,14.9,21.2,32.1,3.9,6.6,42.1,91.7,48.9,85.7-3.2,2.8-89.5-131.4-95.7-146.3C2035.1,77.6,2040.3,86.7,2037.8,80.6Z" transform="translate(26.1 235.9)" stroke="#000" stroke-miterlimit="10"/>
        <path d="M2204.3,163.6c-4.2-3.9-45.4-20.9-45.5-18.9.1-9.1,43.6,12.7,44.2,13.2-1.1-2.5-17.4-25.2-13.5-27.2,9.3-4.7,23.9,51.4,24.4,58.1.5-1.5,24.6-37.3,20.2-37.6,9.2.6-18.7,46.4-18.9,47.3-1.6,8.1,7.9,82.3-6.3,83.8,8.7-.9,7-107.9-4.6-118.8Z" transform="translate(26.1 235.9)" stroke="#000" stroke-miterlimit="10"/>
        <path d="M1969.3,76.6c-7.1-19.1-11.2-15.2-23.6-23.9-2.3-1.6-18,.2-17.6-3.8,1.3-13.7,39.3,14.8,41.1,18.8.5-3.3,11.9-69.9,4.1-66.5,13.7-6-.9,71.8-.6,75.1,3.1,33,30.7,31.8,49.8,54.2.4-4.4,1.9-40.7,9.2-37.9,2,.8-7.9,36.1-6.5,43.2,1.1,5.3,29.4,46.6,29.1,46.9-7.5,7.3-34.1-50.7-38.1-54.5-7.3-6.9-55.5-9.2-56.8-19.6-.1-1,43.1,9.6,46.7,9.1-20.6-18-30-8.1-36.7-41.2C1965.4,66,1970.7,83.3,1969.3,76.6Z" transform="translate(26.1 235.9)" stroke="#000" stroke-miterlimit="10"/>
        <path d="M2099.8,380.5c-18.1,9.4-13.7,13-20.8,26.4-1.3,2.5,2.4,17.8-1.6,18-13.7.4,9.9-40.8,13.6-43.2-3.3,0-70.8-3.3-66.5,4-7.6-12.9,71.3-7.9,74.6-8.6,32.4-7.1,27.8-34.4,47.7-56-4.4.1-40.6,3-38.7-4.5.5-2.1,36.8,3.5,43.6,1.2,5.2-1.7,42.6-34.9,42.9-34.6,8.1,6.6-46.1,40.1-49.4,44.5-5.9,8.1-2.4,56.3-12.5,58.8-1,.3,4.3-44,3.3-47.5-15.3,22.7-4.4,30.8-36.4,41.5C2089.8,385.7,2106.3,378.3,2099.8,380.5Z" transform="translate(26.1 235.9)" stroke="#000" stroke-miterlimit="10"/>
        <path d="M2599.2,238.7c5.8,0,47.5,15.7,46.1,17.2,6.1-6.7-40.6-20.5-41.3-20.5,2.5-1,29.9-6.6,28.4-10.7-3.6-9.7-52.5,21.3-57.4,25.9.7-1.5,7.4-44.1,10.9-41.3-4.1-3.4-21.2,48.8-23.3,51.6-4.1,5.4-55.5,52.4-47.6,61.5-5.7-6.6,68.4-83.8,84.3-83.8Z" transform="translate(26.1 235.9)" stroke="#000" stroke-miterlimit="10"/>
        <path d="M2333.9,354.5c5.1-19.8,9.6-16.3,21-26.2,2.2-1.9,17.9-1.6,17.1-5.6-2.7-13.5-37.5,18.8-39,23-.8-3.2-19.1-68.3-11-65.7-14.2-4.5,8.4,71.3,8.4,74.6.4,33.2-27.2,34.8-43.8,59.1-.9-4.4-6.2-40.3-13.1-36.7-1.9,1,11.7,35.1,11,42.3-.5,5.4-24.4,49.4-24.1,49.7,8.3,6.4,28.7-54,32.2-58.1,6.6-7.6,54.2-15,54.5-25.4,0-1-41.9,14.1-45.5,13.9,18.6-20.1,29-11.2,32.2-44.8C2336.7,343.5,2333.2,361.3,2333.9,354.5Z" transform="translate(26.1 235.9)" stroke="#000" stroke-miterlimit="10"/>
        <path d="M2209.8,479.6c37.8,2.7,73.3-20.5,94.6-48.7,13.7-18.1,12.8-19.2,32.9-28.2,22.8-10.3,33.1-26.9,50.7-44,26.2-25.4,62.8-44.4,101.8-42.4,23.1,1.2,41,12.9,55.2,25.7,3.3,3,32.4,36.5,36.8,28.5-1.3,2.5-34.2-31.3-35.8-35.9q6.4,6.1,12.1,2.4c1-2.8-43.4-18.2-45.2-18.7-21.9-6-42.7-3.6-64.8,1.1-40.9,8.7-58.2,37.1-86.3,64.2-14.2,13.7-32.4,13-46.3,24.4s-21.9,36.2-39.2,48.2c-10.2,7-58.3,24-66.5,23.4Z" transform="translate(26.1 235.9)" stroke="#000" stroke-miterlimit="10"/>
        <path d="M2466.7,419.9c20.1-3.7,18.8,1.8,32.6,8,2.6,1.2,9.1,15.6,12.3,13.1,11.1-8.1-32.9-26.1-37.3-25.6,2.6-2.1,53.7-46.2,54.8-37.8-1.9-14.8-61,37.7-64,39.2-29.9,14.4-43-10-72.1-14.8,3.6-2.6,33.9-22.6,27.7-27.4-1.7-1.3-26.8,25.4-33.6,27.9-5.1,1.8-55-1.3-55.1-.9-2.3,10.2,61,3.2,66.3,4.7,9.7,2.7,36.5,42.9,46,38.7,0,0-29.7-30.1-31.9-35.4,26,8.4,22.4,21.6,54.2,10.3C2477.7,417.8,2460.2,422.1,2466.7,419.9Z" transform="translate(26.1 235.9)" stroke="#000" stroke-miterlimit="10"/>
        <path d="M2385.6,458.5c4.4,3.7,26.3,42.6,24.3,42.8,9-1.2-17.9-41.8-18.5-42.3,2.6.8,27.1,14.2,28.6,10.1,3.5-9.8-53.9-17.5-60.6-17.1,1.5-.7,34-29,34.8-24.6-1.7-9.1-43.7,24.3-44.6,24.6-7.9,2.6-82.6,2.2-82.4,16.5-.1-8.7,106.2-20.2,118.4-9.9Z" transform="translate(26.1 235.9)" stroke="#000" stroke-miterlimit="10"/>
        <path d="M2403.1,249.3c2.7-3.6,52.3-30.9,41.8-38.2,5.3,3.7-36.9,28.9-39.7,31,3.4-11.2,14.9-19.8,17.3-29.1,1.2-4.7-2.1-37.4-6.9-36.3s4.3,26.7,4.2,27.3c-1.9,12.1-7.8,10.6-12.1,20.2-8.9,19.8-9.8,43.1-20.3,62.3-.4-2.4-23.9-45.9-17.7-44.8-12.5-2.3,10.9,38,10.9,38.6,2.1,20.3-9.4,15.9-17.7,34.1-3.2,7-32.3,95.6-39.7,90.4,3.5,2.4,75.3-140.1,79.9-155.5C2405.5,246.1,2401.2,255.6,2403.1,249.3Z" transform="translate(26.1 235.9)" stroke="#000" stroke-miterlimit="10"/>
        <path d="M2246.1,349.3c3.8-4.4,43-25.6,43.2-23.6-1.1-9-42.1,17.2-42.6,17.8.9-2.6,14.7-26.9,10.6-28.4-9.7-3.7-18.4,53.6-18.2,60.3-.7-1.5-28.4-34.6-24-35.3-9.1,1.5,23.5,44.2,23.8,45.1,2.5,7.9.8,82.7,15,82.7-8.7,0-18.3-106.6-7.9-118.6Z" transform="translate(26.1 235.9)" stroke="#000" stroke-miterlimit="10"/>
        <path d="M2470.8,238.2c5.1-19.8,9.6-16.3,21-26.2,2.2-1.9,17.9-1.6,17.1-5.6-2.7-13.5-37.5,18.8-39,23-.8-3.2-19.1-68.3-11-65.7-14.2-4.5,8.4,71.3,8.4,74.6.4,33.2-27.2,34.8-43.8,59.1-.9-4.4-6.2-40.3-13.1-36.7-1.9,1,11.7,35.1,11,42.3-.5,5.4-24.4,49.4-24.1,49.7,8.3,6.4,28.7-54,32.2-58.1,6.6-7.6,54.2-15,54.5-25.4,0-1-41.9,14.1-45.5,13.9,18.6-20.1,29-11.2,32.2-44.8C2473.6,227.3,2470.1,245,2470.8,238.2Z" transform="translate(26.1 235.9)" stroke="#000" stroke-miterlimit="10"/>
        <path d="M1699.3,283.5c-5.7.6-45.6,20.6-44.1,21.9-6.8-6,38.2-24.6,39-24.7-2.6-.8-30.4-3.4-29.3-7.6,2.6-10.1,54.5,15.7,59.8,19.7-.8-1.4-12-43.1-15.1-39.9,6.2-6.3,21.2,42.7,23.3,45.4,5,6.4,67.5,47.7,59.1,59.8,5-7.2-76.7-76.1-92.6-74.5Z" transform="translate(26.1 235.9)" stroke="#000" stroke-miterlimit="10"/>
        <path d="M1975.3,370.9c-7.1-19.1-11.2-15.2-23.6-23.9-2.3-1.6-18,.2-17.6-3.8,1.3-13.7,39.3,14.8,41.1,18.8.5-3.3,11.9-69.9,4.1-66.5,13.7-6-.9,71.8-.6,75.1,3.1,33,30.7,31.8,49.8,54.2.4-4.4,1.9-40.7,9.2-37.9,2,.8-7.9,36.1-6.5,43.2,1.1,5.3,29.4,46.6,29.1,46.9-7.5,7.3-34.1-50.7-38.1-54.5-7.3-6.9-55.5-9.2-56.8-19.6-.1-1,43.1,9.6,46.7,9.1-20.6-18-30-8.1-36.7-41.2C1971.3,360.3,1976.6,377.6,1975.3,370.9Z" transform="translate(26.1 235.9)" stroke="#000" stroke-miterlimit="10"/>
        <path d="M2111.7,482.3c-34.2,6.1-71.1-11-93.4-33.8-13.4-13.7-18.5-22.1-35-28.8-25.1-10.2-35.2-20.1-57-36.8-30.9-23.7-69.3-39.5-110.1-33.7-10.8,1.5-27.1,8.3-35.7,14.5-11.5,8.2-9.8,11.4-18.1,20.8-3.1,3.5-28,34-32,28.2,1.6,2.3,30.7-34.7,31.8-39.5q-5.7,6.8-11.8,3.6c-1.3-2.7,41.2-22.7,43-23.4,21.2-8.2,42.1-8,64.6-5.7,41.6,4.4,61.8,30.8,92.5,54.8,15.6,12.2,33.6,9.5,48.6,19.5s25.5,33.8,44,43.9c10.8,5.9,60.5,17.7,68.6,16.3Z" transform="translate(26.1 235.9)" stroke="#000" stroke-miterlimit="10"/>
        <path d="M1850.1,449.8c-20.3-1.6-18.5,3.7-31.6,11.3-2.5,1.4-7.4,16.4-10.9,14.4-11.8-6.9,30-29.4,34.4-29.4-2.8-1.8-58.3-40.3-58.5-31.8.4-14.9,64.6,31.1,67.8,32.3,31.2,11.2,41.7-14.4,70.1-22.2-3.8-2.3-36.1-19-30.4-24.3,1.6-1.5,29.3,22.5,36.4,24.2,5.3,1.3,54.6-7,54.7-6.6,3.4,9.9-60.3,9.5-65.4,11.6-9.3,3.7-31.8,46.5-41.7,43.3,0,0,26.4-33.1,28-38.5-25,11.1-20.1,23.8-52.9,15.9C1838.8,448.9,1856.7,451.4,1850.1,449.8Z" transform="translate(26.1 235.9)" stroke="#000" stroke-miterlimit="10"/>
        <path d="M1934.7,479.7c-4,4.2-21.7,45.1-19.7,45.2-9.1-.3,13.4-43.4,14-44-2.5,1.1-25.5,17-27.4,13-4.5-9.4,51.8-23,58.5-23.4-1.5-.6-36.9-25.3-37.2-20.8.7-9.2,46,19.6,47,19.8,8.1,1.8,82.4-6.5,83.6,7.8-.8-8.7-107.7-9-118.7,2.5Z" transform="translate(26.1 235.9)" stroke="#000" stroke-miterlimit="10"/>
        <path d="M1895.4,273.5c-3-3.3-55.2-25.2-45.6-33.6-4.9,4.3,39.7,24.8,42.7,26.7-4.5-10.8-16.9-18.1-20.3-27.1-1.7-4.5-1.8-37.4,3.1-36.8s-1.5,27-1.3,27.6c3.2,11.8,8.9,9.7,14.2,18.8,11,18.7,14.2,41.8,26.7,59.8.2-2.5,19-48.2,13-46.4,12.2-3.6-6.9,38.9-6.9,39.5,0,20.4,11,14.9,21.2,32.1,3.9,6.6,42.1,91.7,48.9,85.7-3.2,2.8-89.5-131.4-95.7-146.3C1892.7,270.6,1898,279.6,1895.4,273.5Z" transform="translate(26.1 235.9)" stroke="#000" stroke-miterlimit="10"/>
        <path d="M2062,356.5c-4.2-3.9-45.4-20.9-45.4-18.9.1-9.1,43.6,12.7,44.2,13.2-1.1-2.5-17.4-25.2-13.5-27.2,9.3-4.7,23.9,51.4,24.4,58.1.5-1.5,24.6-37.3,20.2-37.6,9.2.6-18.8,46.4-18.9,47.3-1.6,8.1,7.9,82.3-6.3,83.8,8.7-.9,7-107.9-4.6-118.8Z" transform="translate(26.1 235.9)" stroke="#000" stroke-miterlimit="10"/>
        <path d="M1827,269.6c-7.1-19.1-11.2-15.2-23.6-23.9-2.3-1.6-18,.2-17.6-3.8,1.3-13.7,39.3,14.8,41.1,18.8.5-3.3,11.9-69.9,4.1-66.5,13.7-6-.9,71.8-.6,75.1,3.1,33,30.7,31.8,49.8,54.2.4-4.4,1.9-40.7,9.2-37.9,2,.8-7.9,36.1-6.5,43.2,1.1,5.3,29.4,46.6,29.1,46.9-7.5,7.3-34.1-50.7-38.1-54.5-7.3-6.9-55.5-9.2-56.8-19.6-.1-1,43.1,9.6,46.7,9.1-20.6-18-30-8.1-36.7-41.2C1823,259,1828.3,276.3,1827,269.6Z" transform="translate(26.1 235.9)" stroke="#000" stroke-miterlimit="10"/>
        <path d="M1957.5,573.4c-18.1,9.4-13.7,13-20.8,26.4-1.3,2.5,2.4,17.8-1.6,18-13.7.4,9.9-40.8,13.6-43.2-3.3,0-70.8-3.3-66.5,4-7.6-12.9,71.3-7.9,74.6-8.6,32.4-7.1,27.8-34.4,47.7-56-4.4.1-40.6,3-38.7-4.5.5-2.1,36.8,3.5,43.6,1.2,5.1-1.7,42.6-34.9,42.9-34.6,8.1,6.6-46.1,40.1-49.4,44.5-5.9,8.1-2.4,56.3-12.5,58.8-1,.3,4.3-44,3.3-47.5-15.3,22.7-4.4,30.8-36.4,41.5C1947.5,578.6,1964,571.3,1957.5,573.4Z" transform="translate(26.1 235.9)" stroke="#000" stroke-miterlimit="10"/>
        <path d="M1508.8-64.8c-5.7.6-45.6,20.6-44.1,21.9-6.8-6,38.2-24.6,39-24.7-2.6-.8-30.4-3.4-29.3-7.6,2.6-10.1,54.5,15.7,59.8,19.7-.8-1.4-12-43.1-15.1-39.9,6.2-6.3,21.2,42.7,23.3,45.4,5,6.4,67.5,47.7,59.1,59.8,5-7.2-76.7-76.1-92.6-74.5Z" transform="translate(26.1 235.9)" stroke="#000" stroke-miterlimit="10"/>
        <path d="M1784.8,22.6c-7.1-19.1-11.2-15.2-23.6-23.9-2.3-1.6-18,.2-17.6-3.8,1.3-13.7,39.3,14.8,41.1,18.8.5-3.3,11.9-69.9,4.1-66.5,13.7-6-.9,71.8-.6,75.1,3.1,33,30.7,31.8,49.8,54.2.4-4.4,1.9-40.7,9.2-37.9,2,.8-7.9,36.1-6.5,43.2,1.1,5.3,29.4,46.6,29.1,46.9-7.5,7.3-34.1-50.7-38.1-54.5-7.3-6.9-55.5-9.2-56.8-19.6-.1-1,43.1,9.6,46.7,9.1-20.6-18-30-8.1-36.7-41.2C1780.9,12,1786.2,29.3,1784.8,22.6Z" transform="translate(26.1 235.9)" stroke="#000" stroke-miterlimit="10"/>
        <path d="M1921.2,134c-34.2,6.1-71.1-11-93.4-33.8-13.4-13.7-18.5-22.1-35-28.8-25.1-10.2-35.2-20.1-57-36.8C1704.9,10.9,1666.5-4.8,1625.7,1c-10.8,1.5-27.1,8.3-35.7,14.5-11.5,8.2-9.8,11.4-18.1,20.8-3.1,3.5-28,34-32,28.2,1.6,2.3,30.7-34.7,31.8-39.5q-5.7,6.8-11.8,3.6c-1.3-2.7,41.2-22.7,43-23.4,21.2-8.2,42.1-8,64.6-5.7,41.6,4.4,61.8,30.8,92.5,54.8,15.6,12.2,33.6,9.5,48.6,19.5s25.5,33.8,44,43.9c10.8,5.9,60.5,17.7,68.6,16.3Z" transform="translate(26.1 235.9)" stroke="#000" stroke-miterlimit="10"/>
        <path d="M1659.6,101.5c-20.3-1.6-18.5,3.7-31.6,11.3-2.5,1.4-7.4,16.4-10.9,14.4-11.8-6.9,30-29.4,34.4-29.4-2.8-1.8-58.3-40.3-58.5-31.8.4-14.9,64.6,31.1,67.8,32.3,31.2,11.2,41.7-14.4,70.1-22.2-3.8-2.3-36.1-19-30.4-24.3,1.6-1.5,29.3,22.5,36.4,24.2,5.3,1.3,54.6-7,54.7-6.6,3.4,9.9-60.3,9.5-65.4,11.6-9.3,3.7-31.8,46.5-41.7,43.3,0,0,26.4-33.1,28-38.5-25,11.1-20.1,23.8-52.9,15.9C1648.4,100.6,1666.3,103.1,1659.6,101.5Z" transform="translate(26.1 235.9)" stroke="#000" stroke-miterlimit="10"/>
        <path d="M1744.2,131.4c-4,4.2-21.7,45.1-19.7,45.2-9.1-.3,13.4-43.4,14-44-2.5,1.1-25.5,17-27.4,13-4.5-9.4,51.8-23,58.5-23.4-1.5-.6-36.9-25.3-37.2-20.8.7-9.2,46,19.6,47,19.8,8.1,1.8,82.4-6.5,83.6,7.8-.8-8.7-107.7-9-118.7,2.5Z" transform="translate(26.1 235.9)" stroke="#000" stroke-miterlimit="10"/>
        <path d="M1705-74.7c-3-3.3-55.2-25.2-45.6-33.6-4.9,4.3,39.7,24.8,42.7,26.7-4.5-10.8-16.9-18.1-20.3-27.1-1.7-4.5-1.8-37.4,3.1-36.8s-1.5,27-1.3,27.6c3.2,11.8,8.9,9.7,14.2,18.8,11,18.7,14.2,41.8,26.7,59.8.2-2.5,19-48.2,13-46.4,12.2-3.6-6.9,38.9-6.9,39.5,0,20.4,11,14.9,21.2,32.1,3.9,6.6,42.1,91.7,48.9,85.7-3.2,2.8-89.5-131.4-95.7-146.3C1702.3-77.7,1707.5-68.7,1705-74.7Z" transform="translate(26.1 235.9)" stroke="#000" stroke-miterlimit="10"/>
        <path d="M1871.5,8.2c-4.2-3.9-45.4-20.9-45.5-18.9.1-9.1,43.6,12.7,44.2,13.2-1.1-2.5-17.4-25.2-13.5-27.2,9.3-4.7,23.9,51.4,24.4,58.1.5-1.5,24.6-37.3,20.2-37.6,9.2.6-18.7,46.4-18.9,47.3-1.6,8.1,7.9,82.3-6.3,83.8,8.7-.9,7-107.9-4.6-118.8Z" transform="translate(26.1 235.9)" stroke="#000" stroke-miterlimit="10"/>
        <path d="M1636.5-78.7c-7.1-19.1-11.2-15.2-23.6-23.9-2.3-1.6-18,.2-17.6-3.8,1.3-13.7,39.3,14.8,41.1,18.8.5-3.3,11.9-69.9,4.1-66.5,13.7-6-.9,71.8-.6,75.1,3.1,33,30.7,31.8,49.8,54.2.4-4.4,1.9-40.7,9.2-37.9,2,.8-7.9,36.1-6.5,43.2,1.1,5.3,29.4,46.6,29.1,46.9-7.5,7.3-34.1-50.7-38.1-54.5-7.3-6.9-55.5-9.2-56.8-19.6-.1-1,43.1,9.6,46.7,9.1-20.6-18-30-8.1-36.7-41.2C1632.6-89.3,1637.9-72,1636.5-78.7Z" transform="translate(26.1 235.9)" stroke="#000" stroke-miterlimit="10"/>
        <path d="M1767,225.1c-18.1,9.4-13.7,13-20.8,26.4-1.3,2.5,2.4,17.8-1.6,18-13.7.4,9.9-40.8,13.6-43.2-3.3,0-70.8-3.3-66.5,4-7.6-12.9,71.3-7.9,74.6-8.6,32.4-7.1,27.8-34.4,47.7-56-4.4.1-40.6,3-38.7-4.5.5-2.1,36.8,3.5,43.6,1.2,5.2-1.7,42.6-34.9,42.9-34.6,8.1,6.6-46.1,40.1-49.4,44.5-5.9,8.1-2.4,56.3-12.5,58.8-1,.3,4.3-44,3.3-47.5-15.3,22.7-4.4,30.8-36.4,41.5C1757,230.3,1773.5,223,1767,225.1Z" transform="translate(26.1 235.9)" stroke="#000" stroke-miterlimit="10"/>
        <path d="M2286.7-93c5.8,0,47.5,15.7,46.1,17.2,6.1-6.7-40.6-20.5-41.3-20.5,2.5-1,29.9-6.6,28.4-10.7-3.6-9.7-52.5,21.3-57.4,25.9.7-1.5,7.4-44.1,10.9-41.3-4.1-3.4-21.2,48.8-23.3,51.6-4.1,5.4-55.5,52.4-47.6,61.5-5.7-6.6,68.4-83.8,84.3-83.8Z" transform="translate(26.1 235.9)" stroke="#000" stroke-miterlimit="10"/>
        <path d="M2021.4,22.7c5.1-19.8,9.6-16.3,21-26.2,2.2-1.9,17.9-1.6,17.1-5.6-2.7-13.5-37.5,18.8-39,23-.8-3.2-19.1-68.3-11-65.7-14.2-4.5,8.4,71.3,8.4,74.6.4,33.2-27.2,34.8-43.8,59.1-.9-4.4-6.2-40.3-13.1-36.7-1.9,1,11.7,35.1,11,42.3-.5,5.4-24.4,49.4-24.1,49.7,8.3,6.4,28.7-54,32.2-58.1,6.6-7.6,54.2-15,54.5-25.4,0-1-41.9,14.1-45.5,13.9,18.6-20,29-11.2,32.2-44.8C2024.2,11.8,2020.7,29.6,2021.4,22.7Z" transform="translate(26.1 235.9)" stroke="#000" stroke-miterlimit="10"/>
        <path d="M1897.3,147.8c37.8,2.7,73.3-20.5,94.6-48.7C2005.6,81,2004.7,80,2024.8,71c22.8-10.3,33.1-26.9,50.7-44,26.2-25.4,62.8-44.4,101.8-42.4,23.1,1.2,41,12.9,55.2,25.7,3.3,3,32.4,36.5,36.8,28.5-1.3,2.5-34.2-31.3-35.8-35.9q6.4,6.1,12.1,2.4c1-2.8-43.4-18.2-45.2-18.7-21.9-6-42.7-3.6-64.9,1.1-40.9,8.7-58.2,37.1-86.3,64.2-14.2,13.7-32.4,13-46.3,24.4s-21.9,36.2-39.2,48.2c-10.2,7-58.3,24-66.5,23.4Z" transform="translate(26.1 235.9)" stroke="#000" stroke-miterlimit="10"/>
        <path d="M2154.2,88.1c20.1-3.7,18.8,1.8,32.6,8,2.6,1.2,9.1,15.6,12.3,13.1,11.1-8.1-32.9-26.1-37.3-25.6,2.6-2.1,53.7-46.2,54.8-37.8-1.9-14.8-61,37.7-64,39.2-29.9,14.4-43-10-72.1-14.8,3.6-2.6,33.9-22.6,27.7-27.4-1.7-1.3-26.8,25.4-33.6,27.9-5.1,1.8-55-1.3-55.1-.9-2.3,10.2,61,3.2,66.3,4.7,9.7,2.7,36.5,42.9,46,38.7,0,0-29.7-30.1-31.9-35.4,26,8.4,22.4,21.6,54.2,10.3C2165.2,86,2147.7,90.4,2154.2,88.1Z" transform="translate(26.1 235.9)" stroke="#000" stroke-miterlimit="10"/>
        <path d="M2073.1,126.7c4.4,3.7,26.3,42.6,24.3,42.8,9-1.2-17.9-41.8-18.5-42.3,2.6.8,27.1,14.2,28.6,10.1,3.5-9.8-53.9-17.5-60.6-17.1,1.5-.7,34-29,34.8-24.6-1.7-9.1-43.7,24.3-44.6,24.6-7.9,2.6-82.6,2.2-82.4,16.5-.1-8.7,106.2-20.2,118.4-9.9Z" transform="translate(26.1 235.9)" stroke="#000" stroke-miterlimit="10"/>
        <path d="M2090.6-82.4c2.7-3.6,52.3-30.9,41.8-38.2,5.3,3.7-36.9,28.9-39.7,31,3.4-11.2,14.9-19.8,17.3-29.1,1.2-4.7-2.1-37.4-6.9-36.3s4.3,26.7,4.2,27.3c-1.9,12.1-7.8,10.6-12.1,20.2-8.9,19.8-9.8,43.1-20.3,62.3-.4-2.4-23.9-45.9-17.7-44.8-12.5-2.3,10.9,38,10.9,38.6,2.1,20.3-9.4,15.9-17.7,34.1-3.2,7-32.3,95.6-39.7,90.4,3.5,2.4,75.3-140.1,79.9-155.5C2093-85.6,2088.7-76.1,2090.6-82.4Z" transform="translate(26.1 235.9)" stroke="#000" stroke-miterlimit="10"/>
        <path d="M1933.6,17.5c3.8-4.4,43-25.6,43.2-23.6-1.1-9-42.1,17.2-42.6,17.8.9-2.6,14.7-26.9,10.6-28.4-9.7-3.7-18.4,53.6-18.2,60.3-.7-1.5-28.4-34.6-24-35.3-9.1,1.5,23.5,44.2,23.8,45.1,2.5,7.9.8,82.7,15,82.7-8.7,0-18.3-106.6-7.9-118.6Z" transform="translate(26.1 235.9)" stroke="#000" stroke-miterlimit="10"/>
        <path d="M2158.3-93.5c5.1-19.8,9.6-16.3,21-26.2,2.2-1.9,17.9-1.6,17.1-5.6-2.7-13.5-37.5,18.8-39,23-.8-3.2-19.1-68.3-11-65.7-14.2-4.5,8.4,71.3,8.4,74.6.4,33.2-27.2,34.8-43.8,59.1-.9-4.4-6.2-40.3-13.1-36.7-1.9,1,11.7,35.1,11,42.3-.5,5.4-24.4,49.4-24.1,49.7,8.3,6.4,28.7-54,32.2-58.1,6.6-7.6,54.2-15,54.5-25.4,0-1-41.9,14.1-45.5,13.9,18.6-20.1,29-11.2,32.2-44.8C2161.1-104.5,2157.6-86.7,2158.3-93.5Z" transform="translate(26.1 235.9)" stroke="#000" stroke-miterlimit="10"/>
        <path d="M2060.2,222.3c19,7.5,15,11.5,23.4,24.1,1.6,2.4-.6,18,3.5,17.7,13.7-1-14.1-39.6-18-41.5,3.3-.4,70-10.7,66.5-3,6.2-13.6-71.7-.4-75-.7-32.9-3.7-31.2-31.3-53.3-50.7,4.4-.4,40.7-1.2,38-8.5-.8-2-36.2,7.3-43.3,5.8-5.3-1.2-46-30.3-46.3-30-7.4,7.4,50.1,35,53.7,39.1,6.7,7.4,8.2,55.7,18.5,57.2,1,.2-8.9-43.3-8.3-46.9,17.6,20.9,7.6,30.2,40.5,37.5C2070.7,226.4,2053.5,220.8,2060.2,222.3Z" transform="translate(26.1 235.9)" stroke="#000" stroke-miterlimit="10"/>
        <path d="M1633.4,67.9c-5.7.6-45.6,20.6-44.1,21.9-6.8-6,38.2-24.6,39-24.7-2.6-.8-30.4-3.4-29.3-7.6,2.6-10.1,54.5,15.7,59.8,19.7-.8-1.4-12-43.1-15.1-39.9,6.2-6.3,21.2,42.7,23.3,45.4,5,6.4,67.5,47.7,59.1,59.8,5-7.2-76.7-76.1-92.6-74.5Z" transform="translate(26.1 235.9)" stroke="#000" stroke-miterlimit="10"/>
        <path d="M1909.4,155.3c-7.1-19.1-11.2-15.2-23.6-23.9-2.3-1.6-18,.2-17.6-3.8,1.3-13.7,39.3,14.8,41.1,18.8.5-3.3,11.9-69.9,4.1-66.5,13.7-6-.9,71.8-.6,75.1,3.1,33,30.7,31.8,49.8,54.2.4-4.4,1.9-40.7,9.2-37.9,2,.8-7.9,36.1-6.5,43.2,1.1,5.3,29.4,46.6,29.1,46.9-7.5,7.3-34.1-50.7-38.1-54.5-7.3-6.9-55.5-9.2-56.8-19.6-.1-1,43.1,9.6,46.7,9.1-20.6-18-30-8.1-36.7-41.2C1905.4,144.7,1910.7,162,1909.4,155.3Z" transform="translate(26.1 235.9)" stroke="#000" stroke-miterlimit="10"/>
        <path d="M2045.8,266.8c-34.2,6.1-71.1-11-93.4-33.8-13.4-13.7-18.5-22.1-35-28.8-25.1-10.2-35.2-20.1-57-36.8-30.9-23.7-69.3-39.5-110.1-33.7-10.8,1.5-27.1,8.3-35.7,14.5-11.5,8.2-9.8,11.4-18.1,20.8-3.1,3.5-28,34-32,28.2,1.6,2.3,30.7-34.7,31.8-39.5q-5.7,6.8-11.8,3.6c-1.3-2.7,41.2-22.7,43-23.4,21.2-8.2,42.1-8,64.6-5.7,41.6,4.4,61.8,30.8,92.5,54.8,15.6,12.2,33.6,9.5,48.6,19.5s25.5,33.8,44,43.9c10.8,5.9,60.5,17.7,68.6,16.3Z" transform="translate(26.1 235.9)" stroke="#000" stroke-miterlimit="10"/>
        <path d="M1784.1,234.2c-20.3-1.6-18.5,3.7-31.6,11.3-2.5,1.4-7.4,16.4-10.9,14.4-11.8-6.9,30-29.4,34.4-29.4-2.8-1.8-58.3-40.3-58.5-31.8.4-14.9,64.6,31.1,67.8,32.3,31.2,11.2,41.7-14.4,70.1-22.2-3.8-2.3-36.1-19-30.4-24.3,1.6-1.5,29.3,22.5,36.4,24.2,5.3,1.3,54.6-7,54.7-6.6,3.4,9.9-60.3,9.5-65.4,11.6-9.3,3.7-31.8,46.5-41.7,43.3,0,0,26.4-33,28-38.5-25,11.1-20.1,23.8-52.9,15.9C1772.9,233.3,1790.8,235.8,1784.1,234.2Z" transform="translate(26.1 235.9)" stroke="#000" stroke-miterlimit="10"/>
        <path d="M1868.8,264.1c-4,4.2-21.7,45.1-19.7,45.2-9.1-.3,13.4-43.4,14-44-2.5,1.1-25.5,17-27.4,13-4.5-9.4,51.8-23,58.5-23.4-1.5-.6-36.9-25.3-37.2-20.8.7-9.2,46,19.6,47,19.8,8.1,1.8,82.4-6.5,83.6,7.8-.8-8.7-107.7-9-118.7,2.5Z" transform="translate(26.1 235.9)" stroke="#000" stroke-miterlimit="10"/>
        <path d="M1829.5,58c-3-3.3-55.2-25.2-45.6-33.6-4.9,4.3,39.7,24.8,42.7,26.7-4.5-10.8-16.9-18.1-20.3-27.1-1.7-4.5-1.8-37.4,3.1-36.8s-1.5,27-1.3,27.6c3.2,11.8,8.9,9.7,14.2,18.8,11,18.7,14.2,41.8,26.7,59.8.2-2.5,19-48.2,13-46.4,12.2-3.6-6.9,38.9-6.9,39.5,0,20.4,11,14.9,21.2,32.1,3.9,6.6,42.1,91.7,48.9,85.7-3.2,2.8-89.5-131.4-95.7-146.3C1826.8,55,1832.1,64,1829.5,58Z" transform="translate(26.1 235.9)" stroke="#000" stroke-miterlimit="10"/>
        <path d="M1996.1,140.9c-4.2-3.9-45.4-20.9-45.4-18.9.1-9.1,43.6,12.7,44.2,13.2-1.1-2.5-17.4-25.2-13.5-27.2,9.3-4.7,23.9,51.4,24.4,58.1.5-1.5,24.6-37.3,20.2-37.6,9.2.6-18.7,46.4-18.9,47.3-1.6,8.1,7.9,82.3-6.3,83.8,8.7-.9,7.1-107.9-4.6-118.8Z" transform="translate(26.1 235.9)" stroke="#000" stroke-miterlimit="10"/>
        <path d="M1761.1,54c-7.1-19.1-11.2-15.2-23.6-23.9-2.3-1.6-18,.2-17.6-3.8,1.3-13.7,39.3,14.8,41.1,18.8.5-3.3,11.9-69.9,4.1-66.5,13.7-6-.9,71.8-.6,75.1,3.1,33,30.7,31.8,49.8,54.2.4-4.4,1.9-40.7,9.2-37.9,2,.8-7.9,36.1-6.5,43.2,1.1,5.3,29.4,46.6,29.1,46.9-7.5,7.3-34.1-50.7-38.1-54.5-7.3-6.9-55.5-9.2-56.8-19.6-.1-1,43.1,9.6,46.7,9.1-20.6-18-30-8.1-36.7-41.2C1757.1,43.4,1762.4,60.7,1761.1,54Z" transform="translate(26.1 235.9)" stroke="#000" stroke-miterlimit="10"/>
        <path d="M1891.6,357.9c-18.1,9.4-13.7,13-20.8,26.4-1.3,2.5,2.4,17.8-1.6,18-13.7.4,9.9-40.8,13.6-43.2-3.3,0-70.8-3.3-66.5,4-7.6-12.9,71.3-7.9,74.6-8.6,32.4-7.1,27.8-34.4,47.7-56-4.4.1-40.6,3-38.7-4.5.5-2.1,36.8,3.5,43.6,1.2,5.2-1.7,42.6-34.9,42.9-34.6,8.1,6.6-46.1,40.1-49.4,44.5-5.9,8.1-2.4,56.3-12.5,58.8-1,.3,4.3-44,3.3-47.5-15.3,22.7-4.4,30.8-36.4,41.5C1881.6,363.1,1898.1,355.7,1891.6,357.9Z" transform="translate(26.1 235.9)" stroke="#000" stroke-miterlimit="10"/>
        <path d="M2463.2-9.4c5.8,0,47.5,15.7,46.1,17.2,6.1-6.7-40.6-20.5-41.3-20.5,2.5-1,29.9-6.6,28.4-10.7-3.6-9.7-52.5,21.3-57.4,25.9.7-1.5,7.4-44.1,10.9-41.3-4.1-3.4-21.2,48.8-23.3,51.6-4.1,5.4-55.5,52.4-47.6,61.5-5.7-6.6,68.4-83.8,84.3-83.8Z" transform="translate(26.1 235.9)" stroke="#000" stroke-miterlimit="10"/>
        <path d="M2197.8,106.4c5.1-19.8,9.6-16.3,21-26.2,2.2-1.9,17.9-1.6,17.1-5.6-2.7-13.5-37.5,18.8-39,23-.8-3.2-19.1-68.3-11-65.7-14.2-4.5,8.4,71.3,8.4,74.6.4,33.2-27.2,34.8-43.8,59.1-.9-4.4-6.2-40.3-13.1-36.7-1.9,1,11.7,35.1,11,42.3-.5,5.4-24.4,49.4-24.1,49.7,8.3,6.4,28.7-54,32.2-58.1,6.6-7.6,54.2-15,54.5-25.4,0-1-41.9,14.1-45.5,13.9,18.6-20.1,29-11.2,32.2-44.8C2200.6,95.4,2197.2,113.2,2197.8,106.4Z" transform="translate(26.1 235.9)" stroke="#000" stroke-miterlimit="10"/>
        <path d="M2073.8,231.5c37.8,2.7,73.3-20.5,94.6-48.7,13.7-18.1,12.8-19.2,32.9-28.2,22.8-10.3,33.1-26.9,50.7-44,26.2-25.4,62.8-44.4,101.8-42.4,23.1,1.2,41,12.9,55.2,25.7,3.3,3,32.4,36.5,36.8,28.5-1.3,2.5-34.2-31.3-35.8-35.9q6.4,6.1,12.1,2.4c1-2.8-43.4-18.2-45.2-18.7-21.9-6-42.7-3.6-64.8,1.1-40.9,8.7-58.2,37.1-86.3,64.2-14.2,13.7-32.4,13-46.3,24.4s-21.9,36.2-39.2,48.2c-10.2,7-58.3,24-66.5,23.4Z" transform="translate(26.1 235.9)" stroke="#000" stroke-miterlimit="10"/>
        <path d="M2330.6,171.7c20.1-3.7,18.8,1.8,32.6,8,2.6,1.2,9.1,15.6,12.3,13.1,11.1-8.1-32.9-26.1-37.3-25.6,2.6-2.1,53.7-46.2,54.8-37.8-1.9-14.8-61,37.7-64,39.2-29.9,14.4-43-10-72.1-14.8,3.6-2.6,33.9-22.6,27.7-27.4-1.7-1.3-26.8,25.4-33.6,27.9-5.1,1.8-55-1.3-55.1-.9-2.3,10.2,61,3.2,66.3,4.7,9.7,2.7,36.5,42.9,46,38.7,0,0-29.7-30.1-31.9-35.4,26,8.4,22.4,21.6,54.2,10.3C2341.7,169.7,2324.2,174,2330.6,171.7Z" transform="translate(26.1 235.9)" stroke="#000" stroke-miterlimit="10"/>
        <path d="M2249.6,210.4c4.4,3.7,26.3,42.6,24.3,42.8,9-1.2-17.9-41.8-18.5-42.3,2.6.8,27.1,14.2,28.6,10.1,3.5-9.8-53.9-17.5-60.6-17.1,1.5-.7,34-29,34.8-24.6-1.7-9.1-43.7,24.3-44.6,24.6-7.9,2.6-82.6,2.2-82.4,16.5-.1-8.7,106.2-20.2,118.4-9.9Z" transform="translate(26.1 235.9)" stroke="#000" stroke-miterlimit="10"/>
        <path d="M2267.1,1.2c2.7-3.6,52.3-30.9,41.8-38.2,5.3,3.7-36.9,28.9-39.7,31,3.4-11.2,14.9-19.8,17.3-29.1,1.2-4.7-2.1-37.4-6.9-36.3s4.3,26.7,4.2,27.3c-1.9,12.1-7.8,10.6-12.1,20.2-8.9,19.8-9.8,43.1-20.3,62.3-.4-2.4-23.9-45.9-17.7-44.8-12.5-2.3,10.9,38,10.9,38.6,2.1,20.3-9.4,15.9-17.7,34.1-3.2,7-32.3,95.6-39.7,90.4,3.5,2.4,75.3-140.1,79.9-155.5C2269.4-2,2265.2,7.5,2267.1,1.2Z" transform="translate(26.1 235.9)" stroke="#000" stroke-miterlimit="10"/>
        <path d="M2110.1,101.2c3.8-4.4,43-25.6,43.2-23.6-1.1-9-42.1,17.2-42.6,17.8.9-2.6,14.7-26.9,10.6-28.4-9.7-3.7-18.4,53.6-18.2,60.3-.7-1.5-28.4-34.6-24-35.3-9.1,1.5,23.5,44.2,23.8,45.1,2.5,7.9.8,82.7,15,82.7-8.7,0-18.3-106.6-7.9-118.6Z" transform="translate(26.1 235.9)" stroke="#000" stroke-miterlimit="10"/>
        <path d="M2334.7-9.9c5.1-19.8,9.6-16.3,21-26.2,2.2-1.9,17.9-1.6,17.1-5.6-2.7-13.5-37.5,18.8-39,23-.8-3.2-19.1-68.3-11-65.7-14.2-4.5,8.4,71.3,8.4,74.6.4,33.2-27.2,34.8-43.8,59.1-.9-4.4-6.2-40.3-13.1-36.7-1.9,1,11.7,35.1,11,42.3-.5,5.4-24.4,49.4-24.1,49.7,8.3,6.4,28.7-54,32.2-58.1,6.6-7.6,54.2-15,54.5-25.4,0-1-41.9,14.1-45.5,13.9,18.6-20.1,29-11.2,32.2-44.8C2337.6-20.8,2334.1-3.1,2334.7-9.9Z" transform="translate(26.1 235.9)" stroke="#000" stroke-miterlimit="10"/>
        <path d="M2236.7,306c19,7.5,15,11.5,23.4,24.1,1.6,2.4-.6,18,3.5,17.7,13.7-1-14.1-39.6-18-41.5,3.3-.4,70-10.7,66.5-3,6.2-13.6-71.7-.4-75-.7-32.9-3.7-31.2-31.3-53.3-50.7,4.4-.4,40.7-1.2,38-8.5-.7-2-36.2,7.3-43.3,5.8-5.3-1.2-46-30.3-46.3-30-7.4,7.4,50.1,35,53.7,39.1,6.7,7.4,8.2,55.7,18.5,57.2,1,.2-8.9-43.3-8.3-46.9,17.6,20.9,7.6,30.2,40.5,37.5C2247.2,310.1,2230,304.5,2236.7,306Z" transform="translate(26.1 235.9)" stroke="#000" stroke-miterlimit="10"/>
        <path d="M2399.7,7c.6-2.4,3.4-1.2,5.5-1.3C2404.5,8,2401.7,6.9,2399.7,7Z" transform="translate(26.1 235.9)" stroke="#000" stroke-miterlimit="10" fill-rule="evenodd"/>
        <path d="M2521.4,262.4c.1-4.1,12.4-1.4,6.8,4.2q-5.3.6-6.8-4.2C2521.5,257.4,2522.9,262.9,2521.4,262.4Z" transform="translate(26.1 235.9)" stroke="#000" stroke-miterlimit="10" fill-rule="evenodd"/>
        <path d="M2405.8,383c.6-2.4,3.4-1.2,5.5-1.3C2410.7,384,2407.9,382.9,2405.8,383Z" transform="translate(26.1 235.9)" stroke="#000" stroke-miterlimit="10" fill-rule="evenodd"/>
        <path d="M2393.8,424.1c1.1-2.8,4.9-1,7.9-.7C2400.6,426.1,2396.7,424.4,2393.8,424.1Z" transform="translate(26.1 235.9)" stroke="#000" stroke-miterlimit="10" fill-rule="evenodd"/>
        <path d="M2403.4-154.9c-9.6,3.7-16.9,11-26.6,14.5C2374.7-137.2,2391.9-157.9,2403.4-154.9Z" transform="translate(26.1 235.9)" stroke="#000" stroke-miterlimit="10" fill-rule="evenodd"/>
        <path d="M2355.1,412.6c9.9-4.7,32.5,11.8,33.2,12.8C2372,424.4,2371.5,413.6,2355.1,412.6Z" transform="translate(26.1 235.9)" stroke="#000" stroke-miterlimit="10" fill-rule="evenodd"/>
      </g>
      <g>
        <path d="M656.1,11.9c-.2-2.4-3.2-1.8-5.2-2.3C651.1,12,654.1,11.4,656.1,11.9Z" transform="translate(26.1 235.9)" stroke="#000" stroke-miterlimit="10" fill-rule="evenodd"/>
        <path d="M491.9,242.3c.6-4-11.9-3.5-7.4,2.9q5.1,1.5,7.4-2.9C492.6,237.3,490.4,242.5,491.9,242.3Z" transform="translate(26.1 235.9)" stroke="#000" stroke-miterlimit="10" fill-rule="evenodd"/>
        <path d="M584.8,381.1c-.2-2.4-3.2-1.8-5.2-2.3C579.8,381.3,582.8,380.6,584.8,381.1Z" transform="translate(26.1 235.9)" stroke="#000" stroke-miterlimit="10" fill-rule="evenodd"/>
        <path d="M589.5,423.7c-.6-2.9-4.7-1.9-7.7-2.1C582.4,424.5,586.5,423.4,589.5,423.7Z" transform="translate(26.1 235.9)" stroke="#000" stroke-miterlimit="10" fill-rule="evenodd"/>
        <path d="M680.4-148.2c8.8,5.3,14.7,13.8,23.7,18.9C705.7-125.8,692.3-149.1,680.4-148.2Z" transform="translate(26.1 235.9)" stroke="#000" stroke-miterlimit="10" fill-rule="evenodd"/>
        <path d="M629.6,419c-8.9-6.3-34,5.9-34.9,6.9C610.9,427.8,613.3,417.2,629.6,419Z" transform="translate(26.1 235.9)" stroke="#000" stroke-miterlimit="10" fill-rule="evenodd"/>
        <path d="M1294.4,181.5c5.8,0,47.5,15.7,46.1,17.2,6.1-6.7-40.6-20.5-41.3-20.5,2.5-1,29.9-6.6,28.4-10.7-3.6-9.7-52.5,21.3-57.4,25.9.7-1.5,7.4-44.1,10.9-41.3-4.1-3.4-21.2,48.8-23.3,51.6-4.1,5.4-55.5,52.4-47.6,61.5-5.7-6.6,68.4-83.8,84.3-83.8Z" transform="translate(26.1 235.9)" stroke="#000" stroke-miterlimit="10"/>
        <path d="M1029.1,297.3c5.1-19.8,9.6-16.3,21-26.2,2.2-1.9,17.9-1.6,17.1-5.6-2.7-13.5-37.5,18.8-39,23-.8-3.2-19.1-68.3-11-65.7-14.2-4.5,8.4,71.3,8.4,74.6.4,33.2-27.2,34.8-43.8,59.1-.9-4.4-6.2-40.3-13.1-36.7-1.9,1,11.7,35.1,11,42.3-.5,5.4-24.4,49.4-24.1,49.7,8.3,6.4,28.7-54,32.2-58.1,6.6-7.6,54.2-15,54.5-25.4,0-1-41.9,14.1-45.5,13.9,18.6-20.1,29-11.2,32.2-44.8C1031.9,286.4,1028.4,304.1,1029.1,297.3Z" transform="translate(26.1 235.9)" stroke="#000" stroke-miterlimit="10"/>
        <path d="M905,422.4c37.8,2.7,73.3-20.5,94.6-48.7,13.7-18.1,12.8-19.2,32.9-28.2,22.8-10.3,33.1-26.9,50.7-44,26.2-25.4,62.8-44.4,101.8-42.4,23.1,1.2,41,12.9,55.2,25.7,3.3,3,32.4,36.5,36.8,28.5-1.3,2.5-34.2-31.3-35.8-35.9q6.4,6.1,12.1,2.4c1-2.8-43.4-18.2-45.2-18.7-21.9-6-42.7-3.6-64.8,1.1-40.9,8.7-58.2,37.1-86.3,64.2-14.2,13.7-32.4,13-46.3,24.4S988.9,387,971.6,399c-10.2,7-58.3,24-66.5,23.4Z" transform="translate(26.1 235.9)" stroke="#000" stroke-miterlimit="10"/>
        <path d="M1161.9,362.7c20.1-3.7,18.8,1.8,32.6,8,2.6,1.2,9.1,15.6,12.3,13.1,11.1-8.1-32.9-26.1-37.3-25.6,2.6-2.1,53.7-46.2,54.8-37.8-1.9-14.8-61,37.7-64,39.2-29.9,14.4-43-10-72.1-14.8,3.6-2.6,33.9-22.6,27.7-27.4-1.7-1.3-26.8,25.4-33.6,27.9-5.1,1.8-55-1.3-55.1-.9-2.3,10.2,61,3.2,66.3,4.7,9.7,2.7,36.5,42.9,46,38.7,0,0-29.7-30.1-31.9-35.4,26,8.4,22.4,21.6,54.2,10.3C1172.9,360.6,1155.4,364.9,1161.9,362.7Z" transform="translate(26.1 235.9)" stroke="#000" stroke-miterlimit="10"/>
        <path d="M1080.8,401.3c4.4,3.7,26.3,42.6,24.3,42.8,9-1.2-17.9-41.8-18.5-42.3,2.6.8,27.1,14.2,28.6,10.1,3.5-9.8-53.9-17.5-60.6-17.1,1.5-.7,34-29,34.8-24.6-1.7-9.1-43.7,24.3-44.6,24.6-7.9,2.6-82.6,2.2-82.4,16.5-.1-8.7,106.2-20.2,118.4-9.9Z" transform="translate(26.1 235.9)" stroke="#000" stroke-miterlimit="10"/>
        <path d="M1098.3,192.1c2.7-3.6,52.3-30.9,41.8-38.2,5.3,3.7-36.9,28.9-39.7,31,3.4-11.2,14.9-19.8,17.3-29.1,1.2-4.7-2.1-37.4-6.9-36.3s4.3,26.7,4.2,27.3c-1.9,12.1-7.8,10.6-12.1,20.2-8.9,19.8-9.8,43.1-20.3,62.3-.4-2.4-23.9-45.9-17.7-44.8-12.5-2.3,10.9,38,10.9,38.6,2.1,20.3-9.4,15.9-17.7,34.1-3.2,7-32.3,95.6-39.7,90.4,3.5,2.4,75.3-140.1,79.9-155.5C1100.7,188.9,1096.4,198.4,1098.3,192.1Z" transform="translate(26.1 235.9)" stroke="#000" stroke-miterlimit="10"/>
        <path d="M941.3,292.1c3.8-4.4,43-25.6,43.2-23.6-1.1-9-42.1,17.2-42.6,17.8.9-2.6,14.7-26.9,10.6-28.4-9.7-3.7-18.4,53.6-18.2,60.3-.7-1.5-28.4-34.6-24-35.3-9.1,1.5,23.5,44.2,23.8,45.1,2.5,7.9.8,82.7,15,82.7-8.7,0-18.3-106.6-7.9-118.6Z" transform="translate(26.1 235.9)" stroke="#000" stroke-miterlimit="10"/>
        <path d="M1166,181c5.1-19.8,9.6-16.3,21-26.2,2.2-1.9,17.9-1.6,17.1-5.6-2.7-13.5-37.5,18.8-39,23-.8-3.2-19.1-68.3-11-65.7-14.2-4.5,8.4,71.3,8.4,74.6.4,33.2-27.2,34.8-43.8,59.1-.9-4.4-6.2-40.3-13.1-36.7-1.9,1,11.7,35.1,11,42.3-.5,5.4-24.4,49.4-24.1,49.7,8.3,6.4,28.7-54,32.2-58.1,6.6-7.6,54.2-15,54.5-25.4,0-1-41.9,14.1-45.5,13.9,18.6-20.1,29-11.2,32.2-44.8C1168.8,170.1,1165.3,187.8,1166,181Z" transform="translate(26.1 235.9)" stroke="#000" stroke-miterlimit="10"/>
        <path d="M1067.9,496.9c19,7.5,15,11.5,23.4,24.1,1.6,2.4-.6,18,3.5,17.7,13.7-1-14.1-39.6-18-41.5,3.3-.4,70-10.7,66.5-3,6.2-13.6-71.7-.4-75-.7-32.9-3.7-31.2-31.3-53.3-50.7,4.4-.3,40.7-1.2,38-8.5-.7-2-36.2,7.3-43.3,5.8-5.3-1.2-46-30.3-46.3-30-7.4,7.4,50.1,35,53.7,39.1,6.7,7.4,8.2,55.7,18.5,57.2,1,.2-8.9-43.3-8.3-46.9,17.6,20.9,7.6,30.2,40.5,37.5C1078.4,501,1061.3,495.4,1067.9,496.9Z" transform="translate(26.1 235.9)" stroke="#000" stroke-miterlimit="10"/>
        <path d="M496.7,143.6c-5.7.6-45.6,20.6-44.1,21.9-6.8-6,38.2-24.6,39-24.7-2.6-.8-30.4-3.4-29.3-7.6,2.6-10.1,54.5,15.7,59.8,19.7-.8-1.4-12-43.1-15.1-39.9,6.2-6.3,21.2,42.7,23.3,45.4,5,6.4,67.5,47.7,59.1,59.8,5-7.2-76.7-76.1-92.6-74.5Z" transform="translate(26.1 235.9)" stroke="#000" stroke-miterlimit="10"/>
        <path d="M772.7,231c-7.1-19.1-11.2-15.2-23.6-23.9-2.3-1.6-18,.2-17.6-3.8,1.3-13.7,39.3,14.8,41.1,18.8.5-3.3,11.9-69.9,4.1-66.5,13.7-6-.9,71.8-.6,75.1,3.1,33,30.7,31.8,49.8,54.2.4-4.4,1.9-40.7,9.2-37.9,2,.8-7.9,36.1-6.5,43.2,1.1,5.3,29.4,46.6,29.1,46.9-7.5,7.3-34.1-50.7-38.1-54.5-7.3-6.9-55.5-9.2-56.8-19.6-.1-1,43.1,9.6,46.7,9.1-20.6-18-30-8.1-36.7-41.2C768.7,220.4,774,237.7,772.7,231Z" transform="translate(26.1 235.9)" stroke="#000" stroke-miterlimit="10"/>
        <path d="M909.1,342.4c-34.2,6.1-71.1-11-93.4-33.8-13.4-13.7-18.5-22.1-35-28.8-25.1-10.2-35.2-20.1-57-36.8-30.9-23.7-69.3-39.5-110.1-33.7-10.8,1.5-27.1,8.3-35.7,14.5-11.5,8.2-9.8,11.4-18.1,20.8-3.1,3.5-28,34-32,28.2,1.6,2.3,30.7-34.7,31.8-39.5q-5.7,6.8-11.8,3.6c-1.3-2.7,41.2-22.7,43-23.4,21.2-8.2,42.1-8,64.6-5.7,41.6,4.4,61.8,30.8,92.5,54.8,15.6,12.2,33.6,9.5,48.6,19.5s25.5,33.8,44,43.9c10.8,5.9,60.5,17.7,68.6,16.3Z" transform="translate(26.1 235.9)" stroke="#000" stroke-miterlimit="10"/>
        <path d="M647.4,309.9c-20.3-1.6-18.5,3.7-31.6,11.3-2.5,1.4-7.4,16.4-10.9,14.4-11.8-6.9,30-29.4,34.4-29.4-2.8-1.8-58.3-40.3-58.5-31.8.4-14.9,64.6,31.1,67.8,32.3,31.2,11.2,41.7-14.4,70.1-22.2-3.8-2.3-36.1-19-30.4-24.3,1.6-1.5,29.3,22.5,36.4,24.2,5.3,1.3,54.6-7,54.7-6.6,3.4,9.9-60.3,9.5-65.4,11.6-9.3,3.7-31.8,46.5-41.7,43.3,0,0,26.4-33.1,28-38.5-25,11.1-20.1,23.8-52.9,15.9C636.2,309,654.1,311.5,647.4,309.9Z" transform="translate(26.1 235.9)" stroke="#000" stroke-miterlimit="10"/>
        <path d="M732.1,339.8c-4,4.2-21.7,45.1-19.7,45.2-9.1-.3,13.4-43.4,14-44-2.5,1.1-25.5,17-27.4,13-4.5-9.4,51.8-23,58.5-23.4-1.5-.6-36.9-25.3-37.2-20.8.7-9.2,46,19.6,47,19.8,8.1,1.8,82.4-6.5,83.6,7.8-.8-8.7-107.7-9-118.7,2.5Z" transform="translate(26.1 235.9)" stroke="#000" stroke-miterlimit="10"/>
        <path d="M692.8,133.7c-3-3.3-55.2-25.2-45.6-33.6-4.9,4.3,39.7,24.8,42.7,26.7-4.5-10.8-16.9-18.1-20.3-27.1-1.7-4.5-1.8-37.4,3.1-36.8s-1.5,27-1.3,27.6c3.2,11.8,8.9,9.7,14.2,18.8,11,18.7,14.2,41.8,26.7,59.8.2-2.5,19-48.2,13-46.4,12.2-3.6-6.9,38.9-6.9,39.5,0,20.4,11,14.9,21.2,32.1,3.9,6.6,42.1,91.7,48.9,85.7-3.2,2.8-89.5-131.4-95.7-146.3C690.1,130.7,695.4,139.7,692.8,133.7Z" transform="translate(26.1 235.9)" stroke="#000" stroke-miterlimit="10"/>
        <path d="M859.4,216.6c-4.2-3.9-45.4-20.9-45.4-18.9.1-9.1,43.6,12.7,44.2,13.2-1.1-2.5-17.4-25.2-13.5-27.2,9.3-4.7,23.9,51.4,24.4,58.1.5-1.5,24.6-37.3,20.2-37.6,9.2.6-18.7,46.4-18.9,47.3-1.6,8.1,7.9,82.3-6.3,83.8,8.7-.9,7.1-107.9-4.6-118.8Z" transform="translate(26.1 235.9)" stroke="#000" stroke-miterlimit="10"/>
        <path d="M624.4,129.7c-7.1-19.1-11.2-15.2-23.6-23.9-2.3-1.6-18,.2-17.6-3.8,1.3-13.7,39.3,14.8,41.1,18.8.5-3.3,11.9-69.9,4.1-66.5,13.7-6-.9,71.8-.6,75.1,3.1,33,30.7,31.8,49.8,54.2.4-4.4,1.9-40.7,9.2-37.9,2,.8-7.9,36.1-6.5,43.2,1.1,5.3,29.4,46.6,29.1,46.9-7.5,7.3-34.1-50.7-38.1-54.5-7.3-6.9-55.5-9.2-56.8-19.6-.1-1,43.1,9.6,46.7,9.1-20.6-18-30-8.1-36.7-41.2C620.4,119.1,625.7,136.4,624.4,129.7Z" transform="translate(26.1 235.9)" stroke="#000" stroke-miterlimit="10"/>
        <path d="M754.9,433.5c-18.1,9.4-13.7,13-20.8,26.4-1.3,2.5,2.4,17.8-1.6,18-13.7.4,9.9-40.8,13.6-43.2-3.3,0-70.8-3.3-66.5,4-7.6-12.9,71.3-7.9,74.6-8.6,32.4-7.1,27.8-34.4,47.7-56-4.4.1-40.6,3-38.7-4.5.5-2.1,36.8,3.5,43.6,1.2,5.2-1.7,42.6-34.9,42.9-34.6,8.1,6.6-46.1,40.1-49.4,44.5-5.9,8.1-2.4,56.3-12.5,58.8-1,.3,4.3-44,3.3-47.5-15.3,22.7-4.4,30.8-36.4,41.5C744.9,438.7,761.4,431.4,754.9,433.5Z" transform="translate(26.1 235.9)" stroke="#000" stroke-miterlimit="10"/>
        <path d="M1254.3,291.8c5.8,0,47.5,15.7,46.1,17.2,6.1-6.7-40.6-20.5-41.3-20.5,2.5-1,29.9-6.6,28.4-10.7-3.6-9.7-52.5,21.3-57.4,25.9.7-1.5,7.4-44.1,10.9-41.3-4.1-3.4-21.2,48.8-23.3,51.6-4.1,5.4-55.5,52.4-47.6,61.5-5.7-6.6,68.4-83.8,84.3-83.8Z" transform="translate(26.1 235.9)" stroke="#000" stroke-miterlimit="10"/>
        <path d="M988.9,407.5c5.1-19.8,9.6-16.3,21-26.2,2.2-1.9,17.9-1.6,17.1-5.6-2.7-13.5-37.5,18.8-39,23-.8-3.2-19.1-68.3-11-65.7-14.2-4.5,8.4,71.3,8.4,74.6.4,33.2-27.2,34.8-43.8,59.1-.9-4.4-6.2-40.3-13.1-36.7-1.9,1,11.7,35.1,11,42.3-.5,5.4-24.4,49.4-24.1,49.7,8.3,6.4,28.7-54,32.2-58.1,6.6-7.6,54.2-15,54.5-25.4,0-1-41.9,14.1-45.5,13.9,18.6-20.1,29-11.2,32.2-44.8C991.7,396.6,988.3,414.4,988.9,407.5Z" transform="translate(26.1 235.9)" stroke="#000" stroke-miterlimit="10"/>
        <path d="M864.9,532.7c37.8,2.7,73.3-20.5,94.6-48.7,13.7-18.1,12.8-19.2,32.9-28.2,22.8-10.3,33.1-26.9,50.7-44,26.2-25.4,62.8-44.4,101.8-42.4,23.1,1.2,41,12.9,55.2,25.7,3.3,3,32.4,36.5,36.8,28.5-1.3,2.5-34.2-31.3-35.8-35.9q6.4,6.1,12.1,2.4c1-2.8-43.4-18.2-45.2-18.7-21.9-6-42.7-3.6-64.9,1.1-40.9,8.7-58.2,37.1-86.3,64.2-14.2,13.7-32.4,13-46.3,24.4s-21.9,36.2-39.2,48.2c-10.2,7-58.3,24-66.5,23.4Z" transform="translate(26.1 235.9)" stroke="#000" stroke-miterlimit="10"/>
        <path d="M1121.7,472.9c20.1-3.7,18.8,1.8,32.6,8,2.6,1.2,9.1,15.6,12.3,13.1,11.1-8.1-32.9-26.1-37.3-25.6,2.6-2.1,53.7-46.2,54.8-37.8-1.9-14.8-61,37.7-64,39.2-29.9,14.4-43-10-72.1-14.8,3.6-2.6,33.9-22.6,27.7-27.4-1.7-1.3-26.8,25.4-33.6,27.9-5.1,1.8-55-1.3-55.1-.9-2.3,10.2,61,3.2,66.3,4.7,9.7,2.7,36.5,42.9,46,38.7,0,0-29.7-30.1-31.9-35.4,26,8.4,22.4,21.6,54.2,10.3C1132.8,470.9,1115.2,475.2,1121.7,472.9Z" transform="translate(26.1 235.9)" stroke="#000" stroke-miterlimit="10"/>
        <path d="M1040.7,511.5c4.4,3.7,26.3,42.6,24.3,42.8,9-1.2-17.9-41.8-18.5-42.3,2.6.8,27.1,14.2,28.6,10.1,3.5-9.8-53.9-17.5-60.6-17.1,1.5-.7,34-29,34.8-24.6-1.7-9.1-43.7,24.3-44.6,24.6-7.9,2.6-82.6,2.2-82.4,16.5-.1-8.7,106.2-20.2,118.4-9.9Z" transform="translate(26.1 235.9)" stroke="#000" stroke-miterlimit="10"/>
        <path d="M1058.2,302.4c2.7-3.6,52.3-30.9,41.8-38.2,5.3,3.7-36.9,28.9-39.7,31,3.4-11.2,14.9-19.8,17.3-29.1,1.2-4.7-2.1-37.4-6.9-36.3s4.3,26.7,4.2,27.3c-1.9,12.1-7.8,10.6-12.1,20.2-8.9,19.8-9.8,43.1-20.3,62.3-.4-2.4-23.9-45.9-17.7-44.8-12.5-2.3,10.9,38,10.9,38.6,2.1,20.3-9.4,15.9-17.7,34.1-3.2,7-32.3,95.6-39.7,90.4,3.5,2.4,75.3-140.1,79.9-155.5C1060.5,299.2,1056.3,308.7,1058.2,302.4Z" transform="translate(26.1 235.9)" stroke="#000" stroke-miterlimit="10"/>
        <path d="M901.2,402.3c3.8-4.4,43-25.6,43.2-23.6-1.1-9-42.1,17.2-42.6,17.8.9-2.6,14.7-26.9,10.6-28.4-9.7-3.7-18.4,53.6-18.2,60.3-.7-1.5-28.4-34.6-24-35.3-9.1,1.5,23.5,44.2,23.8,45.1,2.5,7.9.8,82.7,15,82.7-8.7,0-18.3-106.6-7.9-118.6Z" transform="translate(26.1 235.9)" stroke="#000" stroke-miterlimit="10"/>
        <path d="M1125.8,291.3c5.1-19.8,9.6-16.3,21-26.2,2.2-1.9,17.9-1.6,17.1-5.6-2.7-13.5-37.5,18.8-39,23-.8-3.2-19.1-68.3-11-65.7-14.2-4.5,8.4,71.3,8.4,74.6.4,33.2-27.2,34.8-43.8,59.1-.9-4.4-6.2-40.3-13.1-36.7-1.9,1,11.7,35.1,11,42.3-.5,5.4-24.4,49.4-24.1,49.7,8.3,6.4,28.7-54,32.2-58.1,6.6-7.6,54.2-15,54.5-25.4,0-1-41.9,14.1-45.5,13.9,18.6-20.1,29-11.2,32.2-44.8C1128.6,280.4,1125.2,298.1,1125.8,291.3Z" transform="translate(26.1 235.9)" stroke="#000" stroke-miterlimit="10"/>
        <path d="M354.3,336.6c-5.7.6-45.6,20.6-44.1,21.9-6.8-6,38.2-24.6,39-24.7-2.6-.8-30.4-3.4-29.3-7.6,2.6-10.1,54.5,15.7,59.8,19.7-.8-1.4-12-43.1-15.1-39.9,6.2-6.3,21.2,42.7,23.3,45.4,5,6.4,67.5,47.7,59.1,59.8,5-7.2-76.7-76.1-92.6-74.5Z" transform="translate(26.1 235.9)" stroke="#000" stroke-miterlimit="10"/>
        <path d="M630.3,423.9c-7.1-19.1-11.2-15.2-23.6-23.9-2.3-1.6-18,.2-17.6-3.8,1.3-13.7,39.3,14.8,41.1,18.8.5-3.3,11.9-69.9,4.1-66.5,13.7-6-.9,71.8-.6,75.1,3.1,33,30.7,31.8,49.8,54.2.4-4.4,1.9-40.7,9.2-37.9,2,.8-7.9,36.1-6.5,43.2,1.1,5.3,29.4,46.6,29.1,46.9-7.5,7.3-34.1-50.7-38.1-54.5-7.3-6.9-55.5-9.2-56.8-19.6-.1-1,43.1,9.6,46.7,9.1-20.6-18-30-8.1-36.7-41.2C626.4,413.4,631.7,430.7,630.3,423.9Z" transform="translate(26.1 235.9)" stroke="#000" stroke-miterlimit="10"/>
        <path d="M766.7,535.4c-34.2,6.1-71.1-11-93.4-33.8-13.4-13.7-18.5-22.1-35-28.8-25.1-10.2-35.2-20.1-57-36.8-30.9-23.7-69.3-39.5-110.1-33.7-10.8,1.5-27.1,8.3-35.7,14.5-11.5,8.2-9.8,11.4-18.1,20.8-3.1,3.5-28,34-32,28.2,1.6,2.3,30.7-34.7,31.8-39.5q-5.7,6.8-11.8,3.6c-1.3-2.7,41.2-22.7,43-23.4,21.2-8.2,42.1-8,64.6-5.7,41.6,4.4,61.8,30.8,92.5,54.8,15.6,12.2,33.6,9.5,48.6,19.5s25.5,33.8,44,43.9c10.8,5.9,60.5,17.7,68.6,16.3Z" transform="translate(26.1 235.9)" stroke="#000" stroke-miterlimit="10"/>
        <path d="M505.1,502.8c-20.3-1.6-18.5,3.7-31.6,11.3-2.5,1.4-7.4,16.4-10.9,14.4-11.8-6.9,30-29.4,34.4-29.4-2.8-1.8-58.3-40.3-58.5-31.8.4-14.9,64.6,31.1,67.8,32.3,31.2,11.2,41.7-14.4,70.1-22.2-3.8-2.3-36.1-19-30.4-24.3,1.6-1.5,29.3,22.5,36.4,24.2,5.3,1.3,54.6-7,54.7-6.6,3.4,9.9-60.3,9.5-65.4,11.6-9.3,3.7-31.8,46.5-41.7,43.3,0,0,26.4-33.1,28-38.5-25,11.1-20.1,23.8-52.9,15.9C493.9,502,511.8,504.5,505.1,502.8Z" transform="translate(26.1 235.9)" stroke="#000" stroke-miterlimit="10"/>
        <path d="M589.7,532.8c-4,4.2-21.7,45.1-19.7,45.2-9.1-.3,13.4-43.4,14-44-2.5,1.1-25.5,17-27.4,13-4.5-9.4,51.8-23,58.5-23.4-1.5-.6-36.9-25.3-37.2-20.8.7-9.2,46,19.6,47,19.8,8.1,1.8,82.4-6.5,83.6,7.8-.8-8.7-107.7-9-118.7,2.5Z" transform="translate(26.1 235.9)" stroke="#000" stroke-miterlimit="10"/>
        <path d="M550.5,326.6c-3-3.3-55.2-25.2-45.6-33.6-4.9,4.3,39.7,24.8,42.7,26.7-4.5-10.8-16.9-18.1-20.3-27.1-1.7-4.5-1.8-37.4,3.1-36.8s-1.5,27-1.3,27.6c3.2,11.8,8.9,9.7,14.2,18.8,11,18.7,14.2,41.8,26.7,59.8.2-2.5,19-48.2,13-46.4,12.2-3.6-6.9,38.9-6.9,39.5,0,20.4,11,14.9,21.2,32.1,3.9,6.6,42.1,91.7,48.9,85.7-3.2,2.8-89.5-131.4-95.7-146.3C547.8,323.7,553,332.7,550.5,326.6Z" transform="translate(26.1 235.9)" stroke="#000" stroke-miterlimit="10"/>
        <path d="M717,409.6c-4.2-3.9-45.4-20.9-45.5-18.9.1-9.1,43.6,12.7,44.2,13.2-1.1-2.5-17.4-25.2-13.5-27.2,9.3-4.7,23.9,51.4,24.4,58.1.5-1.5,24.6-37.3,20.2-37.6,9.2.6-18.7,46.4-18.9,47.3-1.6,8.1,7.9,82.3-6.3,83.8,8.7-.9,7-107.9-4.6-118.8Z" transform="translate(26.1 235.9)" stroke="#000" stroke-miterlimit="10"/>
        <path d="M482,322.6c-7.1-19.1-11.2-15.2-23.6-23.9-2.3-1.6-18,.2-17.6-3.8,1.3-13.7,39.3,14.8,41.1,18.8.5-3.3,11.9-69.9,4.1-66.5,13.7-6-.9,71.8-.6,75.1,3.1,33,30.7,31.8,49.8,54.2.4-4.4,1.9-40.7,9.2-37.9,2,.8-7.9,36.1-6.5,43.2,1.1,5.3,29.4,46.6,29.1,46.9-7.5,7.3-34.1-50.7-38.1-54.5-7.3-6.9-55.5-9.2-56.8-19.6-.1-1,43.1,9.6,46.7,9.1-20.6-18-30-8.1-36.7-41.2C478.1,312.1,483.4,329.4,482,322.6Z" transform="translate(26.1 235.9)" stroke="#000" stroke-miterlimit="10"/>
        <path d="M612.5,626.5c-18.1,9.4-13.7,13-20.8,26.4-1.3,2.5,2.4,17.8-1.6,18-13.7.4,9.9-40.8,13.6-43.2-3.3,0-70.8-3.3-66.5,4-7.6-12.9,71.3-7.9,74.6-8.6,32.4-7.1,27.8-34.4,47.7-56-4.4.1-40.6,3-38.7-4.5.5-2.1,36.8,3.5,43.6,1.2,5.1-1.7,42.6-34.9,42.9-34.6,8.1,6.6-46.1,40.1-49.4,44.5-5.9,8.1-2.4,56.3-12.5,58.8-1,.3,4.3-44,3.3-47.5-15.3,22.7-4.4,30.8-36.4,41.5C602.5,631.7,619,624.3,612.5,626.5Z" transform="translate(26.1 235.9)" stroke="#000" stroke-miterlimit="10"/>
        <path d="M163.9-11.7c-5.7.6-45.6,20.6-44.1,21.9-6.8-6,38.2-24.6,39-24.7-2.6-.8-30.4-3.4-29.3-7.6,2.6-10.1,54.5,15.7,59.8,19.7-.8-1.4-12-43.1-15.1-39.9C180.2-48.6,195.3.4,197.4,3c5,6.4,67.5,47.7,59.1,59.8,5-7.2-76.7-76.1-92.6-74.5Z" transform="translate(26.1 235.9)" stroke="#000" stroke-miterlimit="10"/>
        <path d="M439.9,75.6c-7.1-19.1-11.2-15.2-23.6-23.9-2.3-1.6-18,.2-17.6-3.8,1.3-13.7,39.3,14.8,41.1,18.8.5-3.3,11.9-69.9,4.1-66.5,13.7-6-.9,71.8-.6,75.1,3.1,33,30.7,31.8,49.8,54.2.4-4.4,1.9-40.7,9.2-37.9,2,.8-7.9,36.1-6.5,43.2,1.1,5.3,29.4,46.6,29.1,46.9-7.5,7.3-34.1-50.7-38.1-54.5-7.3-6.9-55.5-9.2-56.8-19.6-.1-1,43.1,9.6,46.7,9.1-20.6-18-30-8.1-36.7-41.2C435.9,65.1,441.2,82.4,439.9,75.6Z" transform="translate(26.1 235.9)" stroke="#000" stroke-miterlimit="10"/>
        <path d="M576.3,187.1c-34.2,6.1-71.1-11-93.4-33.8-13.4-13.7-18.5-22.1-35-28.8-25.1-10.2-35.2-20.1-57-36.8C360,64,321.6,48.2,280.8,54.1c-10.8,1.5-27.1,8.3-35.7,14.5-11.5,8.2-9.8,11.4-18.1,20.8-3.1,3.5-28,34-32,28.2,1.6,2.3,30.7-34.7,31.8-39.5q-5.7,6.8-11.8,3.6c-1.3-2.7,41.2-22.7,43-23.4,21.2-8.2,42.1-8,64.6-5.7,41.6,4.4,61.8,30.8,92.5,54.8,15.6,12.2,33.6,9.5,48.6,19.5s25.5,33.8,44,43.9c10.8,5.9,60.5,17.7,68.6,16.3Z" transform="translate(26.1 235.9)" stroke="#000" stroke-miterlimit="10"/>
        <path d="M314.6,154.6c-20.3-1.6-18.5,3.7-31.6,11.3-2.5,1.4-7.4,16.4-10.9,14.4-11.8-6.9,30-29.4,34.4-29.4-2.8-1.8-58.3-40.3-58.5-31.8.4-14.9,64.6,31.1,67.8,32.3,31.2,11.2,41.7-14.4,70.1-22.2-3.8-2.3-36.1-19-30.4-24.3,1.6-1.5,29.3,22.5,36.4,24.2,5.3,1.3,54.6-7,54.7-6.6,3.4,9.9-60.3,9.5-65.4,11.6-9.3,3.7-31.8,46.5-41.7,43.3,0,0,26.4-33.1,28-38.5-25,11.1-20.1,23.8-52.9,15.9C303.4,153.7,321.3,156.2,314.6,154.6Z" transform="translate(26.1 235.9)" stroke="#000" stroke-miterlimit="10"/>
        <path d="M399.3,184.5c-4,4.2-21.7,45.1-19.7,45.2-9.1-.3,13.4-43.4,14-44-2.5,1.1-25.5,17-27.4,13-4.5-9.4,51.8-23,58.5-23.4-1.5-.6-36.9-25.3-37.2-20.8.7-9.2,46,19.6,47,19.8,8.1,1.8,82.4-6.5,83.6,7.8-.8-8.7-107.7-9-118.7,2.5Z" transform="translate(26.1 235.9)" stroke="#000" stroke-miterlimit="10"/>
        <path d="M360-21.7c-3-3.3-55.2-25.2-45.6-33.6-4.9,4.3,39.7,24.8,42.7,26.7-4.5-10.8-16.9-18.1-20.3-27.1-1.7-4.5-1.8-37.4,3.1-36.8s-1.5,27-1.3,27.6c3.2,11.8,8.9,9.7,14.2,18.8,11,18.7,14.2,41.8,26.7,59.8.2-2.5,19-48.2,13-46.4,12.2-3.6-6.9,38.9-6.9,39.5,0,20.4,11,14.9,21.2,32.1,3.9,6.6,42.1,91.7,48.9,85.7C452.5,127.4,366.2-6.9,360-21.7,357.3-24.6,362.6-15.6,360-21.7Z" transform="translate(26.1 235.9)" stroke="#000" stroke-miterlimit="10"/>
        <path d="M526.6,61.3c-4.2-3.9-45.4-20.9-45.4-18.9.1-9.1,43.6,12.7,44.2,13.2-1.1-2.5-17.4-25.2-13.5-27.2,9.3-4.7,23.9,51.4,24.4,58.1.5-1.5,24.6-37.3,20.2-37.6,9.2.6-18.7,46.4-18.9,47.3-1.6,8.1,7.9,82.3-6.3,83.8,8.7-.9,7.1-107.9-4.6-118.8Z" transform="translate(26.1 235.9)" stroke="#000" stroke-miterlimit="10"/>
        <path d="M291.6-25.6c-7.1-19.1-11.2-15.2-23.6-23.9-2.3-1.6-18,.2-17.6-3.8,1.3-13.7,39.3,14.8,41.1,18.8.5-3.3,11.9-69.9,4.1-66.5,13.7-6-.9,71.8-.6,75.1,3.1,33,30.7,31.8,49.8,54.2.4-4.4,1.9-40.7,9.2-37.9,2,.8-7.9,36.1-6.5,43.2,1.1,5.3,29.4,46.6,29.1,46.9C369,87.7,342.4,29.8,338.4,26c-7.3-6.9-55.5-9.2-56.8-19.6-.1-1,43.1,9.6,46.7,9.1-20.6-18-30-8.1-36.7-41.2C287.6-36.2,292.9-18.9,291.6-25.6Z" transform="translate(26.1 235.9)" stroke="#000" stroke-miterlimit="10"/>
        <path d="M422,278.2c-18.1,9.4-13.7,13-20.8,26.4-1.3,2.5,2.4,17.8-1.6,18-13.7.4,9.9-40.8,13.6-43.2-3.3,0-70.8-3.3-66.5,4-7.6-12.9,71.3-7.9,74.6-8.6,32.4-7.1,27.8-34.4,47.7-56-4.4.1-40.6,3-38.7-4.5.5-2.1,36.8,3.5,43.6,1.2,5.2-1.7,42.6-34.9,42.9-34.6,8.1,6.6-46.1,40.1-49.4,44.5-5.9,8.1-2.4,56.3-12.5,58.8-1,.3,4.3-44,3.3-47.5-15.3,22.7-4.4,30.8-36.4,41.5C412.1,283.4,428.5,276,422,278.2Z" transform="translate(26.1 235.9)" stroke="#000" stroke-miterlimit="10"/>
        <path d="M941.8-40c5.8,0,47.5,15.7,46.1,17.2,6.1-6.7-40.6-20.5-41.3-20.5,2.5-1,29.9-6.6,28.4-10.7-3.6-9.7-52.5,21.3-57.4,25.9.7-1.5,7.4-44.1,10.9-41.3-4.1-3.4-21.2,48.8-23.3,51.6-4.1,5.4-55.5,52.4-47.6,61.5-5.7-6.6,68.4-83.7,84.3-83.8Z" transform="translate(26.1 235.9)" stroke="#000" stroke-miterlimit="10"/>
        <path d="M676.4,75.8c5.1-19.8,9.6-16.3,21-26.2,2.2-1.9,17.9-1.6,17.1-5.6-2.7-13.5-37.5,18.8-39,23-.8-3.2-19.1-68.3-11-65.7-14.2-4.5,8.4,71.3,8.4,74.6.4,33.2-27.2,34.8-43.8,59.1-.9-4.4-6.2-40.3-13.1-36.7-1.9,1,11.7,35.1,11,42.3-.5,5.4-24.4,49.4-24.1,49.7,8.3,6.4,28.7-54,32.2-58.1,6.6-7.6,54.2-15,54.5-25.4,0-1-41.9,14.1-45.5,13.9,18.6-20.1,29-11.2,32.2-44.8C679.2,64.9,675.8,82.6,676.4,75.8Z" transform="translate(26.1 235.9)" stroke="#000" stroke-miterlimit="10"/>
        <path d="M552.4,200.9c37.8,2.7,73.3-20.5,94.6-48.7,13.7-18.1,12.8-19.2,32.9-28.2,22.8-10.3,33.1-26.9,50.7-44,26.2-25.4,62.8-44.4,101.8-42.4,23.1,1.2,41,12.9,55.2,25.7,3.3,3,32.4,36.5,36.8,28.5-1.3,2.5-34.2-31.3-35.8-35.9q6.4,6.1,12.1,2.4c1-2.8-43.4-18.2-45.2-18.7-21.9-6-42.7-3.6-64.9,1.1-40.9,8.7-58.2,37.1-86.3,64.2-14.2,13.7-32.4,13-46.3,24.4s-21.9,36.2-39.2,48.2c-10.2,7-58.3,24-66.5,23.4Z" transform="translate(26.1 235.9)" stroke="#000" stroke-miterlimit="10"/>
        <path d="M809.2,141.2c20.1-3.7,18.8,1.8,32.6,8,2.6,1.2,9.1,15.6,12.3,13.1,11.1-8.1-32.9-26.1-37.3-25.6,2.6-2.1,53.7-46.2,54.8-37.8-1.9-14.8-61,37.7-64,39.2-29.9,14.4-43-10-72.1-14.8,3.6-2.6,33.9-22.6,27.7-27.4-1.7-1.3-26.8,25.4-33.6,27.9-5.1,1.8-55-1.3-55.1-.9-2.3,10.2,61,3.2,66.3,4.7,9.7,2.7,36.5,42.9,46,38.7,0,0-29.7-30.1-31.9-35.4,26,8.4,22.4,21.6,54.2,10.3C820.3,139.1,802.7,143.5,809.2,141.2Z" transform="translate(26.1 235.9)" stroke="#000" stroke-miterlimit="10"/>
        <path d="M728.2,179.8c4.4,3.7,26.3,42.6,24.3,42.8,9-1.2-17.9-41.8-18.5-42.3,2.6.8,27.1,14.2,28.6,10.1,3.5-9.8-53.9-17.5-60.6-17.1,1.5-.7,34-29,34.8-24.6-1.7-9.1-43.7,24.3-44.6,24.6-7.9,2.6-82.6,2.2-82.4,16.5-.1-8.7,106.2-20.2,118.4-9.9Z" transform="translate(26.1 235.9)" stroke="#000" stroke-miterlimit="10"/>
        <path d="M745.6-29.3c2.7-3.6,52.3-30.9,41.8-38.2,5.3,3.7-36.9,28.9-39.7,31,3.4-11.2,14.9-19.8,17.3-29.1,1.2-4.7-2.1-37.4-6.9-36.3s4.3,26.7,4.2,27.3c-1.9,12.1-7.8,10.6-12.1,20.2-8.9,19.8-9.8,43.1-20.3,62.3C729.5,5.4,706-38.1,712.2-37c-12.5-2.3,10.9,38,10.9,38.6,2.1,20.3-9.4,15.9-17.7,34.1-3.2,7-32.3,95.6-39.7,90.4C669.2,128.6,741-14,745.6-29.3,748-32.6,743.7-23,745.6-29.3Z" transform="translate(26.1 235.9)" stroke="#000" stroke-miterlimit="10"/>
        <path d="M588.7,70.6c3.8-4.4,43-25.6,43.2-23.6-1.1-9-42.1,17.2-42.6,17.8.9-2.6,14.7-26.9,10.6-28.4-9.7-3.7-18.4,53.6-18.2,60.3-.7-1.5-28.4-34.6-24-35.3-9.1,1.5,23.5,44.2,23.8,45.1,2.5,7.9.8,82.7,15,82.7-8.7,0-18.3-106.6-7.9-118.6Z" transform="translate(26.1 235.9)" stroke="#000" stroke-miterlimit="10"/>
        <path d="M813.3-40.5c5.1-19.8,9.6-16.3,21-26.2,2.2-1.9,17.9-1.6,17.1-5.6-2.7-13.5-37.5,18.8-39,23-.8-3.2-19.1-68.3-11-65.7-14.2-4.5,8.4,71.3,8.4,74.6.4,33.2-27.2,34.8-43.8,59.1-.9-4.4-6.2-40.3-13.1-36.7-1.9,1,11.7,35.1,11,42.3-.5,5.4-24.4,49.4-24.1,49.7,8.3,6.4,28.7-54,32.2-58.1,6.6-7.6,54.2-15,54.5-25.4,0-1-41.9,14.1-45.5,13.9,18.6-20.1,29-11.2,32.2-44.8C816.1-51.4,812.7-33.6,813.3-40.5Z" transform="translate(26.1 235.9)" stroke="#000" stroke-miterlimit="10"/>
        <path d="M715.3,275.4c19,7.5,15,11.5,23.4,24.1,1.6,2.4-.6,18,3.5,17.7,13.7-1-14.1-39.6-18-41.5,3.3-.4,70-10.7,66.5-3,6.2-13.6-71.7-.4-75-.7-32.9-3.7-31.2-31.3-53.3-50.7,4.4-.4,40.7-1.2,38-8.5-.8-2-36.2,7.3-43.3,5.8-5.3-1.2-46-30.3-46.3-30-7.4,7.4,50.1,35,53.7,39.1,6.7,7.4,8.2,55.7,18.5,57.2,1,.2-8.9-43.3-8.3-46.9,17.6,20.9,7.6,30.2,40.5,37.5C725.8,279.5,708.6,273.9,715.3,275.4Z" transform="translate(26.1 235.9)" stroke="#000" stroke-miterlimit="10"/>
        <path d="M288.4,121c-5.7.6-45.6,20.6-44.1,21.9-6.8-6,38.2-24.6,39-24.7-2.6-.8-30.4-3.4-29.3-7.6,2.6-10.1,54.5,15.7,59.8,19.7-.8-1.4-12-43.1-15.1-39.9,6.2-6.3,21.2,42.7,23.3,45.4,5,6.4,67.5,47.7,59.1,59.8,5-7.2-76.7-76.1-92.6-74.5Z" transform="translate(26.1 235.9)" stroke="#000" stroke-miterlimit="10"/>
        <path d="M564.4,208.4c-7.1-19.1-11.2-15.2-23.6-23.9-2.3-1.6-18,.2-17.6-3.8,1.3-13.7,39.3,14.8,41.1,18.8.5-3.3,11.9-69.9,4.1-66.5,13.7-6-.9,71.8-.6,75.1,3.1,33,30.7,31.8,49.8,54.2.4-4.4,1.9-40.7,9.2-37.9,2,.8-7.9,36.1-6.5,43.2,1.1,5.3,29.4,46.6,29.1,46.9-7.5,7.3-34.1-50.7-38.1-54.5-7.3-6.9-55.5-9.2-56.8-19.6-.1-1,43.1,9.6,46.7,9.1-20.6-18-30-8.1-36.7-41.2C560.5,197.8,565.8,215.1,564.4,208.4Z" transform="translate(26.1 235.9)" stroke="#000" stroke-miterlimit="10"/>
        <path d="M700.8,319.8c-34.2,6.1-71.1-11-93.4-33.8-13.4-13.7-18.5-22.1-35-28.8-25.1-10.2-35.2-20.1-57-36.8-30.9-23.7-69.3-39.5-110.1-33.7-10.8,1.5-27.1,8.3-35.7,14.5-11.5,8.2-9.8,11.4-18.1,20.8-3.1,3.5-28,34-32,28.2,1.6,2.3,30.7-34.7,31.8-39.5q-5.7,6.8-11.8,3.6c-1.3-2.7,41.2-22.7,43-23.4,21.2-8.2,42.1-8,64.6-5.7,41.6,4.4,61.8,30.8,92.5,54.8,15.6,12.2,33.6,9.5,48.6,19.5s25.5,33.8,44,43.9c10.8,5.9,60.5,17.7,68.6,16.3Z" transform="translate(26.1 235.9)" stroke="#000" stroke-miterlimit="10"/>
        <path d="M439.2,287.3c-20.3-1.6-18.5,3.7-31.6,11.3-2.5,1.4-7.4,16.4-10.9,14.4-11.8-6.9,30-29.4,34.4-29.4-2.8-1.8-58.3-40.3-58.5-31.8.4-14.9,64.6,31.1,67.8,32.3,31.2,11.2,41.7-14.4,70.1-22.2-3.8-2.3-36.1-19-30.4-24.3,1.6-1.5,29.3,22.5,36.4,24.2,5.3,1.3,54.6-7,54.7-6.6,3.4,9.9-60.3,9.5-65.4,11.6-9.3,3.7-31.8,46.5-41.7,43.3,0,0,26.4-33.1,28-38.5-25,11.1-20.1,23.8-52.9,15.9C428,286.4,445.8,288.9,439.2,287.3Z" transform="translate(26.1 235.9)" stroke="#000" stroke-miterlimit="10"/>
        <path d="M523.8,317.2c-4,4.2-21.7,45.1-19.7,45.2-9.1-.3,13.4-43.4,14-44-2.5,1.1-25.5,17-27.4,13-4.5-9.4,51.8-23,58.5-23.4-1.5-.6-36.9-25.3-37.2-20.8.7-9.2,46,19.6,47,19.8,8.1,1.8,82.4-6.5,83.6,7.8-.8-8.7-107.7-9-118.7,2.5Z" transform="translate(26.1 235.9)" stroke="#000" stroke-miterlimit="10"/>
        <path d="M484.6,111c-3-3.3-55.2-25.2-45.6-33.6-4.9,4.3,39.7,24.8,42.7,26.7C477.1,93.4,464.7,86,461.4,77c-1.7-4.5-1.8-37.4,3.1-36.8s-1.5,27-1.3,27.6c3.2,11.8,8.9,9.7,14.2,18.8,11,18.7,14.2,41.8,26.7,59.8.2-2.5,19-48.2,13-46.4,12.2-3.6-6.9,38.9-6.9,39.5,0,20.4,11,14.9,21.2,32.1,3.9,6.6,42.1,91.7,48.9,85.7-3.2,2.8-89.5-131.4-95.7-146.3C481.9,108.1,487.1,117.1,484.6,111Z" transform="translate(26.1 235.9)" stroke="#000" stroke-miterlimit="10"/>
        <path d="M651.1,194c-4.2-3.9-45.4-20.9-45.4-18.9.1-9.1,43.6,12.7,44.2,13.2-1.1-2.5-17.4-25.2-13.5-27.2,9.3-4.7,23.9,51.4,24.4,58.1.5-1.5,24.6-37.3,20.2-37.6,9.2.6-18.7,46.4-18.9,47.3-1.6,8.1,7.9,82.3-6.3,83.8,8.7-.9,7.1-107.9-4.6-118.8Z" transform="translate(26.1 235.9)" stroke="#000" stroke-miterlimit="10"/>
        <path d="M416.1,107.1c-7.1-19.1-11.2-15.2-23.6-23.9-2.3-1.6-18,.2-17.6-3.8,1.3-13.7,39.3,14.8,41.1,18.8.5-3.3,11.9-69.9,4.1-66.5,13.7-6-.9,71.8-.6,75.1,3.1,33,30.7,31.8,49.8,54.2.4-4.4,1.9-40.7,9.2-37.9,2,.8-7.9,36.1-6.5,43.2,1.1,5.3,29.4,46.6,29.1,46.9-7.5,7.3-34.1-50.7-38.1-54.5-7.3-6.9-55.5-9.2-56.8-19.6-.1-1,43.1,9.6,46.7,9.1-20.6-18-30-8.1-36.7-41.2C412.2,96.5,417.5,113.8,416.1,107.1Z" transform="translate(26.1 235.9)" stroke="#000" stroke-miterlimit="10"/>
        <path d="M546.6,410.9c-18.1,9.4-13.7,13-20.8,26.4-1.3,2.5,2.4,17.8-1.6,18-13.7.4,9.9-40.8,13.6-43.2-3.3,0-70.8-3.3-66.5,4-7.6-12.9,71.3-7.9,74.6-8.6,32.4-7.1,27.7-34.4,47.7-56-4.4.1-40.6,3-38.7-4.5.5-2.1,36.8,3.5,43.6,1.2,5.1-1.7,42.6-34.9,42.9-34.6,8.1,6.6-46.1,40.1-49.4,44.5-5.9,8.1-2.4,56.3-12.5,58.8-1,.3,4.3-44,3.3-47.5-15.3,22.7-4.4,30.8-36.4,41.5C536.6,416.1,553.1,408.8,546.6,410.9Z" transform="translate(26.1 235.9)" stroke="#000" stroke-miterlimit="10"/>
        <path d="M1118.2,43.7c5.8,0,47.5,15.7,46.1,17.2,6.1-6.7-40.6-20.5-41.3-20.5,2.5-1,29.9-6.6,28.4-10.7-3.6-9.7-52.5,21.3-57.4,25.9.7-1.5,7.4-44.1,10.9-41.3-4.1-3.4-21.2,48.8-23.3,51.6-4.1,5.4-55.5,52.4-47.6,61.5-5.7-6.6,68.4-83.7,84.3-83.8Z" transform="translate(26.1 235.9)" stroke="#000" stroke-miterlimit="10"/>
        <path d="M852.9,159.4c5.1-19.8,9.6-16.3,21-26.2,2.2-1.9,17.9-1.6,17.1-5.6-2.7-13.5-37.5,18.8-39,23-.8-3.2-19.1-68.3-11-65.7-14.2-4.5,8.4,71.3,8.4,74.6.4,33.2-27.2,34.8-43.8,59.1-.9-4.4-6.2-40.3-13.1-36.7-1.9,1,11.7,35.1,11,42.3-.5,5.4-24.4,49.4-24.1,49.7,8.3,6.4,28.7-54,32.2-58.1,6.6-7.6,54.2-15,54.5-25.4,0-1-41.9,14.1-45.5,13.9,18.6-20.1,29-11.2,32.2-44.8C855.7,148.5,852.2,166.3,852.9,159.4Z" transform="translate(26.1 235.9)" stroke="#000" stroke-miterlimit="10"/>
        <path d="M728.8,284.6c37.8,2.7,73.3-20.5,94.6-48.7,13.7-18.1,12.8-19.2,32.9-28.2,22.8-10.3,33.1-26.9,50.7-44,26.2-25.4,62.8-44.4,101.8-42.4,23.1,1.2,41,12.9,55.2,25.7,3.3,3,32.4,36.5,36.8,28.5-1.3,2.5-34.2-31.3-35.8-35.9q6.4,6.1,12.1,2.4c1-2.8-43.4-18.2-45.2-18.7-21.9-6-42.7-3.6-64.8,1.1-40.9,8.7-58.2,37.1-86.3,64.2-14.2,13.7-32.4,13-46.3,24.4s-21.9,36.2-39.2,48.2c-10.2,7-58.3,24-66.5,23.4Z" transform="translate(26.1 235.9)" stroke="#000" stroke-miterlimit="10"/>
        <path d="M985.7,224.8c20.1-3.7,18.8,1.8,32.6,8,2.6,1.2,9.1,15.6,12.3,13.1,11.1-8.1-32.9-26.1-37.3-25.6,2.6-2.1,53.7-46.2,54.8-37.8-1.9-14.8-61,37.7-64,39.2-29.9,14.4-43-10-72.1-14.8,3.6-2.6,33.9-22.6,27.7-27.4-1.7-1.3-26.8,25.4-33.6,27.9-5.1,1.8-55-1.3-55.1-.9-2.3,10.2,61,3.2,66.3,4.7,9.7,2.7,36.5,42.9,46,38.7,0,0-29.7-30.1-31.9-35.4,26,8.4,22.4,21.6,54.2,10.3C996.7,222.8,979.2,227.1,985.7,224.8Z" transform="translate(26.1 235.9)" stroke="#000" stroke-miterlimit="10"/>
        <path d="M904.6,263.4c4.4,3.7,26.3,42.6,24.3,42.8,9-1.2-17.9-41.8-18.5-42.3,2.6.8,27.1,14.2,28.6,10.1,3.5-9.8-53.9-17.5-60.6-17.1,1.5-.7,34-29,34.8-24.6-1.7-9.1-43.7,24.3-44.6,24.6-7.9,2.6-82.6,2.2-82.4,16.5-.1-8.7,106.2-20.2,118.4-9.9Z" transform="translate(26.1 235.9)" stroke="#000" stroke-miterlimit="10"/>
        <path d="M922.1,54.3c2.7-3.6,52.3-30.9,41.8-38.2,5.3,3.7-36.9,28.9-39.7,31C927.7,36,939.2,27.3,941.6,18c1.2-4.7-2.1-37.4-6.9-36.3S939,8.4,938.9,9C937,21,931.1,19.6,926.7,29.2c-8.9,19.8-9.8,43.1-20.3,62.3-.4-2.4-23.9-45.9-17.7-44.8-12.5-2.3,10.9,38,10.9,38.6,2.1,20.3-9.4,15.9-17.7,34.1-3.2,7-32.3,95.6-39.7,90.4,3.5,2.4,75.3-140.1,79.9-155.5C924.5,51.1,920.2,60.6,922.1,54.3Z" transform="translate(26.1 235.9)" stroke="#000" stroke-miterlimit="10"/>
        <path d="M765.1,154.2c3.8-4.4,43-25.6,43.2-23.6-1.1-9-42.1,17.2-42.6,17.8.9-2.6,14.7-26.9,10.6-28.4-9.7-3.7-18.4,53.6-18.2,60.3-.7-1.5-28.4-34.6-24-35.3-9.1,1.5,23.5,44.2,23.8,45.1,2.5,7.9.8,82.7,15,82.7-8.7,0-18.3-106.6-7.9-118.6Z" transform="translate(26.1 235.9)" stroke="#000" stroke-miterlimit="10"/>
        <path d="M989.8,43.2c5.1-19.8,9.6-16.3,21-26.2,2.2-1.9,17.9-1.6,17.1-5.6-2.7-13.5-37.5,18.8-39,23-.8-3.2-19.1-68.3-11-65.7-14.2-4.5,8.4,71.3,8.4,74.6.4,33.2-27.2,34.8-43.8,59.1-.9-4.4-6.2-40.3-13.1-36.7-1.9,1,11.7,35.1,11,42.3-.5,5.4-24.4,49.4-24.1,49.7,8.3,6.4,28.7-54,32.2-58.1,6.6-7.6,54.2-15,54.5-25.4,0-1-41.9,14.1-45.5,13.9,18.6-20.1,29-11.2,32.2-44.8C992.6,32.3,989.1,50,989.8,43.2Z" transform="translate(26.1 235.9)" stroke="#000" stroke-miterlimit="10"/>
        <path d="M891.7,359c19,7.5,15,11.5,23.4,24.1,1.6,2.4-.6,18,3.5,17.7,13.7-1-14.1-39.6-18-41.5,3.3-.4,70-10.7,66.5-3,6.2-13.6-71.7-.4-75-.7-32.9-3.7-31.2-31.3-53.3-50.7,4.4-.4,40.7-1.2,38-8.5-.8-2-36.2,7.3-43.3,5.8-5.3-1.2-46-30.3-46.3-30-7.4,7.4,50.1,35,53.7,39.1,6.7,7.4,8.2,55.7,18.5,57.2,1,.2-8.9-43.3-8.3-46.9,17.6,20.9,7.6,30.2,40.5,37.5C902.2,363.2,885,357.5,891.7,359Z" transform="translate(26.1 235.9)" stroke="#000" stroke-miterlimit="10"/>
        <path d="M1054.7,60c.6-2.4,3.4-1.2,5.5-1.3C1059.5,61.1,1056.7,59.9,1054.7,60Z" transform="translate(26.1 235.9)" stroke="#000" stroke-miterlimit="10" fill-rule="evenodd"/>
        <path d="M1176.4,315.5c.1-4.1,12.4-1.4,6.8,4.2q-5.3.6-6.8-4.2C1176.6,310.5,1177.9,316,1176.4,315.5Z" transform="translate(26.1 235.9)" stroke="#000" stroke-miterlimit="10" fill-rule="evenodd"/>
        <path d="M1060.9,436c.6-2.4,3.4-1.2,5.5-1.3C1065.7,437.1,1062.9,435.9,1060.9,436Z" transform="translate(26.1 235.9)" stroke="#000" stroke-miterlimit="10" fill-rule="evenodd"/>
        <path d="M1048.8,477.2c1.1-2.8,4.9-1,7.9-.7C1055.7,479.2,1051.8,477.5,1048.8,477.2Z" transform="translate(26.1 235.9)" stroke="#000" stroke-miterlimit="10" fill-rule="evenodd"/>
        <path d="M1058.5-101.8c-9.6,3.7-16.9,11-26.6,14.5C1029.7-84.2,1047-104.8,1058.5-101.8Z" transform="translate(26.1 235.9)" stroke="#000" stroke-miterlimit="10" fill-rule="evenodd"/>
        <path d="M1010.2,465.7c9.9-4.7,32.5,11.8,33.2,12.8C1027,477.5,1026.5,466.6,1010.2,465.7Z" transform="translate(26.1 235.9)" stroke="#000" stroke-miterlimit="10" fill-rule="evenodd"/>
      </g>
    </g>
    <rect x="0.5" y="1590.9" width="3420.7" height="1079.56" stroke="#000" stroke-miterlimit="10"/>
    <polygon points="388.4 1639.9 747.9 1567 1490.2 1594.2 2288.7 1560.5 2982.2 1594.2 388.4 1639.9" stroke="#000" stroke-miterlimit="10" fill-rule="evenodd"/>
  </g>
</svg>
