<svg xmlns="http://www.w3.org/2000/svg" width="184.3" height="1848.8" viewBox="0 0 184.3 1848.8">
  <title>horse-hallow5</title>
  <g id="Layer_2" data-name="Layer 2">
    <path d="M25.7,59.7c-.9,6.5,2.8,3,4.5,1.7,5.1-3.9,10.1-7.3,16.9-4.3.9.4,3,.5,1.8-1.9s.4-2.2,1.8-2.2,2.5.6,1.9,2.2c-2.2,5.9.9,9.5,5.2,12.6s4.5,4,.2,7.4l-2.5,1.7c-2.9,2-3.5,3.7.3,5.7S67,86.8,69.6,91.3c3.5,6,9,6.3,14.1,7.8s11.1,2.5,15.4-.5,7.1-2,10.7-.3,13.5-2.9,14.8-5.6.2-3.1-.7-4.6-2.6-4.7-3.9-6.9-1-2.5.4-3.4c7.4-5.1,9.2-14.3,14.9-20.7a13.8,13.8,0,0,0,2.7-4.7c1.3-3.8,6.7-7.2,10.2-5.7s8.2,3.3,11.6,6.2,4.2-.3,5.9-1,1.4-3-.3-4.8c-5.2-5.6-9-12.4-15-17.3-2.2-1.8-3.6-7.1-7.4-1.5-.4.6-2.2.3-3.4.4s-2.8-.6-3.8.5c-3.2,3.5-5.4,8.2-11.5,7.2-.5-.1-1.5.8-1.9,1.5-1.7,3.4-3.4,1.9-5.7.5-4.9-3-4.3-10.6-7.5-15.3,4.4-.7-1.8,6-.4,2.1s-5.8-3.1-5.8-3.1c-2.1-1.2-3.8-1.1-3.6,1,.7,7.6-1,4.5-.8,4.2-3.3,2.8-3.5,1.7-6.6,4.7-1.1,1-2.5,2.9-.4,3.5,4.3,1.1,8.6,5.3,13.4,1.2,1.2-1,2.1-2.8,2.9-1.7a32.8,32.8,0,0,1,4.4,7.5l-6.5,1.4c2.1,1.9,3.8,3.5,5.6,4.8s2.3-1.6,2-.3A67.6,67.6,0,0,1,110,60.2c-.1.3-2.5.4-3.3-.2a21.2,21.2,0,0,1-4.2-4.6c-.5-.7-.5-1.8,1.3-1.5s2,.1,1.2-1.6c-2.1-4.2-9.9-7.8-15-8.2-3.2-.2-6.5,0-9.7-.3-6.6-.6-13.8-3.5-19.9,1.1-9.9,7.5-21,5-31.6,3.8-4.2-.5-5.6,1.4-5.6,4S19.9,59.3,25.7,59.7Zm82.4,28c4.6-5.7,9.2-5.2,13.1,1.3.9,1.5,1,2.7-.7,3.7s-5.2,2.8-9,2.9a5.2,5.2,0,0,1-5.6-3C104.8,90.4,107,89.1,108.1,87.6ZM80.4,68.8c.5-1.1,1.6-1.1,2.6-.5,6.2,3.9,13.4,5.7,20,8.8,2.3,1.1,3.2,2.3,2,4.6-2,4-3.9,8.1-6.2,11.9s-6,4.3-9,.2S82,89.6,78.1,87.5c-1.9-1-4.2-1.6-4.1-4.7C76.1,78.1,78.2,73.5,80.4,68.8ZM73.6,91.5c.5-2,2.1-1.3,3.2-.8,2.9,1.2,5.6,2.6,8.5,3.9-3.5,2-6.5.6-9.7.1S73.2,93.1,73.6,91.5ZM61.4,80.7c.6-3.4,3.9-4.7,6.9-5.6,1.3-.4,1.6.8,1.4,2.2s-.4,6.1-4.2,6.6C63.9,84.1,61,82.9,61.4,80.7Z"/>
    <path d="M26.4,186.5c.5-3.2,3.5-3.1,5.4-4.6,4-3.1,7.9-4.2,12.5-1.4.8.5,3.3,1.8,2.6-1.3s1.3-2.6,2.8-2.7,2.5,1.4,2.2,3c-1.3,6.3,2.6,9.1,7.3,11.6,8.1,4.1,8.1,4.1,2.9,11.3l-.3.4c-2.4,2.8-2,5,1.8,5.5,10,1.4,17.4,8.6,26.5,12.1a29.8,29.8,0,0,1,11.3,7.7c.2-.8.4-1.2.3-1.4l-3.1-5.6c7.1,2.5,7.3,2.4,9.6-5,1.1-3.3,2.4-6.5,3.6-9.8s2.4-3.2,4.7-2.6c3.8,1.2,7.6,2.4,11.3,3.9s3.1,2.7,1.4,5.1c-2.9,3.9-5.9,7.6-10.9,9.1-1.6.5-3.1,1-3.1,3.5,5.2-1.4,10.4-1.7,13.1-7.1,1-1.9,2.7-3.4,4-5.1s2.1-5.4-1-7.6-3.9-3.1-6-4.5-1.7-2-.4-3.8a64,64,0,0,0,7.4-11.8c1.9-4.3,4.9-8,6.8-12.5s9.2-5.1,15.2-1.2c4.4,2.8,8.2,4.1,11,3.7s3.4-2.8,1.9-4.6c-3-3.6-5.3-7.7-8.2-11.3a82.9,82.9,0,0,0-9.1-9.2c-2.6-2.3-5.3-1.1-8.3-.2s-4.9.7-6.8,2.9-4,6-7,4.4-5.2-.4-6.7,1.6-3,1.7-4.6.1-2.3-2-3.3-3.1-3.1-9.7-1.4-10.2c3.5-1-8.8,3.4-7.7.6s5.5-1.9,4-2.9-2.6-3.8-5.3-2.8-3.6,1.8-3.3,3.9,7.4-3.9,5.5-2.6a98.9,98.9,0,0,0-12.6,9.8c-1,1-2.6,1.8-1.2,3.7s10.9,4,13.7,2.4c.9-.5,1.7-1.9,2.9-.4s3.7,4,4.5,6.3-2.4.8-3.7,1.5a5.5,5.5,0,0,0-1,.8,7.2,7.2,0,0,0,4.7,3.6c2.5.7,4.1,2.4,1.2,4.7a3,3,0,0,0-1.1,2.5c-.8,6.6-1.4,6.7-7.2,2.8-1.2-.8-2.9-.8-2.7-2.8s2.7.7,3.6-1.7c-4.7-4.1-7.7-10.7-16.5-9.2-5.6.9-11.7-.2-17.4-1s-11.4.9-16.2,4.8a13.8,13.8,0,0,1-12,3.1c-5.4-1-10.9-1-16.4-1.2s-8.2,3.2-6.7,5.3S22.9,184,26.4,186.5Zm54.8,6.2c.3-1.4,1.5-.9,2.4-.3,5.4,3.4,11.4,5.5,17.4,7.4,2.2.7,4.8,2,4.1,5.3s-1.2,7.2-1.4,10.9-2.2,3.5-4.4,2.3a76.1,76.1,0,0,1-10.5-6.6c-2.2-1.7-3.7-4.3-7-3.9a1.8,1.8,0,0,1-1.4-1.2A49.9,49.9,0,0,1,81.2,192.8Zm-13,11.3c.4-2,1.1-4.5,3.3-4.5s1.8,3,2.3,4.4.2,3.7-2.1,3.3S67.6,206.8,68.2,204.1Z"/>
    <path d="M27.9,311c1.8.8,1.8-.8,2.4-1.4s2.7-5,5-4.2,6.8-2.6,10.1.5c.7.7,3-.3,2.9-2.3s1.1-2.3,2.5-2,1.6,1.6,1.4,2.7c-1.2,5.5,2.2,8.3,6.2,10.8a68,68,0,0,0,7.7,4.6c4.2,1.9,4.6,4.8,2.7,8.4s-1.4,6.3,3.5,6.6c1,.1,2.3.2,2.8.8,4.5,6.2,11.2,9.9,16.8,14.7,8.2,6.9,5.9,6.3,11.1,6-4.2-8.4-13.8-11.4-19.5-18.9,6.4-1.2,8.6,3.9,12.2,7.2.4-6.5-2.8-10.5-8.4-11.7-1.9-.4-4.8.6-5.3-2.4s-.7-7.3-1-10.9c-.2-1.9.2-3.1,2.4-1.8,5.1,3,10.9,3.9,16.4,5.8,2.6.9,5.8,1.3,7.2,4,2.2,4.3,3.9,8.7,5.9,13.2-7.1.9-11-1.4-13.3-7.8-.5-1.4-1.3-2.4-2.7-2.5s-1.3.8-1.4,1.7c-.1,2.6,6.1,10.4,8.7,10.9l6.8,1.4c4.4.9,6.2-.8,5.5-5.3-.3-2.1-.7-4.3-1.2-6.4-.9-3.9.3-5.7,4.4-5.1s8,.8,11.9,1.5c2.1.4,4.7,1,4.2,3.9-.8,4.5-1.6,9.1-4.2,13.1-1.1,1.7-2,3.2-.8,6,2.5-4.3,5-7.5,6.3-12,2.6-8.7,2.1-14.7-7.9-17.1-2-.5-3.1-2-1.7-4.1,4.6-6.9,7.7-14.6,12.6-21.4,3-4.1,5.6-4.5,10.6-2.5s7.9,7.6,14.1,6.4c2-.4,3.8-2.9,2.5-4.6-5.3-6.6-9-14.4-15.2-20.3-1.9-1.8-3.8-2.1-6.7-1.4-5.8,1.5-11.8,2.2-17,5.5a2.7,2.7,0,0,1-2.4.2c-2.6-2-4.2.2-4.9,1.7-1.8,3.6-3.3,2.3-5.1.3s-2.6-2.4-3.1-3.9-3.4-6.8-.4-8.8-6.2,6.1-4.6,3.7c3.1-4.5-1.8-5.4-3.2-6.9s-5,.5-5.2,2.5c-.5,4.4,6.2-4.2,3.4-2.1s-6.8,5.3-10.2,8c-1,.8-2.2,1.6-1.5,3.3s10.2,5.1,11.9,4.2,6.7-.2,8,3.9-3.4,1.1-4.2,3.9c4.6,2.6,5,7.2,4.4,12.1-.1,1.1.4,2.5-1.2,2.9s-2.7.4-3.6-.9-.9-1.7-1.5-1.8-3.4.1-3-2.2,2.9,1,3.6-.6c-1.3-7.4-8.5-9-12.6-13.5-.7-.7-2.8-.8-1.9,1.2s.1,2.8-1.8,2.2c-4.6-1.4-9.3.1-14-.8a23.7,23.7,0,0,0-20.8,5.8c-1.9,1.7-4.3,3.2-7.3,2-5.7-2.2-11.9-1.5-17.8-2-3.5-.3-7.1.9-8.7,4.5C20,301.8,25.6,309.9,27.9,311Z"/>
    <path d="M31,556.5c3.7-3.7,8.9-3.9,13.3-6.7.9,2.7.9,8.1,4.8,1.9.9-1.4,2.3-1,3.6-.8a1.7,1.7,0,0,1,1.5,2.1c-1.9,7.2,2.3,12.7,5.7,18s2.4,8.2-.6,12-3.3,6.1-1,10,3.5,7.9,5,12c2.2,6,4.5,6.6,9.9,2.1-2.8-1-5.8-1.1-7.4-4.4-3.4-6.9-4.1-13.2,1.8-19.2,1.7-1.7,2.6-4.2,4.1-6.2s1-3.7,3-3.5,2.2,2.5,2.4,4c.8,6.5,5.2,9.3,10.6,11.7s10.1,5,15,7.6c.9.5,1.7,2.7,2.5.4s2.5-2.8-.4-3.9-4.3-2.6-6.7-3.3c-10.1-3-14.7-10-15.8-20.1-.3-2.6.1-3.4,2.7-2.8,14.7,3.2,29.3,7.2,44.2,9.4,1.7.2,3.8.7,3.5,3.3-.5,4.1-7.3,9-11,7.1s-3.4.5-4.9,1.9c8.7,3.1,10.8,2.5,15.8-4.2,1.2-1.6,3-2.9,3.7-4.7s2.1-1.9,3.8-1.3c5.1,1.7,7.7,5.9,11.1,9.7s2.7,8.3,8,9.2c-3.8-9.9-8.8-18.9-18.7-24.1-3.2-1.7-7.3-2.7-9.2-5.7s2.3-4.6,2.8-7.4c1.4-6.8,6.1-11.7,10.8-16.4a4.4,4.4,0,0,1,6-.6c3.6,2.7,7.5,5.5,10.1,9.1s3.3,2,4.9,1.5a3.5,3.5,0,0,0,2.3-4.7c-3.1-7.7-5.4-15.8-10.6-22.5-1.8-2.2-4.1-4-7.3-1.7a4.2,4.2,0,0,1-4.7.3c-1.7-.9-3.2-.2-5.1.4-6.3,2.1-12.8,3.5-18.6,6.9a2,2,0,0,1-1.8-.3c-3.6-3.5-7.2-7-7.7-12.4-.1-.9,0-2,.9-2.1,3.7-.5-7.6,9.3-5.7,6.8,3.2-4.1-.6-5.6-2.4-6.9a3.9,3.9,0,0,0-6.3,2.5c-.7,4.1,8.4-7.5,5.6-5.6s-7.1,5.5-10.7,8.2c-1.1.9-2,1.8-.7,3.3s9.6,4.1,12.8,2.9a2.3,2.3,0,0,1,3,.8l4.7,5.6c-1.6.6-2.9,1.2-4.3,1.6s-2.6,1.3-.9,2.6c3.4,2.6,3.5,6.1,3,9.9-.2,1.5,1.6,3.5-.9,4.3a3.7,3.7,0,0,1-4.4-1.4c-2.2-2.7-3.4-6.6-4.4-4.4.2-4,.2,2.1,3.6.5,1.5-.7.5-1.9.1-2.9-2.2-5.7-7.5-7.8-12.3-10.8-.2,3,3.2,2.9,3.5,4.4-7.7,0-15.3.4-22.9-.1a22.2,22.2,0,0,0-15.4,4.5c-2.8,2.1-6,4-9.7,2.4s-9.4-2-14.2-2.6-7.1-.2-8.9,2.9.5,5.6,1.6,8.3S29.7,557.8,31,556.5Z"/>
    <path d="M26.2,1080.3a25.3,25.3,0,0,1,6.2-4.2c1.1-.6,2.5-1.6,3.7-.6s-.1,2.4-.6,3.6c-1.8,4.5-3.7,8.9-5.6,13.3-.8,1.8-1.2,3.6.6,4.9s2.6,3.6,1.1,6.1c2-1.8,4.2-3.3,2.1-6.4-1-1.4-.5-3.5,0-5.3,2.1-7.5,6.8-12.5,13.4-16.4s12.6-6.4,18-11.3a17,17,0,0,1,17.1-3.7c10,3,20.2,6.4,31,4.5,3.3-.6,5.1,1.1,5,4.4-.4,9.5,2.3,18.7,3.4,28,.6,4.7,3.5,5.7,8,2.7-2.9-1.1-5.9-2.3-6.2-5.8-.6-7.2-2.6-14.2-.3-21.6,1.3-4.4,2.2-7.5,8-5.7,9.9,3,20.2,4.9,26.3,14.5,2.1,3.3,5.8,5.1,7.6,9.3.8-2.3.4-3.6-.6-4.8-6.8-7.8-12.3-17-22.4-21.4-3.9-1.7-6.4-3.6-5.2-9.8s5.9-11.6,11.3-15.3c1.9-1.3,6-2.4,7.1.6,1.8,4.6,7.3,5.4,8.8,10.1.7,2,3.5,2.2,5.4,1.4s2.1-2.5,1-4.6a22.9,22.9,0,0,1-2-7.2c-.8-5.7-3.6-10.7-5.7-15.9-.5-1.2-1.8-4.4-3.7-2s-3.3,1.5-4.8-.4a4.7,4.7,0,0,0-4.3-2.1c-7.3.7-15,.3-21.2,5.5a3.3,3.3,0,0,1-4.2.4c-5.1-3.5-10.1-7-14.3-11.6-1.1-1.2-3.3.5-1.3,0,3.7-.9-3.2,10.9-2.1,8.2s-1.7-4.9-3.7-5.7a3.3,3.3,0,0,0-4.5,3.3c.3,4.1,6.5-12.2,4.1-10s-6.7,6.5-10,9.8c-.8.8-1.9,1.5-.8,2.9,2.4,3.2,10.6,3.8,13.4.9,1.2-1.2,2.2-2.9,4.1-1.5s5.8,4.6,9,7.2c-2.8.8-5.3-.2-7.4,1.2s-5.3,1.1-5.3,3.6,1.9,3.7,4.7,4.5,3.3,2.9.5,4.9-2.9,2.4-3,4.4,1.1.6-1.7,0-6-1.2-5.7-3c.9-4.9-1.7-8.1-6.6-7.9s-12.8,1.7-19.1.2-9.5-.9-14.4-.5c-11.4,1.1-22.9.3-34.3-.7-3.3-.3-4.4.7-4.1,3.6a20.6,20.6,0,0,0,1.2,5.8c.6,1.5,2,3.4,3.8,2,6.9-5,16.4-1.4,23.1-7a1.9,1.9,0,0,1,2.7.3c.7.8.1,1.7-.5,2.2-4.6,3.9-5,9.7-6,15s-5.1,8.9-10.1,10.7a18.3,18.3,0,0,0-5.7,3.7c-5.4,4.6-10,11.1-18.7,8.6a1.7,1.7,0,0,0-2.2,1.4C15.9,1085.2,21.2,1085.6,26.2,1080.3Z"/>
    <path d="M26.1,1198.3c2.8-1.9,5.6-3.8,10.1-3.5-3.7,2.8-5.5,6.3-7.9,9.2s-7.2,9.3-12.3,11.2c-3.5,1.3-3.8,3.2-5.3,6.7,6.5-3.5,11.9-5.9,16.5-10.7,8.7-9.1,17.3-19,30.8-21.6a4.4,4.4,0,0,0,2.4-1.6c5.2-7,12-6.9,19.3-4.5a147.9,147.9,0,0,0,26.7,5.7c2,.3,3.7.9,2.4,3.5-3.5,7.6-3.7,16.1-6.7,23.8-1.7,4.5,0,6.7,3.8,8.5,1.1.5,1.9.7,2.5-.2s-.2-1.5-.9-1.9-3-3.2-2.5-5.5c2.1-8.9,4.8-17.7,10.4-25.2,2.3-3.1,6.4-4.8,10.1-3.1s7.5,3.4,10.8,6.1c9.2,7.5,17.8,15.7,28.9,20.4,1.1.4,1.9,1.5,3.1.7s1.1-1,1.1-1.5a3,3,0,0,0-2.7-2.5,16.7,16.7,0,0,1-8.2-3.5c-7.8-5.7-14.3-12.9-20.6-20.2-3.5-3.9-3.1-12.5.4-16.5a40.1,40.1,0,0,1,9.9-8.3c2.4-1.4,5.9-3.1,7.5.2s7,5.2,8.5,9.6c.8,2.4,4.2,2,5.8,1.7s2.6-2.7,1.3-5.3-1.7-6.1-2.5-9.1a37.5,37.5,0,0,0-7.2-15.1c-1-1.2-2.4-3.2-4,.1s-2.4,1-3-.7-1.6-3.2-3.6-2.6c-3.6,1.1-7.4-.1-10.9.6s-9-.8-10.5,5.2c-.2.6-2.2,3.2-4.1,1.6-5.2-4.4-11.1-8-15.4-13.4-.8-1.1-3.8-.7-1.6-1.1,3.9-.7-2.4,8.9-1.1,6.3,2.1-4.2-6.7,1.8-8.7,1s2.9-13.5,3.2-11.3c.6,4.7,2.2-.7-.3,1.7l-9.4,8.9c-.8.8-2,1.5-1.2,2.9s11.2,4.1,13.5,1.9,2.1-3.8,4.3-2,5.6,3.9,7.8,7.1c-2.5.3-4.5.3-6.2,1.4s-4.8,1-4.8,2.8,1.7,4.3,4.8,4.8c1.2.2,3.9,2.4,1,4.8s-3.1,3-3.4,4.8c-.7,3.6-.5,3.8-3.3,2.8s-.4-5.5.8-7.6-4-2.4-5.6-3.5-1.9-4.5-5.4-4c-6.9,1.1-13.8,2-20.8.2a29.9,29.9,0,0,0-11.9-.7c-9.7,1.5-19.6-.6-29.4,1.4-2.1.4-4.3-.4-6.2-1.5s-2.8-1.4-3.7.6-2.4,6.6-.3,9.9c.6,1,1.3,2.7,3,1.4s5.8-1.3,8.4-3,4.4-1.7,5-1.1c3.2,3.4,5,.3,7.2-1s2.6-2.1,4-2.9a3.3,3.3,0,0,1,2.4.2.9.9,0,0,1,.3,1.6c-5.9,5-5.5,12.6-7.6,19.1-1.3,3.9-4.5,5.2-7.7,5s-4.5,1.2-6.5,2.7c-5.9,4.2-10.9,10.4-19.5,9.1a3.3,3.3,0,0,0-3.4,2.9C17.9,1203.8,17.9,1203.8,26.1,1198.3Zm84.2-41c5.2-2.3,5.2,2.7,7.7,3.6C113.7,1163.6,113.8,1158.1,110.3,1157.3Z"/>
    <path d="M162.5,1269.3c-1.2-1.8-2.3-5.4-5.4-1.6a2.2,2.2,0,0,1-3.2.4c-3.7-3.6-8.8-1.6-13-3.2a4.8,4.8,0,0,0-5.4,1.7c-.6,1-.3,1.8-1.8,1.1-4.9-2.2-2.9,3.4-4.9,4.4.9.6,1.8,1.3.4,2.2a2.3,2.3,0,0,1-2.8-.4c-6.6-5.1-13.5-10.1-18.2-18,5.4.1,1,9.6,2.1,5.9s-.6-3.8-3-4.2-5.5-1-5.1,2.4,2.9-7.7.8-5.8-5.7,4.6-8.3,7.1c-4.8,4.6-4.7,4.5,1.1,7.8,2.9,1.6,5.7,3.7,8.2.1s4.1-2.4,6.4-.2,3.2,2.8,5.4,4.7a75.3,75.3,0,0,1-7.2,2.7c-4.4,1.1-2.6,3.1-.9,5.1s2.1.9,3.1,1.3c2.8,1.2,3.1,3.9.5,5.4a6.5,6.5,0,0,0-3.3,4.7c-.6,3.8,0-.1-2.2-.8s-5.5.3-4.7-1.8c1.7-4.6-3.7-11.4-8.5-10.6-7.5,1.3-15,1.5-22.4-.6a8.6,8.6,0,0,0-3.5-.2c-10.5,1.5-21.3.7-31.8,2.5a16.3,16.3,0,0,1-6.9-.4c-1.5-.4-2.2-4.1-4.3-1.7s-3.8,4.1-3.3,7.4,1.5,5,5.5,4.1,8.6-1,12.4-3.3c.5-.3,1.1-1,1.5-.1,1.5,4.8,2.9,2.4,5.2.4s2.7-2.8,4.1-4a1.9,1.9,0,0,1,2.7,0c.7.8-.1,1.5-.7,2-4.3,3.7-5.3,8.8-5.4,14s-2,6.9-6.7,5.5c-3-.8-4.6.2-5.9,3s-3.7,6.3-5.4,9.5c-2.6,4.8-6.5,6.4-11.7,5-1.8-.5-3.7-1.6-5.7-.5-.3,1.5.8,2.2,1.4,3.1,4,5.8,6.1,6.2,11.8,2.2,11.2-8,23.2-14.1,37-16.1,2-.3,2.8-1.5,3.7-2.9,3.5-5,7.6-6.6,13.3-4.6s13.3,4.3,20.3,5c1.5.1,2.7,1.1,4,1.6,3.3,1.4,2.5,2.5.8,4.8-7.3,9.9-15.6,19.3-17.4,32.4a3.5,3.5,0,0,0,1.6-1.8,11.6,11.6,0,0,0,1-1.6c4.7-13,14-22.4,24.3-30.8,2.9-2.3,7.9-4.1,11.6-1.9a30.4,30.4,0,0,1,9.6,8.5c5,7.2,12,12.8,16.6,20.5,1.6,2.6,4.7,4.4,6.5,7.4-.4-1.8,1.6-3.3-.3-5.2-9.3-9.5-16.1-20.6-22.2-32.3-.5-1-1.4-2.4-1.1-3.2,2.4-5.4.6-12.8,7.9-15.7,1.6-.6,2.7-2.5,4.2-3.4s1.3-3.1.5-3.6c6.5-3.3,10.6,1.3,14.9,5.5a52.5,52.5,0,0,1,3.7,4,5.3,5.3,0,0,0,5.6,1.4c.8-.3,2.4-1.3,1.5-3.1C167.9,1285,167.3,1276.3,162.5,1269.3Zm-38.9,16a1.9,1.9,0,0,1-3.2,1c-3.2-2.4-7.5-3-9.8-7.3,2.5-.5,4.7-1.4,6,1.8s3.3,1.8,5.2,2.1S124,1284,123.6,1285.3Z"/>
    <path d="M24.5,1409.9c-2,3.2-.5,5.3,3.2,5.5a24.6,24.6,0,0,0,12.1-2.6c.9-.4,2.3-2.1,2.8-.4,2,6.8,3.4.8,4.4-.3,4.8-5.4,4.8-5.4,9.3-3.4-6,2.3-7.1,4-6.5,9.9a24,24,0,0,0,.8,3.9c1.1,4.1-.2,5.9-4.7,5.4-2-.2-4.9-1.8-6,.5-2.1,4.4-6,6.9-9.4,10.1s-7.9,7.8-14.2,4.9a1.5,1.5,0,0,0-2.2.5c8.3,5.4,8.3,5.4,15.6-.3a26.1,26.1,0,0,1,3.2-2.4c2-1.1,4.3-3.1,6.3-1.6s.4,4.1.5,6.2-1.5,3.1-3.2,4.1-3.6,1.2-4,3.3c5.8.8,9-1.5,9.5-6.7a41.9,41.9,0,0,0,.3-5.5c-.1-2.7,1.2-3.5,3.6-3.5a54.6,54.6,0,0,0,14.8-1.9c3.8-1,7.2-2.1,9.1-6.4s4.3-5,8.2-3.2a66.7,66.7,0,0,0,19.2,5.4,18.1,18.1,0,0,1,6.1,2.2c1.8.9,2.6,2,1.1,3.9-6.6,8.1-11.3,18.4-23.6,19.6a31.3,31.3,0,0,1-3.9.6c-2.5-.1-3.2,1.3-3.6,3.5,4.2-1.8,8.7-.1,12.8-2.1,6.9-3.4,13.5-6.9,18.3-13.3,2.1-2.8,4.9-5,7.5-7.3,4.3-3.7,8.6-3,9.5,1.9,1.6,8.7,5,16.9,7.2,25.3,1.1,4.1,2.8,6.3,7,6,.8,0,2.3,2.4,2.8-.7s-.1-2.7-2-2.9-4.5-2.5-5.2-5.3c-2.6-11.7-5.2-22.8.6-35.1,3.7-7.9,8.7-13.7,14.2-19.7,2.3-2.5,5.1-3.2,7.8-.5s6.9,4.5,9.1,8.3,4,1.9,5.8,1.4,3.1-2.5,2.2-4.4c-4-8.5-7.7-17.3-13-25.2-1-1.5-2.5-2.4-3,.2-1,4.5-3.7,3.8-6.2,2-4.1-3-8.1-2.7-12.4-1-1.2.5-2.2,1.4-3.5,1.8s-4.3-2-4.6,2.2c-.1,1.8-1.8,3.5,0,5.7-3.1,0-4.2-2-5.6-3.2-4.5-3.6-9.5-6.8-12.1-12.3-.5-1.1-2-.7.3-1.1,4-.8-9,6.8-7.9,4s-1.6-5-3.6-5.8a3.5,3.5,0,0,0-4.6,3.3c.3,5,9.6-6.3,6.7-3.8s-5.9,5.4-8.8,8.1c-.7.7-1.6,1.4-1.2,2.5s11,4.9,12.3,3.2c3-3.9,5.1-2.1,7.5.4s2.9,2.7,4.8,4.5c-2.5.9-4.2,1.8-6,2-5.1.6-2.8,3.4-1,4.5,4.4,2.7,4.6,5.3,1.2,8.8a3.4,3.4,0,0,0-.7,1.8c-.4,2.8-1.8,3.7-4.5,2.7s-3.6-3.1-2.1-5.4.9-4.2-.7-5.3-4.4-5.9-8.1-5a45.2,45.2,0,0,1-20.7.2,22.9,22.9,0,0,0-8.9-.5c-8.2,1.4-16.4,2.8-24.5,4.5-4.8,1-9.4,1.9-12.5-2.4C24.2,1405.3,25.7,1408,24.5,1409.9Z"/>
    <path d="M152.5,1531.6c2.7,2.6,6.7,3,8.8,6.4s3.9.7,5.4-.2,1.9-2.7.8-4.8q-6-11.2-13.1-21.8c-1.5-2.3-3.1-2.2-3.9.1s-3.2,3.6-5.4,2.5c-4.7-2.4-8.8-1.1-13.3.5s-7,4.5-5.7,9.3c-3.3.3-3.4-3.1-5.3-4.5-4.2-3.1-7.1-5.9-9.6-10.8-.7-1.4-2.7-4.1-.4-4.5s-4.6,7.2-2.3,5.7c5-3.3-1.3-5.1-3.3-6.2s-5,1-5.1,3.2c-.2,4.7,3.4-5.7.6-3.3s-5.9,5.4-8.8,8.1c-.8.8-1.9,1.5-1.2,2.9s10.6,4.6,13.1,2.4,2.2-2.2,3.7-.7l6.7,6.8-8.3,2.2c.8,6.1,4.8,2.7,8.6,2.6-5.7,2.6-2.6,4.4.6,6.7-4,.2-5.6,2.5-6,4.8-.9,5.2-3.9,3.4-6.5,2.3s-2-3.6-.3-5.5.9-.7.9-1.6c-.2-3-8.2-8.3-11.1-8.1s-7.6,1.5-11.6.9c-6.5-1-13-3.1-19.8-1.4s-13.9,3.3-20.8,5.3c-5,1.5-9.8,2.5-13.8-2.5-1,2.4-1.9,4.3-2.6,6.3s-.4,5.4,3.8,5.5,8.7,0,12.3-3c.7-.6,1.8-1.6,2.6-.8s3,5,5.4.3c.5-1,2,.8,2,1.9.1,2.8,1.2,5.2,2.2,7.6,1.8,4.5.6,6.1-4.4,5.6a10.1,10.1,0,0,1-2.9-.8c-3.3-1.5-5.2-1-6.8,2.8-3.1,7.2-6,14.9-14.1,18.3-.6.2-1.3.6-.8,1.1,7,.8,10.2-3.5,12.8-8.8a18.5,18.5,0,0,1,3.1-5.1c1.7-1.7,4.5-2.9,5.8-.1,2.9,6.2,8.4,12.2,2.6,19.6-.3.4,0,.9.9,1.2l1.4-.9c5.9-5,2.6-10.1.3-15.2s-2.2-5.1,3.4-4.7,12.1,1.5,16.4-4.7a25.7,25.7,0,0,0,2.9-4.1c.8-1.9,2-3.2,4.6-1.8,7.6,3.9,15.8,6.2,23.9,8.5,2.5.7,3.5,1.9,2.4,4.3-1.9,3.9-3.8,7.7-5.9,11.5s-5,3.2-7.9,2.3-8.6-1.3-12.4-3.5c-1.5-.9-2.8-.5-3.7,1.3,6.1,2.1,11.6,5.2,18.4,5.7,5,.3,7.8-.9,10.2-4.9s3.6-6.2,7.6-8.1a69.3,69.3,0,0,0-.6,8c.3,6.6-1.6,13.1-.2,19.6,2.8,0,6.1,3.9,8.8-1.3-6.5-.5-6-4.8-5.4-9.1a135.3,135.3,0,0,1,3.3-17.1c1.1-3.9,2.8-6.7,6.9-7.5a4.5,4.5,0,0,0,3.6-2.5c3.8-8.6,10.6-15.1,16-22.6C145.3,1528.6,148.5,1527.8,152.5,1531.6Zm-101,2.3c-.6.8-1.6,1.4-2.4.2a2.4,2.4,0,0,1-.2-1.8,2,2,0,0,1,2.3-1.4c1.9.3,3.9.4,5.4,2C54.9,1535.1,52.9,1532.1,51.5,1533.9Z"/>
    <path d="M98.8,1715.8c-4-7-3.1-9.9,4.4-13.5a5.1,5.1,0,0,0,2.7-3.3c.9-2.7,1.8-5.3,2.8-8,1.5-4.3,3.7-7.6,8.7-8.5,3.3-.6,7.2-2.4,7.9-5.5,1.4-5.6,5.7-8.3,9.1-12s5.5-5.7,7.3-9.4a9.5,9.5,0,0,1,5.1-4.6c2.8-1.2,4.7.9,6.9,1.9s-.5,2.1-.1,3.5c3-.8,5.7-.6,7.9,2.2s4-.3,5.7-.9a2.7,2.7,0,0,0,1-4.2c-5.1-6.7-8.3-14.8-14.7-20.6-2.2-2.1-4-3-5.5.6-.8,1.8-2.1,3.3-4.2,2.3-6.7-3.3-10.5,2.3-15.4,4.8-2.1,1-3.4,4.8-6.3,2.4-4.9-4-9.1-8.7-11.7-14.7-.4-1-1.6-2.4.4-2.6,4.2-.2-3.1,4.3-1.8,1.8s-1.1,1.8-3,.8-5.2.8-5.3,3c0,4.4,3.7-9.2,1.2-7.1s-5.2,4.2-7.5,6.5c-5,5-4.9,5,1.4,8.2,2.5,1.2,4.9,3.6,7.5.5s4-1.6,5.9.6,3.1,2.8,5.5,4.7l-9.4,2.5c4.4,4.3,8.6,8.1,4.8,14.4-.8,1.3-.4,3.2-2.9,3.1s-1.5-1.6-3.4-2.7-3-3.5-.4-3.8c.8-.1,1-.7.9-1.4-.3-2.7-9.5-9.5-12.3-9.1-7,1.2-14,1.5-21-.5a13.4,13.4,0,0,0-5.4-.2c-8.5,1-16.3,4.7-24.4,7-6,1.7-12,3.9-17.4-1.7-.8,3.2-1.9,5.8-2.3,8.7s.3,4.7,3.8,4.6c5.1-.1,10-.8,14-4.3,1.4-1.2,2.5-1.5,3.7.1a7,7,0,0,0,3.8,2.2c2.3.8,7.3,8.6,6.3,9.5-2.5,2.4-5.6,1.1-8.5.5h-.5c-3.1-.7-4.5.4-4.1,3.6s.9,8.3,1.3,12.4.4,6.9-3.9,8.7c-1.2.5-2.9,1.8-2.5,3.9,7,.4,10-3.2,9.7-10.7-.1-3.1-2.6-7.6.4-9.1s4.7,3.4,7,5.4c4.7,4.3,10.1,8.5,7.2,16.2a.8.8,0,0,0,.8,1c4.7-4.5,4.9-8.6.7-12.9-1.7-1.8-3.3-3.7-5.2-5.4s-1-3.1,1-4,2.6-.2,3.9-.4c4.5-.7,9.5,0,11.2-6.5.8-3.1,3.4-6.7,8.5-3.4s11.8,5.1,18.1,6.9c2.6.7,6.5,1.2,5.3,5.1s-3.7,9.8-7.7,13.6h-.5c-3.3-1.5-7.5-1.9-9.5-5s-3.8-2.1-7.3-1c5.7,2.9,8.6,8.1,14.5,8.8,2.9.3,2.7,1.8,1.4,3.7s-1.4,2.7-2.3,3.9-2,4.5.9,6.1a3.2,3.2,0,0,1,1.7,2.4c.4,3.2,2,1.7,3.4.8h.1C98.6,1717,99,1716.2,98.8,1715.8Z"/>
    <path d="M92.6,1825.5c.8-.7,2-1.8,3.1-1.1,4.1,2.6,8.5.6,12.7,1s5.2-1.8,5.1-5.2-.4-5.7-.7-8.5.3-5.3,4-6.1a10.3,10.3,0,0,0,7.3-5.6c4-8.7,11.2-15.2,16.2-23.2,3-4.7,5.6-4.8,10.7-2.2,2.4,1.2,3.2,2.3-.3,4.2,4.1-.9,6.9-1,9.5,2.2,1.4,1.7,4.3-.4,5.9-1.5s1.3-2.8-.1-4.7c-4.7-6.4-8.7-13.3-13.7-19.6-2.4-3-4-3-6-.2s-3.1,3.5-4.9,2.9c-6.9-2.1-10.7,3.9-15.3,6.5s-4.8,1.5-6.7.1c-6.1-4.5-8.1-11.8-12.1-17.8,4.2,3.7-.8,7.2,1,1.9a43.1,43.1,0,0,0-2.1,4.2c1.4-2,1.1-3.6-1.4-4s-6.1-2.6-6.7,1.1,6.6-4.7,4.2-2.7-6.9,5.8-10.4,8.5c-1.4,1.1-2.1,2.3-1.3,3.8s11,4.6,13.3,3,2.6-.9,3.9.3,3.4,2.6,6.1,4.6l-8.4,2.1c2.9,4,2.9,4,6.4,5.6.4.2,1.4-.3.7.9s.4,5.3-1.6,8.5-4.6,3-6,1.5,1.4-.8-.4-.5c1.9-.9-5.1-5.9-.2-4.3.5.1.8-.9.6-1.6-.6-2.6-11.2-10.8-13.6-10-6.6,2.2-13.3,1.4-19.8.1a20.4,20.4,0,0,0-13.9,2.1c-6.6,3.3-13.6,5.3-20.6,7.6a16.1,16.1,0,0,1-11.3,0c-4.9-2-5.3-2-5.4,3.4a31.5,31.5,0,0,0,.5,5.8c.5,2.6,1.9,4.2,4.9,3.4s8.4-2,12-4.7,9.5-1.2,11.6,1.8,3.9,5.7,5.9,8.6c-2.1,1.9-4.9,1.9-7.4,2.5-4.9,1.2-5.4,2.7-2.4,6.7l4,5.1c4,5,9.1,9.8,2.4,17.6,4.1-1,4.8-3.4,6.2-5.4,4-5.7-2.9-8.2-3.8-13.2,8,4.4,16,7.5,19.7,16,1.6-.7,1.5-1.8,1.5-3-.1-6.7-5.4-9.1-10.2-11.6s-3.5-4.1-.6-6.5c1-.8,2.4-1.2,3.4-2,3.5-2.5,8.4-3.8,7.4-10.2,8.9,4.3,17.8,6.6,26.3,9.8,2.7,1,3.5,2.2,1.1,4.5s-6.5,9.4-13.5,7.8c-.2,0-.5.3-1.3.9,7.1,4,2.1,5.9-1.2,8.2s-5.1,3.1-6.7,5.7a74.5,74.5,0,0,0-6.2,11.5c3.6.8,5.1-1.7,6.3-4.2C83,1832.7,88,1829.3,92.6,1825.5Zm10.4-9.2c3.7-3.3,4.8-2.9,6.1,1.9.7,2.3.4,4-2.5,3.9s-5.3.5-8.3-1.5Z"/>
    <path d="M103.3,18.3S82,19,78,18s-10.7,2.3,0,4.7S87.9,31,87.9,31l1.8,4.4s-8.5,7.7.3,9.7c7.1,1.6,15.6,21.2,15.6,21.2l16.2-19-15.9-3.5-5.5-5.6,11.9-15.5Z"/>
    <path d="M105.1,141.7s-20.9-2.2-25.3-.3-10.7,2.3,0,4.7,9.9,8.3,9.9,8.3l1.8,4.4s-8.5,7.7.3,9.7c7.1,1.6,15.6,21.2,15.6,21.2l16.2-19-15.9-3.5-5.5-5.6,11.9-15.5Z"/>
    <path d="M106.1,265.7s-19.1-4.3-25.3-.3c-3.5,2.2-10.7,2.3,0,4.7s9.9,8.3,9.9,8.3l1.8,4.4s-8.5,7.7.3,9.7c7.1,1.6,15.6,21.2,15.6,21.2l16.2-19-15.9-3.5-5.5-5.6,11.9-15.5Z"/>
    <path d="M105.9,390.5s-14.7-1.4-25.3-.3c-4.1.4-9.7-.3,0,4.7s9.9,8.3,9.9,8.3l1.8,4.4s-8.5,7.7.3,9.7c7.1,1.6,15.6,21.2,15.6,21.2l16.2-19L108.5,416l-5.5-5.6L114.9,395Z"/>
    <path d="M105.3,514s-15.4,1.8-25.3-.3c-4-.9-10.8,2.8,0,4.7s9.9,8.3,9.9,8.3l1.8,4.4s-8.5,7.7.3,9.7c7.1,1.6,15.6,21.2,15.6,21.2l16.2-19-15.9-3.5-5.5-5.6,11.9-15.5Z"/>
    <path d="M107.1,637.5s-15.4,1.8-25.3-.3c-5.9-1.3-10.9,4.9,0,4.7,17.3-.3,9.9,8.3,9.9,8.3l1.8,4.4s-8.5,7.7.3,9.7c7.1,1.6,15.6,21.2,15.6,21.2l16.2-19L109.7,663l-5.5-5.6L116.1,642Z"/>
    <path d="M105.3,761s-15.4-.5-25.3-.3c-6,.1-10.9,3.8,0,4.8,16.8,1.6,9.9,8.5,9.9,8.5l1.8,4.5s-8.5,7.9.3,9.9c7.1,1.6,15.6,21.7,15.6,21.7l16.2-19.4-15.9-3.6-5.5-5.7,11.9-15.8Z"/>
    <path d="M105.3,885s-15.4-3.4-25.3-.3c-5.8,1.8-8.3,3,0,4.8,15.9,3.4,9.9,8.5,9.9,8.5l1.8,4.5s-8.5,7.9.3,9.9c7.1,1.6,15.6,21.7,15.6,21.7l16.2-19.4-15.9-3.6-5.5-5.7,11.9-15.8Z"/>
    <path d="M105.3,1009.3s-13.2-7-24.3-2.3c-5.5,2.3-8.9,3.5-1,6.8,13,5.4,9.9,8.5,9.9,8.5l1.8,4.5s-5.2,6.3.3,9.9c8,5.3,15.6,21.7,15.6,21.7l16.2-19.4-15.9-3.6-5.5-5.7,11.9-15.8Z"/>
    <path d="M104.6,1131.1s-12.9-4-24.3-2.3c-6,.8-8.9,3.5-1,6.8,13,5.4,9.9,8.5,9.9,8.5l1.8,4.5s-5.2,6.3.3,9.9c8,5.3,15.6,21.7,15.6,21.7l16.2-19.4-15.9-3.6-5.5-5.7,11.9-15.8Z"/>
    <path d="M104.6,1252.1s-12.9-4-24.3-2.3c-6,.8-13.7,1.5-7,6.8,11.5,9.2,15.9,8.5,15.9,8.5l1.8,4.5s-5.2,6.3.3,9.9c8,5.3,15.6,21.7,15.6,21.7l16.2-19.4-15.9-3.6-5.5-5.7,11.9-15.8Z"/>
    <path d="M105.6,1377.4s-13.4-2.7-24.3-2.3c-6,.2-15.2,4.4-7,6.8s15.9,8.5,15.9,8.5l1.8,4.5s-5.2,6.3.3,9.9c8,5.3,15.6,21.7,15.6,21.7l16.2-19.4-15.9-3.6-5.5-5.7,11.9-15.8Z"/>
    <path d="M103.2,1500.4s-17.4.6-25.3-2.3c-5.6-2.1-20.1,6.7-10,6.8,7,0,18.9,8.5,18.9,8.5l1.8,4.5s-5.2,6.3.3,9.9c8,5.3,15.6,21.7,15.6,21.7l16.2-19.4-15.9-3.6-5.5-6.7,12.9-15.8Z"/>
    <path d="M105.4,1622s-21,0-25.3-2.3c-7.4-4-20.1,6.7-10,6.8,7,0,18.9,8.5,18.9,8.5l1.8,4.5s-5.2,6.3.3,9.9c8,5.3,15.6,21.7,15.6,21.7l16.2-19.4-15.9-3.6-5.5-6.7,12.9-15.8Z"/>
    <path d="M105.5,1744.2s-20.3-2.2-25.3-2.3c-8.4-.2-20.1,6.9-10,6.8,13-.1,18.9,8.5,18.9,8.5l1.8,4.5s-5.2,6.3.3,9.9c8,5.3,15.6,21.7,15.6,21.7l16.2-19.4-15.9-3.6-5.5-6.7,12.9-15.8Z"/>
    <g>
      <path d="M98.4,727.6c0-.7-1.3-1.4-2.1-2-3.3-2.8-6.5-5.8-10-8.2s-5.6-6.9-6-11.5,0-7.3-.3-11,1.1-5.9,5.7-4.6a197.7,197.7,0,0,0,41.2,6.6,16.2,16.2,0,0,1,11.2,5.8c1.9,2.3-2.6,4.5-2.8,7.3s-1.3,1.8-2.3,2.4-2.2,3.3-.9,6.5c2.3-4.8,6.5-7,7.8-11.5.4-1.4.8-3.4,3.4-2,6.7,3.5,11.8,9.2,17.3,14.1,2.6,2.3,4.1,2.5,8,2.6l-22.1-20.5c-.9-.9-2.5-1.1-2.3-2.9.7-5-2.4-6.3-6.4-6.9-2-.3-3.7-.5-3.2-3.7,1.3-8.9,6.1-15.3,12.9-20.8,2.4-1.9,5.2-2.2,6.6-.1,2.8,4.4,8.5,5.6,10.5,10.7,1.1,2.8,4.1.9,6,.8s3.3-2.1,2.2-4.3c-3.9-7.7-5.4-16.5-10.6-23.6-1.8-2.5-4.2-4.8-7.4-1.7-.8.8-1.5,1.3-2.5.8-6.8-3.9-12.2.1-17.9,2.9-3.1,1.5-7.2.3-10,3.1-.1.1-.6-.2-.9-.4-4-3.5-8.3-6.8-9.6-12.4l-.3-.5c-1.5,2.3-5.6,6.2-4.4,4.5,3-4.3-.6-5.8-2.6-7.2a3.5,3.5,0,0,0-1.8-.7c-1.4,2.4-4.4,6.2-4,3.3a3.9,3.9,0,0,1,4-3.3c.8-1.3,1-2.3,0-1.5-3.5,2.6-6.8,5.3-10.2,8-.9.7-1.8,1.5-1,2.9s11.1,4.8,13.5,3.1,2.5-1.3,3.8.2,3.2,3.6,4.9,5.5c-2,.9-3.6,1.7-5.3,2.3s-3,1.9-1,3.5c4.1,3.3,2.7,7.8,2.9,12,.1,2.3-1.4,2.3-2.9,2.2s-3.6-3.7-6.4-4a4.3,4.3,0,0,1,.1-1.8c.3-.8,1-.3,1.6-.2,2.5.4,2.4.3,1.6-2.2-2-6.3-7.9-8.4-12.9-12.3.1,3.8,3.9,3.9,4.7,6.5-7.7,0-15.3.5-22.8-.2A26.4,26.4,0,0,0,59.2,667c-3.4,1.9-6.9,3.3-10.9,1.7s-8.7-2-13.2-2.3c-9.1-.8-10.5,1-8.7,9.8.9,4.5,2.6,4.2,5.5,2.1a11.9,11.9,0,0,1,2.9-1.9c2.8-.9,5.6-1.6,8.4-2.3,1.8,6.8,4.3,1,6.3.2s2.5-1.2,3.8-.5.4,2.1.2,3.1c-.8,3.9-1.5,7.8-.4,11.8,2,7,.9,12.9-6.3,16.5a4.2,4.2,0,0,0-2.4,4.1c.1,5.3-.1,10.6,0,16,0,2.1-.8,4.9,1.6,5.8s5.5,2.1,8.3-.8c-2.6-1.1-5.4-1.8-6.1-4.8a15.8,15.8,0,0,1,6.5-17.1c3.5-2.5,6.9-5.2,10.3-7.8,1.5-1.2,3-3.5,4.9-2.8s2.6,3.6,3.1,5.9a18.9,18.9,0,0,1,.3,3.5,8.9,8.9,0,0,0,4.1,8c5.6,3.8,10,9.2,15.9,12.7l6.4,3.4C99,730.7,98.5,729.6,98.4,727.6Z"/>
      <path d="M100.7,642.6c-.4,3,2.6-.8,4-3.3A3.9,3.9,0,0,0,100.7,642.6Z"/>
      <path d="M113.4,641.4c-1.4.3-.3.7.2,1.4C114.3,641.8,114.4,641.1,113.4,641.4Z"/>
      <path d="M98.8,735.3l-2.5-1C97.1,735.4,98,736,98.8,735.3Z"/>
      <path d="M93.5,727.9a36.9,36.9,0,0,0,1.4,3.8C94.8,729.8,94.6,728.5,93.5,727.9Z"/>
      <path d="M99.9,731.3l.5.3Z"/>
      <path d="M100.4,731.6h0l-.5-.3-6.4-3.4c1.1.7,1.4,1.9,1.4,3.8a15.4,15.4,0,0,0,1.5,2.7l2.5,1C99.4,734.8,99.9,733.6,100.4,731.6Z"/>
    </g>
    <g>
      <path d="M113.8,488.2c7.3.4,14.7,2.5,23.2-1.1C128.4,486.7,121.1,486.6,113.8,488.2Z" fill="none"/>
      <path d="M112.3,394c-1.5.2-1.3,1.4-1.2,2.7C112.7,395.1,113.7,393.8,112.3,394Z"/>
      <path d="M97.7,395.4l3.9-2.9A4,4,0,0,0,97.7,395.4Z"/>
      <path d="M103.8,390.9l-2.2,1.5,1.2.4C104,391.5,104.7,390.3,103.8,390.9Z"/>
      <path d="M95.5,485.3a10.6,10.6,0,0,1-5.9-3.9c-4.4-5.5-10.7-9.6-12.2-17.2-.6-2.9,0-4.1,3.2-3.2,7.2,2.1,15.4,1.2,21.6,6.7a3.5,3.5,0,0,0,3.8.5c-.4-2.7-2-4.3-4-5.9-4.5-3.5-10-3.3-15.1-4.5s-8.1-7.8-5.5-13.7c1.5-3.5,4.3.9,6.7.8a11.5,11.5,0,0,1,2.9.5c10.7,2.1,20.9,5.4,29.8,12.1,1.2.9,3,1.6,2.6,3.3s-1.9,1.9-3.2,2.2c-3.6.8-7.7,2.4-8.8-3.6a2.8,2.8,0,0,0-4-1.9c-1.8,1.1-.2,2.7.5,3.9,3.9,6.8,5,7.1,12.5,4.4l2.8-1c4.6-1.6,5.3-4.4,2.1-8.2-1.2-1.5-2.9-2.7-3.7-5.6,5.4.8,10.5,1.3,15.4,2.3,2.6.5,4.2,2.5,4.8,5.2,1,4.5,2.9,8.8,1.8,13.6a2.2,2.2,0,0,0,1.5,2.8c2.3-6,.9-11.5-.5-17.3s-4.1-8.7-9.8-10.2c-7.5-1.9-7.4-2.3-3.7-8.9a11.6,11.6,0,0,0,1.2-2.7c1.5-6,5.6-10.5,9.2-15.3,2.1-2.7,5-3.3,7.9-1.4a90.2,90.2,0,0,1,11.1,8c2.5,2.3,4.3.1,6.2-.3s2.7-2.4,1.2-4.2c-4-4.9-5.9-11.2-10-16.1s-6.7-10.6-14.1-5.5a1.9,1.9,0,0,1-1,.1,37.4,37.4,0,0,0-17.3,4.5c-1.9,1-4.8-.1-6.6,2.6-.6,1-2-.3-2.9-1.1-2.9-2.9-4.9-6.2-5.1-10.5h0c-2.4,2.3-6.3,5.1-5.3,3.8,3.4-4.6-.9-6.2-2.9-7.5h-.2c-2,2.4-5.6,5.8-5.3,3.4a4,4,0,0,1,.2-.9c-1.7,1.3-3.3,2.7-4.9,4.2s-2,1.3-1.4,2.8,10,5.6,11.5,4.6c5.4-3.7,5.9,2.1,7.4,4.1s-3.2,1.3-3.2,3.7,2,1.8,3.1,2.6c3.8,2.9-.5,7,1,10.4.4.9.5,2-1,2.3a5.8,5.8,0,0,1-2,.1c-2.5-.5-4-5.3-6.8-5,0-1-.2,0,0-.9s1-1.1,1.9-.5,1.5,1.2,1.9-.1-.3-1.2-.6-1.8c-2.6-5.5-7.8-7.8-12.8-10.7-.5,2.4,2.4,2.4,2.2,4.7-7.2-2.6-14.6-.3-21.7-1.3s-10.8,1.1-15.1,4.9-7.4,4.1-11.9,2.1-10.2-1.4-15.3-1.3c-2.6,0-5.8,1.3-6,4.7s2.6,6.5,4.7,9.4a1,1,0,0,0,.9.1c2.4-4,7.4-3.6,10.4-5.8s4.7-1.3,5.9,3l1.5-2.6c.9-1.9,1.9-3.6,4.5-2.7s1.3,2.8,1.1,4.2a7.8,7.8,0,0,0,2.3,6.4c3.3,3.5,6.5,7.3,10.2,10.2s4.8,6,4.9,10.3c.1,2.6-1.2,5.8.7,7.8,5.4,5.7,9.1,12.6,14.5,18.2a3.3,3.3,0,0,1,1.1,3.1C91.2,489.8,96.5,491.8,95.5,485.3Z"/>
      <path d="M102.8,392.9l-1.2-.4-3.9,2.9a4,4,0,0,0-.2.9C97.2,398.7,100.7,395.3,102.8,392.9Z"/>
    </g>
    <g>
      <path d="M143.1,826.8c1.8-7.1,1.2-7.8-5.1-6.7C139.5,822.4,140.5,824.8,143.1,826.8Z" fill="none"/>
      <path d="M149.8,793.1h0Z" fill="none"/>
      <path d="M156.9,794.4c-1.9-2.5-3.4-5.3-7.3-3.9s-.6,1.8.1,2.7C152.4,791.6,154.2,795.4,156.9,794.4Z" fill="none"/>
      <path d="M79.3,856.3c4.4,0,8.5,1.9,12.9,2.4a1.3,1.3,0,0,0,1.2-1.5c-3.5-.9-7.2-1.4-10.8-2.3l-3.9,1A.7.7,0,0,0,79.3,856.3Z" fill="none"/>
      <path d="M78.9,854.8c2.1-2.4,0-2.2-1.5-2.4a13.5,13.5,0,0,1-9.2-20.2c3.3-5.7,6.6-11.6,8.3-18,.6-2.1,1.4-1.7,2.8-1.5,7.8,1.5,15.7,2.9,23.5,4.6s15.8.6,23.6,2.4a8.2,8.2,0,0,1,4.4,2.2c3.7,4,7.4,8.1,11,12.2.8.9,2.1,1.8.6,3.3s-1.6,2.6-.1,3.9,1.3,1.1,1.6.9.8-2.6,1.2-4,.4-.4.7-.7c3.7,2.1,4.8,6.7,8.5,8.8,7,3.8,6.9,3.9,10.3,2l-6.2-4.2c-10-6.2-12.6-11.8-10.4-22.9.6-3.2-.6-5.3-3.2-6.5s-8.8-.1-10.1-3.5,2.8-6.7,3.5-10.6,7.6-8.2,11.6-7.7h0c-.7-.8-3.4-1.5-.1-2.7s5.3,1.4,7.3,3.9c-2.7,1-4.5-2.8-7.1-1.3h0l2.1,1.2c4.6,2.4,10.8,2.4,12.3,9.3.5,2.4,4.1-.6,6,.9,1.1-1.4,3.4-2.4,2.6-4.3-3.2-8-3.9-16.9-8.8-24.3-1.8-2.6-4-6-7.8-2-1,1-1.8.5-2.5-.2-2.8-2.8-5.9-2.3-9.3-1.4-5.5,1.4-10.4,4.4-15.9,6-2.5.7-3.9.6-5.7-.8-5.2-4-6.1-6.8-8.5-12.1-6.8,4.4-11.9,12.1-10.5,8.5s-.1-5.8-2.3-7c-3,2.6-6.4,5.1-6.4,3.4s2.6-4.3,5.5-3.8l.9.3c2.9-2.5,5.5-5.1,4.5-4.3-2.7,2.3-5.5,1.3-8.3,3.4-6.6,5.1-6.5,5,.5,9.3,3.4,2.1,6.2,3.2,9-.6.8-1,1.6-1.7,2.9-.5l7.3,6.8c-3.5.2-6,.6-8.4,2s-2.8,2.6-.8,4.1c4.6,3.3,3,7.8,2.8,12.2-.1,2.1-1.1,2.2-2.8,2.5s-3.4-1.8-5.1-2.6-1.7-1.9-1.3-3.3,1.6.1,2.3,0,1-1.2.7-2.4c-2-6-7.2-8.5-11.9-12,0,3.3,3.5,3.5,4.6,6.4-7.4-.1-14.5,1.2-21.6,0A29.2,29.2,0,0,0,59.2,790a18.3,18.3,0,0,1-11.1,1c-6.8-1.4-13.8-2.3-20.8-1.4-1.7.2-3.9.5-3.6,3.2s-.3,7,2.2,9.9c.6.7,1.7.3,2.3-.3,6.5-6.9,16.2-2.5,23.4-6.7.2-.1.6.2,1.4.6a31.8,31.8,0,0,0-5,19.3c.2,3.4-1.4,5.5-3.7,7.7s-5.6,2.9-6.8,5.7a82.8,82.8,0,0,1-8.7,15.1c-2.7,3.9-.7,6.4,1.3,9.2a1.8,1.8,0,0,0,2.6.5c1.1-.6.4-1.5,0-2.1-1.6-2.9-.3-5.4,1.1-7.9C39.5,833.3,49.6,828,59,821.9c2.6-1.7,3.8-.2,3.7,2.4s-1.5,5.5-2.9,7.9-1.9,5.3.5,8.1,4.4,6.7,6.7,9.9,2.8,3.9-.7,5.9a25.2,25.2,0,0,1,7.5,1.1l4.9-1.3A1,1,0,0,1,78.9,854.8Zm64.2-28c-2.6-2-3.6-4.4-5.1-6.7C144.3,819,144.8,819.7,143.1,826.8Z"/>
      <path d="M95.2,770.6c0,1.7,3.3-.8,6.4-3.4l-.9-.3C97.8,766.3,95.2,768,95.2,770.6Z"/>
    </g>
    <g>
      <path d="M55.5,975.5l.5.3a13.8,13.8,0,0,0,.4-2.2A17.6,17.6,0,0,1,55.5,975.5Z" fill="none"/>
      <path d="M98.1,893.2c0,2,2-.7,3.8-3.6A3.6,3.6,0,0,0,98.1,893.2Z"/>
      <path d="M52.7,978.7c1.4.3,2.7-.4,3.3-2.9l-.5-.3A7.6,7.6,0,0,1,52.7,978.7Z"/>
      <path d="M52.7,978.7a7.6,7.6,0,0,0,2.8-3.2,10.9,10.9,0,0,1-5.1-6.1c-2.5-9.5-1.7-10.8,5.4-15.8s12.2-7.2,15.2-14.5c1.3-3.3,4.6-5.4,9.1-3.7s11.8,2.4,17.4,4c7.5,2.1,14.7,1.6,22,.6,4-.5,6.1,2.5,7.8,5.2,5,8.2,9.7,16.6,14.4,24.9.9,1.6,1.5,3.3,3.1,4.4s2.4,1,1.7,2.5l-.3.5c4.1,2,8.7,3.5,9.1.6-1.9,0-3.9.2-5.5-1.6-7.9-8.9-12-19.8-16.3-30.6-.6-1.6-.7-2.8,1.6-3.2,11.5-2.1,20.7,7.6,18.3,19.2-.3,1.4-.4,3.1,1.2,3.2s1-1.7,1.2-2.7c1.4-6.2-2.2-11.2-3.9-16.6a8.5,8.5,0,0,0-6.1-5.9l-6.6-2.2c-3.7-1.2-7.3-2.3-3.1-7.2,1.1-1.3,1.3-3.4,1.9-5.1,1.9-5.9,6.7-8.9,11.9-11.2,1.8-.8,4.6-1.1,5.5.8,2,4.5,7.1,6.2,8.8,10.9.9,2.6,3.8,2.2,5.9,1.9a2.6,2.6,0,0,0,1.9-3.5c-2.6-7.9-4-16.1-7.7-23.6-1.1-2.3-2.4-5.3-5.7-2a2.1,2.1,0,0,1-3.5-.1c-3.4-4.2-7.6-3.4-11.9-2L129,901.2c-1.4.5-2.9,1.3-4.3.4-5-3.4-9.9-6.7-13-12.1-.8-1.5-4.6.2-3.1-.2,3.3-.8-3.8,9.2-2.4,7,2.4-4-.9-5.3-3-6.3l-1.2-.3c-1.8,2.9-3.8,5.5-3.8,3.6a3.6,3.6,0,0,1,3.8-3.6c1.8-2.9,3.3-6,2.1-5l-10.4,9.3c-.9.9-2.4,2.4-.9,3.3a37.4,37.4,0,0,0,8.9,4.1c2.2.7,3.2-1.9,4.7-3.1s1.9-3,3.6-1.6,6.4,3.8,8.8,7.5c-4,.8-7.6,1.1-10.8,3s-2.5,2.6-.9,3.8c5.4,3.9,1.9,8.7,1.6,13.1-.1,1.5-1.2,1.7-2.5,1.8-3.6.3-3.5-2.9-4.7-4.8s-1.8-1.3-.1-1.7c4.7-1.1.6-3.3.3-4.5s-1.7-4.4-4.5-3.3c-4.9,1.7-10.2,1.4-15,1.1-9.2-.5-18.2-1.1-27.3,1.1a6,6,0,0,1-3-.2c-8-2.4-16.2-1.5-24.3-1.8-4.7-.2-5.4,2.2-4.6,5.9a32.2,32.2,0,0,0,1.8,5.2c.7,1.6,1.8,2.5,3.5,1.4,3.6-2.2,7.6-2.9,11.6-3.9s7.1.3,9.8-2.6c.9-.9,2.1-1.4,3-.3s0,2-.7,2.7c-3.1,3.3-4.4,7.6-4.9,11.8-.9,7.1-4.5,12-10.5,15.4-2,1.1-2.9,3.1-4.1,4.9-3.6,5.5-7,11.6-13.6,13.9-2.8,1-3.4,2.2-4,5,5.6-1.4,10.4-2.6,13.8-7.2a61,61,0,0,1,16.1-14.7c2.5-1.7,4.5-4.3,8.3-4.9-.8,3.8-3.7,5.1-5.9,6.8s-3.6,3.3-2.6,6.6a59,59,0,0,1,1.8,16C48.1,975.9,50.6,978.3,52.7,978.7Z"/>
    </g>
    <rect width="184.3" height="1848.75" fill="none"/>
  </g>
</svg>
